<svg version="1.1" xmlns="http://www.w3.org/2000/svg" xmlns:xlink="http://www.w3.org/1999/xlink" width="55.37669" height="18.65203" viewBox="0,0,55.37669,18.65203"><g transform="translate(-16.66839,-305.17921)"><g data-paper-data="{&quot;isPaintingLayer&quot;:true}" fill="#00b7d8" fill-rule="nonzero" stroke="#0097b6" stroke-width="1.5" stroke-linejoin="miter" stroke-miterlimit="10" stroke-dasharray="" stroke-dashoffset="0" style="mix-blend-mode: normal"><path d="M71.29508,313.91488c0,4.1863 -1.18272,7.57997 -2.64169,7.57997c-1.45897,0 -2.6417,-3.39367 -2.6417,-7.57997c0,-4.1863 1.18273,-7.57997 2.6417,-7.57997c1.45897,0 2.64169,3.39366 2.64169,7.57997z" data-paper-data="{&quot;origPos&quot;:null}" stroke-linecap="butt"/><path d="M67.17646,321.49485l-46.45607,-0.01067c0,0 -1.84916,-1.01987 -2.31212,-3.00822c-1.0365,-4.45162 -0.98956,-3.26452 -0.98956,-7.83521c0,-1.8373 2.06355,-4.70786 2.06355,-4.70786c0,0 28.71884,0.27375 47.49717,0.39136c0.47419,0.00297 0.50715,0.46038 0.4,0.92232c-0.32146,1.38582 -1.02989,2.44911 -0.98264,4.10265c0,0 -0.88666,2.48147 -0.19805,5.64917c0.53525,2.46218 0.97773,4.49647 0.97773,4.49647z" data-paper-data="{&quot;origPos&quot;:null}" stroke-linecap="round"/></g></g></svg>