<svg version="1.1" xmlns="http://www.w3.org/2000/svg" xmlns:xlink="http://www.w3.org/1999/xlink" width="61.01675" height="61.01675" viewBox="0,0,61.01675,61.01675"><defs><radialGradient cx="322.18424" cy="183.20165" r="27.85321" gradientUnits="userSpaceOnUse" id="color-1"><stop offset="0" stop-color="#c5c5c5"/><stop offset="1" stop-color="#d8d8d8"/></radialGradient></defs><g transform="translate(-289.52278,-149.44859)"><g data-paper-data="{&quot;isPaintingLayer&quot;:true}" fill-rule="nonzero" stroke-linecap="butt" stroke-linejoin="miter" stroke-miterlimit="10" stroke-dasharray="" stroke-dashoffset="0" style="mix-blend-mode: normal"><path d="M291.46047,180.04303c0,-15.74474 12.76363,-28.50837 28.50837,-28.50837c15.74474,0 28.50838,12.76363 28.50838,28.50837c0,15.74474 -12.76364,28.50838 -28.50837,28.50838c-15.74474,0 -28.50837,-12.76363 -28.50837,-28.50837z" data-paper-data="{&quot;origPos&quot;:null}" fill="#e7e7e7" stroke="#d8d8d8" stroke-width="1.5"/><path d="M307.16825,159.47435l1.42869,2.84323l0.53577,-5.22157l1.59661,5.43708l0.82843,-4.10756l1.66455,4.03208l1.01507,-1.81362c0,0 1.44082,2.22311 1.46507,4.39457c0.02501,2.23918 -1.71483,4.78844 -4.6765,4.75978c-1.59923,-0.01548 -4.42824,-0.73477 -5.07658,-3.33745c-0.64834,-2.60268 1.21889,-6.98656 1.21889,-6.98656z" data-paper-data="{&quot;origPos&quot;:null}" fill="#ffa454" stroke="#ff8521" stroke-width="1"/><path d="M305.63771,169.45878c0,-3.47549 2.81745,-6.29294 6.29295,-6.29294c3.4755,0 6.29294,2.81745 6.29294,6.29294c0,3.47549 -2.81744,6.29294 -6.29294,6.29294c-3.4755,0 -6.29295,-2.81745 -6.29295,-6.29294z" data-paper-data="{&quot;origPos&quot;:null}" fill="#6bcbff" stroke="#3bbeff" stroke-width="1"/><path d="M307.4559,173.88676c0,-3.47549 2.81745,-6.29294 6.29295,-6.29294c3.4755,0 6.29294,2.81745 6.29294,6.29294c0,3.4755 -2.81744,6.29294 -6.29294,6.29294c-3.4755,0 -6.29295,-2.81745 -6.29295,-6.29294z" data-paper-data="{&quot;origPos&quot;:null}" fill="#6bcbff" stroke="#3bbeff" stroke-width="1"/><g data-paper-data="{&quot;origPos&quot;:null}" fill="#6bcbff" stroke="#3bbeff" stroke-width="1"><path d="M309.1679,177.37391c0,-3.47549 2.81744,-6.29295 6.29294,-6.29295c3.4755,0 6.29294,2.81745 6.29294,6.29295c0,3.47549 -2.81745,6.29294 -6.29294,6.29294c-3.4755,0 -6.29294,-2.81744 -6.29294,-6.29294z" data-paper-data="{&quot;origPos&quot;:null}"/><path d="M311.4932,181.12577c0,-3.47549 2.81744,-6.29295 6.29294,-6.29295c3.4755,0 6.29294,2.81745 6.29294,6.29295c0,3.47549 -2.81744,6.29294 -6.29294,6.29294c-3.4755,0 -6.29294,-2.81744 -6.29294,-6.29294z" data-paper-data="{&quot;origPos&quot;:null}"/></g><path d="M312.828,187.34217c-2.77913,-2.77913 -1.87325,-8.19086 2.02334,-12.08744c3.89659,-3.89659 9.30832,-4.80246 12.08744,-2.02334c2.77913,2.77913 1.87326,8.19087 -2.02333,12.08745c-3.89659,3.89658 -9.30832,4.80246 -12.08745,2.02333z" data-paper-data="{&quot;origPos&quot;:null,&quot;origRot&quot;:0}" fill="#c5c5c5" stroke="#b3b3b3" stroke-width="2"/><path d="M312.77943,187.21888l14.00614,-14.00614l19.42899,19.42897l-14.00615,14.00615z" data-paper-data="{&quot;origRot&quot;:0,&quot;origPos&quot;:null}" fill="url(#color-1)" stroke="#b3b3b3" stroke-width="2"/><path d="M313.33595,187.1183c-2.635,-2.635 -1.7761,-7.76606 1.9184,-11.46055c3.6945,-3.6945 8.82556,-4.55339 11.46056,-1.9184c2.635,2.635 1.77611,7.76607 -1.91839,11.46056c-3.6945,3.69449 -8.82556,4.55338 -11.46056,1.91839z" data-paper-data="{&quot;origPos&quot;:null,&quot;origRot&quot;:0}" fill="#c5c5c5" stroke="none" stroke-width="2"/><path d="M291.52279,179.95696c0,-15.74474 12.76364,-28.50837 28.50838,-28.50837c15.74474,0 28.50837,12.76363 28.50837,28.50837c0,15.74474 -12.76363,28.50838 -28.50837,28.50838c-15.74474,0 -28.50837,-12.76363 -28.50837,-28.50837z" data-paper-data="{&quot;origPos&quot;:null}" fill="none" stroke="#d8d8d8" stroke-width="4"/></g></g></svg>