<svg version="1.1" xmlns="http://www.w3.org/2000/svg" xmlns:xlink="http://www.w3.org/1999/xlink" width="193.90203" height="40.60089" viewBox="0,0,193.90203,40.60089"><g transform="translate(-94.05624,-22.76807)"><g data-paper-data="{&quot;isPaintingLayer&quot;:true}" fill-rule="nonzero" stroke-linecap="butt" stroke-linejoin="miter" stroke-miterlimit="10" stroke-dasharray="" stroke-dashoffset="0" style="mix-blend-mode: normal"><path d="M126.88069,61.31283c-6.32997,-1.02487 -18.68721,-3.29116 -24.33742,-6.32333c-5.65005,-3.03207 -8.94335,-9.32952 -5.02933,-14.40857c3.91402,-5.07905 16.17193,-0.8713 14.68318,6.17565c-1.49739,7.08787 36.12033,18.02703 14.68357,14.55624z" data-paper-data="{&quot;origPos&quot;:null}" fill="#ffffff" stroke="#d3d3d3" stroke-width="3.5"/><path d="M104.81798,46.76586c-4.11439,-2.9665 -2.61796,-11.38918 0.97482,-14.93299c4.23523,-4.1775 7.36743,-5.88152 13.14102,-7.3148c5.05598,-1.25513 1.3734,7.84458 -0.3269,12.76873c-1.97321,5.71448 -0.29243,2.79508 -0.51942,10.5644c-0.09811,3.35786 -8.78986,2.14453 -13.26951,-1.08534z" data-paper-data="{&quot;origPos&quot;:null}" fill="#ffffff" stroke="#d3d3d3" stroke-width="3.5"/><path d="M124.55295,59.17106c-0.05483,-0.02826 -0.12202,-0.0521 -0.19874,-0.07315c-0.07717,-0.01102 -0.15415,-0.02247 -0.23086,-0.03434c-0.00012,0 -0.00025,0 -0.00037,0c-0.30299,0 -0.59338,-0.0539 -0.86212,-0.15263c-1.48042,-0.29566 -2.76897,-0.7311 -3.40308,-1.17177c-0.58417,-0.40596 -2.91324,-0.77525 -2.96449,-1.69764c-0.17016,-0.26214 -0.29255,-0.55815 -0.3548,-0.87571c-0.53039,-0.37954 -0.92452,-0.93735 -1.09478,-1.58587c-1.27958,-0.00414 -2.60064,-0.52173 -3.53871,-1.4598c-2.54257,-2.54257 1.7143,-10.07465 1.88793,-10.05001c-0.00987,-1.96654 1.15588,-1.30958 1.15258,-2.33261c-0.00292,-0.90301 -0.50034,-5.18472 0.73252,-5.25321c1.05761,-0.68657 2.56146,-7.77679 3.73331,-8.2423c1.51985,-0.60375 4.75321,-0.81818 6.1948,-0.04601c2.76577,1.48147 7.49602,5.28203 4.39446,5.75587c-2.73042,0.41714 -3.68592,0.82547 -4.63411,1.35817c-2.07497,1.16573 -3.06019,2.46266 -3.36228,3.11359c-0.52898,1.13979 -1.73059,2.64977 -1.73059,4.0423c0,0.55597 -0.18316,1.20545 -0.0941,2.95192c0.12759,2.50211 0.31015,3.22362 0.34859,3.25382l1.36147,2.91278c0.03965,0.01586 1.62703,1.88778 1.67137,1.90695c0.04434,0.01917 1.54452,1.38801 1.94163,1.56381c1.71289,0.75831 2.74029,1.08179 3.07659,1.17882c1.74477,0.50341 9.51982,0.64807 10.77821,0.32587c-0.22128,0.95584 -0.62201,2.45588 -0.78252,3.33252h-2.26944v-0.02243c-1.16255,-0.0446 -2.30221,-0.15048 -3.43943,-0.26969c-0.01513,2.89691 -6.3049,2.60563 -8.31303,1.57076zM139.35737,54.55991c0.01565,-0.06761 0.03041,-0.13249 0.04411,-0.19423c0.1927,0.07735 0.16012,0.14194 -0.04411,0.19423z" data-paper-data="{&quot;origPos&quot;:null}" fill="#ffffff" stroke="none" stroke-width="0.5"/><path d="M139.17761,58.50818c0,1.00819 -2.45191,1.8255 -5.47649,1.8255c-3.02458,0 -5.47649,-0.8173 -5.47649,-1.8255c0,-1.00819 2.45191,-1.8255 5.47649,-1.8255c3.02458,0 5.47649,0.8173 5.47649,1.8255z" data-paper-data="{&quot;origPos&quot;:null}" fill="#ffffff" stroke="none" stroke-width="0"/><path d="M121.77087,43.07267c0,-6.01751 4.12287,-9.42567 10.14038,-9.42567c0.03113,0 0.04864,0 0.07976,0c0.56611,0 86.43229,0.00706 140.8249,-0.00769c7.02293,-0.00189 13.15764,2.08049 13.39237,9.25991c0.27086,8.28391 -4.77967,10.09675 -12.38994,10.0889c-3.18187,-0.00327 -138.11839,0.02404 -141.28112,-0.05421c-6.01568,-0.14883 -10.76637,-3.70419 -10.76637,-9.72171z" data-paper-data="{&quot;origPos&quot;:null}" fill="none" stroke="#d3d3d3" stroke-width="3.5"/></g></g></svg>