<svg version="1.1" xmlns="http://www.w3.org/2000/svg" xmlns:xlink="http://www.w3.org/1999/xlink" width="644.79875" height="364.72286" viewBox="0,0,644.79875,364.72286"><g transform="translate(3.87893,1.65074)"><g data-paper-data="{&quot;isPaintingLayer&quot;:true}" fill-rule="nonzero" stroke-linejoin="miter" stroke-miterlimit="10" stroke-dasharray="" stroke-dashoffset="0" style="mix-blend-mode: normal"><path d="M9.62688,351.69925v-345.34535h623.12312v345.34535z" data-paper-data="{&quot;origPos&quot;:null}" fill="#a5ffff" stroke="#6c6c6c" stroke-width="5" stroke-linecap="butt"/><g data-paper-data="{&quot;origPos&quot;:null}" stroke-width="5" stroke-linecap="round"><path d="M196.10563,352.32553c0,0 23.89752,-2.79383 39.39734,-21.03854c14.53746,-17.11192 12.39392,-54.85596 12.39144,-68.7665c-0.00146,-8.1448 0.82402,-34.06676 -9.45671,-58.88275c-9.38811,-27.33483 -47.97695,-31.94847 -47.97695,-31.94847l121.80214,-6.3274c0,0 -18.98512,2.19286 -27.45011,38.61969c-2.07,8.90769 -3.30541,13.92741 -4.36255,23.01114c-0.77921,6.69557 -0.47431,28.59805 -0.47561,35.87161c-0.00248,13.91054 1.44618,29.58822 15.98364,46.70014c15.49981,18.24471 56.84515,43.10491 56.84515,43.10491z" data-paper-data="{&quot;origPos&quot;:null,&quot;index&quot;:null}" fill="#616161" stroke="#575757"/><path d="M192.17473,171.41042c0,0 -27.70278,10.57408 -36.45657,9.25364c-7.55871,-1.14017 -22.26455,-13.83499 -22.67026,-14.46289c-1.21715,-1.88372 -12.51062,-20.99922 -8.26303,-32.24698c0.25172,-0.66655 2.26968,-16.79151 12.00014,-22.82093c4.19166,-2.59734 12.00771,-6.34362 12.53153,-6.42711c6.89996,-1.0998 10.07285,0.09238 16.47955,2.88043c7.49774,3.26285 26.37864,18.66477 26.37864,18.66477c0,0 -19.03469,-19.32982 -25.44115,-34.77295c-3.18428,-7.67591 -1.95873,-18.43679 -1.66576,-19.37261c2.42075,-7.73244 6.45976,-18.04039 12.51974,-20.25255c6.35509,-2.31989 14.20661,-5.78339 20.89674,-6.78896c7.66021,-1.15137 7.08404,-1.6551 12.07821,-1.07794c11.63385,1.34448 22.79257,17.31911 25.80077,28.63746c3.0672,11.54035 4.27213,21.78595 4.27056,22.5948c-0.00754,3.90317 -1.42007,-16.12534 5.71554,-34.26819c2.76275,-7.02449 8.81771,-13.10796 16.06244,-15.22701c4.27704,-1.25102 16.98669,-3.76413 21.32367,-2.74005c9.70564,2.29176 20.3673,4.97828 25.74757,9.93422c0.53913,0.49662 7.96038,12.87521 8.6193,21.75887c1.69013,22.78631 -22.9304,56.84604 -22.4035,56.0464c9.06932,-13.76395 30.89765,-35.10138 53.23108,-29.22473c12.5229,3.29519 38.20507,15.26305 36.62661,30.58336c-2.39683,23.26333 -9.54289,34.05397 -26.63784,34.7989c-7.56502,0.32966 -48.7146,-2.14117 -48.7146,-2.14117" data-paper-data="{&quot;origPos&quot;:null}" fill="#9c9c9c" stroke="#787878"/></g><g data-paper-data="{&quot;origPos&quot;:null}" stroke-linecap="butt"><g data-paper-data="{&quot;origPos&quot;:null}"><g data-paper-data="{&quot;origPos&quot;:null}" fill="none" stroke="none" stroke-width="1" font-family="sans-serif" font-weight="normal" font-size="12" text-anchor="start"><g data-paper-data="{&quot;origPos&quot;:null}"/></g><g data-paper-data="{&quot;origPos&quot;:null}" fill="#ffffff" stroke="#d3d3d3"><g data-paper-data="{&quot;origPos&quot;:null}" stroke-width="3.5"><path d="M73.51784,325.46048v-11.40456h78.03122v11.40456z" data-paper-data="{&quot;origPos&quot;:null}"/><path d="M73.11568,299.84824v-11.40457h78.03122v11.40457z" data-paper-data="{&quot;origPos&quot;:null}"/></g><path d="M63.71592,352.2732v-78.63145c0,0 8.35815,-21.72762 9.60384,-19.20768c4.45077,9.0036 9.0036,19.20768 9.0036,19.20768v78.63145z" data-paper-data="{&quot;origPos&quot;:null}" stroke-width="5"/></g><g data-paper-data="{&quot;origPos&quot;:null}" fill="#ffffff" stroke="#d3d3d3"><g data-paper-data="{&quot;origPos&quot;:null}" stroke-width="3.5"><path d="M149.94641,325.05832v-11.40457h78.03122v11.40457z" data-paper-data="{&quot;origPos&quot;:null}"/><path d="M149.54425,299.44608v-11.40456h78.03122v11.40456z" data-paper-data="{&quot;origPos&quot;:null}"/></g><path d="M140.14449,351.87104v-78.63145c0,0 8.35815,-21.72762 9.60384,-19.20769c4.45077,9.0036 9.0036,19.20769 9.0036,19.20769v78.63145z" data-paper-data="{&quot;origPos&quot;:null}" stroke-width="5"/></g></g><g data-paper-data="{&quot;origPos&quot;:null}" fill="#ffffff" stroke="#d3d3d3"><g data-paper-data="{&quot;origPos&quot;:null}"><g data-paper-data="{&quot;origPos&quot;:null}" stroke-width="3.5"><path d="M222.37738,324.86024v-11.40456h78.03121v11.40456z" data-paper-data="{&quot;origPos&quot;:null}"/><path d="M221.97522,299.248v-11.40457h78.03122v11.40457z" data-paper-data="{&quot;origPos&quot;:null}"/></g><path d="M212.57546,351.67296v-78.63145c0,0 8.35815,-21.72762 9.60384,-19.20768c4.45077,9.0036 9.0036,19.20768 9.0036,19.20768v78.63145z" data-paper-data="{&quot;origPos&quot;:null}" stroke-width="5"/></g><g data-paper-data="{&quot;origPos&quot;:null}"><g data-paper-data="{&quot;origPos&quot;:null}" stroke-width="3.5"><path d="M298.80595,324.45808v-11.40457h78.03121v11.40457z" data-paper-data="{&quot;origPos&quot;:null}"/><path d="M298.40379,298.84584v-11.40456h78.03121v11.40456z" data-paper-data="{&quot;origPos&quot;:null}"/></g><path d="M289.00403,351.2708v-78.63145c0,0 8.35815,-21.72762 9.60384,-19.20769c4.45078,9.0036 9.0036,19.20769 9.0036,19.20769v78.63145z" data-paper-data="{&quot;origPos&quot;:null}" stroke-width="5"/></g><g data-paper-data="{&quot;origPos&quot;:null}"><g data-paper-data="{&quot;origPos&quot;:null}" stroke-width="3.5"><path d="M375.23452,324.05592v-11.40456h78.03122v11.40456z" data-paper-data="{&quot;origPos&quot;:null}"/><path d="M374.83236,298.44368v-11.40456h78.03121v11.40456z" data-paper-data="{&quot;origPos&quot;:null}"/></g><path d="M365.4326,350.86864v-78.63145c0,0 8.35815,-21.72762 9.60384,-19.20769c4.45078,9.0036 9.0036,19.20769 9.0036,19.20769v78.63145z" data-paper-data="{&quot;origPos&quot;:null}" stroke-width="5"/></g></g></g><g data-paper-data="{&quot;origPos&quot;:null}" stroke-width="5" stroke-linecap="round"><path d="M67.85832,351.32913c0,0 23.89752,-2.79383 39.39734,-21.03854c14.53746,-17.11192 12.39392,-54.85596 12.39144,-68.7665c-0.00145,-8.14481 0.82404,-34.06676 -9.4567,-58.88275c-9.38812,-27.33483 -47.97696,-31.94847 -47.97696,-31.94847l121.80214,-6.3274c0,0 -18.98512,2.19286 -27.45011,38.6197c-2.06999,8.90768 -3.30542,13.92741 -4.36255,23.01114c-0.77921,6.69557 -0.47431,28.59804 -0.47561,35.87161c-0.00248,13.91054 1.44618,29.58822 15.98364,46.70014c15.49982,18.2447 56.84516,43.1049 56.84516,43.1049z" data-paper-data="{&quot;origPos&quot;:null,&quot;index&quot;:null}" fill="#616161" stroke="#575757"/><path d="M63.92743,170.41402c0,0 -27.70277,10.57407 -36.45656,9.25364c-7.55871,-1.14017 -0.05566,-18.6369 -0.46138,-19.26481c-1.21715,-1.88372 -10.10966,-11.99563 -5.86207,-23.24338c0.25171,-0.66655 -22.34016,-20.9932 -12.6097,-27.02261c4.19167,-2.59733 12.00771,-6.34362 12.53153,-6.42711c6.89996,-1.09979 10.07285,0.09238 16.47955,2.88044c7.49773,3.26285 26.37863,18.66477 26.37863,18.66477c0,0 -19.03469,-19.32982 -25.44115,-34.77295c-3.18429,-7.67591 -1.95873,-18.43679 -1.66576,-19.37261c2.42076,-7.73245 6.45975,-18.04038 12.51974,-20.25255c6.35509,-2.31989 14.2066,-5.78339 20.89674,-6.78896c7.66021,-1.15138 7.08405,-1.65511 12.07821,-1.07795c11.63386,1.34448 22.79257,17.31911 25.80077,28.63746c3.0672,11.54035 4.27213,21.78595 4.27057,22.5948c-0.00754,3.90318 -1.42008,-16.12533 5.71554,-34.26818c2.76275,-7.0245 8.81772,-13.10796 16.06244,-15.22701c4.27703,-1.25102 16.98669,-3.76413 21.32367,-2.74005c9.70564,2.29176 20.3673,4.97827 25.74757,9.93421c0.53914,0.49661 7.96037,12.87521 8.6193,21.75887c1.69013,22.78632 -22.93041,56.84604 -22.40351,56.0464c9.06933,-13.76394 30.89766,-35.10137 53.23109,-29.22472c12.5229,3.29518 38.20508,15.26304 36.62662,30.58336c-2.39684,23.26333 -9.5429,34.05396 -26.63785,34.79889c-7.56502,0.32966 -48.7146,-2.14117 -48.7146,-2.14117" data-paper-data="{&quot;origPos&quot;:null}" fill="#9c9c9c" stroke="#787878"/></g><g data-paper-data="{&quot;origPos&quot;:null}" stroke-linecap="butt"><g data-paper-data="{&quot;origPos&quot;:null}" fill="#ffffff" stroke="#d3d3d3"><g data-paper-data="{&quot;origPos&quot;:null}" stroke-width="3.5"><path d="M445.86478,326.85904v-11.40456h78.03122v11.40456z" data-paper-data="{&quot;origPos&quot;:null}"/><path d="M445.46262,301.2468v-11.40457h78.03122v11.40457z" data-paper-data="{&quot;origPos&quot;:null}"/></g><path d="M436.06286,353.67176v-78.63145c0,0 8.35815,-21.72762 9.60384,-19.20768c4.45077,9.0036 9.0036,19.20768 9.0036,19.20768v78.63145z" data-paper-data="{&quot;origPos&quot;:null}" stroke-width="5"/></g><g data-paper-data="{&quot;origPos&quot;:null}" fill="#ffffff" stroke="#d3d3d3"><g data-paper-data="{&quot;origPos&quot;:null}" stroke-width="3.5"><path d="M522.29335,326.45688v-11.40457h78.03121v11.40457z" data-paper-data="{&quot;origPos&quot;:null}"/><path d="M521.89119,300.84464v-11.40456h78.03121v11.40456z" data-paper-data="{&quot;origPos&quot;:null}"/></g><path d="M512.49143,353.2696v-78.63145c0,0 8.35815,-21.72762 9.60384,-19.20769c4.45078,9.0036 9.0036,19.20769 9.0036,19.20769v78.63145z" data-paper-data="{&quot;origPos&quot;:null}" stroke-width="5"/></g><g data-paper-data="{&quot;origPos&quot;:null}"><g data-paper-data="{&quot;origPos&quot;:null}" fill="none" stroke="none" stroke-width="1" font-family="sans-serif" font-weight="normal" font-size="12" text-anchor="start"/><path d="M588.92,352.86744v-78.63145c0,0 8.35815,-21.72762 9.60384,-19.20769c4.45078,9.0036 9.00361,19.20769 9.00361,19.20769v78.63145z" data-paper-data="{&quot;origPos&quot;:null}" fill="#ffffff" stroke="#d3d3d3" stroke-width="5"/></g></g><g data-paper-data="{&quot;origPos&quot;:null}" stroke-width="5" stroke-linecap="round"><path d="M394.58702,349.72648c0,0 23.89753,-2.79383 39.39734,-21.03854c14.53746,-17.11192 12.39393,-54.85596 12.39144,-68.7665c-0.00145,-8.14481 0.82403,-34.06676 -9.4567,-58.88275c-9.38812,-27.33483 -47.97696,-31.94847 -47.97696,-31.94847l121.80214,-6.3274c0,0 -18.98512,2.19287 -27.45011,38.6197c-2.07,8.90769 -3.30541,13.92741 -4.36255,23.01114c-0.77921,6.69557 -0.47431,28.59804 -0.47561,35.87161c-0.00249,13.91054 1.44618,29.58822 15.98364,46.70014c15.49981,18.24471 56.84515,43.10491 56.84515,43.10491z" data-paper-data="{&quot;origPos&quot;:null,&quot;index&quot;:null}" fill="#616161" stroke="#575757"/><path d="M390.65615,168.8114c0,0 -27.70277,10.57408 -36.45656,9.25364c-7.55871,-1.14017 -22.26454,-13.83499 -22.67026,-14.46289c-1.21715,-1.88372 -12.51062,-20.99922 -8.26303,-32.24698c0.25172,-0.66655 2.26968,-16.79151 12.00014,-22.82093c4.19166,-2.59734 12.00771,-6.34362 12.53153,-6.42711c6.89996,-1.09979 10.07285,0.09239 16.47955,2.88044c7.49773,3.26285 26.37863,18.66477 26.37863,18.66477c0,0 -19.03469,-19.32982 -25.44115,-34.77295c-3.18429,-7.6759 -1.95873,-18.43679 -1.66576,-19.37261c2.42075,-7.73245 6.45975,-18.04039 12.51973,-20.25255c6.35509,-2.31989 14.20661,-5.78339 20.89674,-6.78896c7.66021,-1.15137 7.08404,-1.6551 12.07821,-1.07794c11.63386,1.34449 22.79257,17.31911 25.80077,28.63746c3.0672,11.54034 4.27214,21.78595 4.27057,22.5948c-0.00755,3.90317 -1.42008,-16.12534 5.71553,-34.26819c2.76275,-7.02451 8.81771,-13.10797 16.06244,-15.22702c4.27703,-1.25102 16.98669,-3.76413 21.32367,-2.74005c9.70565,2.29176 20.3673,4.97827 25.74757,9.93421c0.53913,0.49661 7.96037,12.87521 8.6193,21.75887c1.69013,22.78631 -22.93039,56.84604 -22.4035,56.0464c9.06933,-13.76395 30.89765,-35.10138 53.23108,-29.22473c12.5229,3.29519 38.20507,15.26305 36.62661,30.58336c-2.39683,23.26333 -9.54289,34.05396 -26.63784,34.79889c-7.56502,0.32965 -48.71461,-2.14117 -48.71461,-2.14117" data-paper-data="{&quot;origPos&quot;:null}" fill="#9c9c9c" stroke="#787878"/></g><path d="M20.61502,35.99611c0,-11.77573 9.54611,-21.32184 21.32184,-21.32184c11.77573,0 21.32184,9.54611 21.32184,21.32184c0,11.77573 -9.54611,21.32184 -21.32184,21.32184c-11.77573,0 -21.32184,-9.54611 -21.32184,-21.32184z" data-paper-data="{&quot;origPos&quot;:null}" fill="#fff7a6" stroke="none" stroke-width="0" stroke-linecap="butt"/><g data-paper-data="{&quot;origPos&quot;:null}" fill="#e5e5e5" stroke="none" stroke-linecap="butt"><path d="M427.68953,131.37903v-128.64494h119.40852v128.64494z" data-paper-data="{&quot;origPos&quot;:null}" stroke-width="NaN"/><path d="M0.96684,359.52655v-356.7753h57.16132v356.7753z" data-paper-data="{&quot;origPos&quot;:null}" stroke-width="NaN"/><path d="M37.15055,226.65845v-131.70991h598.62779v131.70993z" data-paper-data="{&quot;origPos&quot;:null}" stroke-width="NaN"/><path d="M95.9324,359.38075v-356.7753h94.09753v356.7753z" data-paper-data="{&quot;origPos&quot;:null}" stroke-width="NaN"/><path d="M140.46942,143.11145v-139.79417h81.20676v139.79417z" data-paper-data="{&quot;origPos&quot;:null}" stroke-width="NaN"/><path d="M258.91786,359.08916v-356.7753h132.10438v356.7753z" data-paper-data="{&quot;origPos&quot;:null}" stroke-width="NaN"/><path d="M228.06109,361.51626v-165.52316h165.88452v165.52316z" data-paper-data="{&quot;origPos&quot;:null}" stroke-width="NaN"/><path d="M447.39707,359.66981v-356.7753h90.10309v356.7753z" data-paper-data="{&quot;origPos&quot;:null}" stroke-width="NaN"/><path d="M584.56283,128.66033v-128.64494h51.74707v128.64494z" data-paper-data="{&quot;origPos&quot;:null}" stroke-width="NaN"/><path d="M27.72354,56.66458v-53.80897h598.62779v53.80899z" data-paper-data="{&quot;origPos&quot;:null}" stroke-width="NaN"/><path d="M28.83133,360.80443v-96.91253h610.63465v96.91253z" data-paper-data="{&quot;origPos&quot;:null}" stroke-width="NaN"/><path d="M509.23443,301.75638v-128.64494h44.59691v128.64494z" data-paper-data="{&quot;origPos&quot;:null}" stroke-width="NaN"/></g><g data-paper-data="{&quot;origPos&quot;:null}"><g data-paper-data="{&quot;origPos&quot;:null}" stroke="#7b4c00" stroke-width="1.5" stroke-linecap="round"><g data-paper-data="{&quot;origPos&quot;:null}"><g data-paper-data="{&quot;origPos&quot;:null}"><path d="M76.91163,356.94088l42.54491,-50.43202l-0.51386,-137.07068l45.36969,0.09313l0.66938,137.23971l42.54491,50.43202z" data-paper-data="{&quot;origPos&quot;:null}" fill="#955800"/><path d="M119.38285,187.12224h44.74302" data-paper-data="{&quot;origPos&quot;:null}" fill="none"/><path d="M164.25631,182.42617h-45.00392" data-paper-data="{&quot;origPos&quot;:null}" fill="none"/><path d="M164.12587,178.38234h-44.87347" data-paper-data="{&quot;origPos&quot;:null}" fill="none"/><path d="M119.34615,174.33852h44.87347" data-paper-data="{&quot;origPos&quot;:null}" fill="none"/><path d="M132.01768,191.45869v-4.40652" data-paper-data="{&quot;origPos&quot;:null}" fill="none"/><path d="M162.20593,185.97637v-3.29857" data-paper-data="{&quot;origPos&quot;:null}" fill="none"/><path d="M150.19399,186.33292v-3.75024" data-paper-data="{&quot;origPos&quot;:null}" fill="none"/><path d="M138.23704,183.18474v3.02363" data-paper-data="{&quot;origPos&quot;:null}" fill="none"/><path d="M126.13881,182.94059v3.54905" data-paper-data="{&quot;origPos&quot;:null}" fill="none"/><path d="M156.73055,179.01576v2.23894" data-paper-data="{&quot;origPos&quot;:null}" fill="none"/><path d="M144.1388,178.80162v2.97501" data-paper-data="{&quot;origPos&quot;:null}" fill="none"/><path d="M131.3528,179.15397v2.70634" data-paper-data="{&quot;origPos&quot;:null}" fill="none"/><path d="M125.59285,174.77851v3.15346" data-paper-data="{&quot;origPos&quot;:null}" fill="none"/><path d="M131.20518,170.04215v3.41626" data-paper-data="{&quot;origPos&quot;:null}" fill="none"/><path d="M138.11913,177.66918v-2.97827" data-paper-data="{&quot;origPos&quot;:null}" fill="none"/><path d="M150.38262,177.75679v-3.06588" data-paper-data="{&quot;origPos&quot;:null}" fill="none"/><path d="M144.42607,174.16534v-3.94184" data-paper-data="{&quot;origPos&quot;:null}" fill="none"/><path d="M157.39033,173.55216v-3.15347" data-paper-data="{&quot;origPos&quot;:null}" fill="none"/></g><path d="M119.28684,202.51488h44.74302" data-paper-data="{&quot;origPos&quot;:null}" fill="none"/><path d="M164.16031,197.55793h-44.87346" data-paper-data="{&quot;origPos&quot;:null}" fill="none"/><path d="M164.29075,192.07919h-45.13436" data-paper-data="{&quot;origPos&quot;:null}" fill="none"/><path d="M155.28351,197.68206v4.47787" data-paper-data="{&quot;origPos&quot;:null}" fill="none"/><path d="M142.83501,197.59839v3.85098" data-paper-data="{&quot;origPos&quot;:null}" fill="none"/><path d="M130.74081,201.27024v-3.5823" data-paper-data="{&quot;origPos&quot;:null}" fill="none"/><path d="M161.54853,196.96566v-4.6878" data-paper-data="{&quot;origPos&quot;:null}" fill="none"/><path d="M150.02495,196.334v-4.31277" data-paper-data="{&quot;origPos&quot;:null}" fill="none"/><path d="M137.3518,192.62209v4.27445" data-paper-data="{&quot;origPos&quot;:null}" fill="none"/><path d="M125.83174,192.11498v4.21901" data-paper-data="{&quot;origPos&quot;:null}" fill="none"/><path d="M144.20789,187.33344v4.40652" data-paper-data="{&quot;origPos&quot;:null}" fill="none"/><path d="M156.29898,187.65303v3.89942" data-paper-data="{&quot;origPos&quot;:null}" fill="none"/></g><g data-paper-data="{&quot;origPos&quot;:null}" fill="none"><path d="M119.84145,269.52421h44.51577" data-paper-data="{&quot;origPos&quot;:null}"/><path d="M104.43828,356.22663v-5.68469" data-paper-data="{&quot;origPos&quot;:null}"/><path d="M90.6687,356.60561v-5.68469" data-paper-data="{&quot;origPos&quot;:null}"/><path d="M96.98502,349.31339v-6.06367" data-paper-data="{&quot;origPos&quot;:null}"/><path d="M104.18563,336.17544v5.93734" data-paper-data="{&quot;origPos&quot;:null}"/><path d="M111.63889,343.24972v6.44265" data-paper-data="{&quot;origPos&quot;:null}"/><path d="M111.76521,329.7328v5.43203" data-paper-data="{&quot;origPos&quot;:null}"/><path d="M97.74298,332.25933v3.28449" data-paper-data="{&quot;origPos&quot;:null}"/><g data-paper-data="{&quot;origPos&quot;:null}"><g data-paper-data="{&quot;origPos&quot;:null}"><path d="M163.73818,212.95057h-44.74302" data-paper-data="{&quot;origPos&quot;:null}"/><path d="M163.86863,207.47183h-44.61258" data-paper-data="{&quot;origPos&quot;:null}"/><path d="M161.50021,213.06673v4.08694" data-paper-data="{&quot;origPos&quot;:null}"/><path d="M149.40606,217.51021v-4.50028" data-paper-data="{&quot;origPos&quot;:null}"/><path d="M137.40531,217.29806v-4.0315" data-paper-data="{&quot;origPos&quot;:null}"/><path d="M125.31081,217.75453v-4.6878" data-paper-data="{&quot;origPos&quot;:null}"/><path d="M155.76742,207.78509v4.47787" data-paper-data="{&quot;origPos&quot;:null}"/><path d="M143.31892,211.81518v-3.85098" data-paper-data="{&quot;origPos&quot;:null}"/><path d="M131.04952,211.63606v-3.5823" data-paper-data="{&quot;origPos&quot;:null}"/><path d="M160.76357,207.57621v-4.8753" data-paper-data="{&quot;origPos&quot;:null}"/><path d="M148.76281,202.8193v4.50028" data-paper-data="{&quot;origPos&quot;:null}"/><path d="M136.67447,202.72555v4.0315" data-paper-data="{&quot;origPos&quot;:null}"/><path d="M124.57996,202.61332v4.68779" data-paper-data="{&quot;origPos&quot;:null}"/></g><g data-paper-data="{&quot;origPos&quot;:null}"><path d="M164.21347,228.21276h-44.87347" data-paper-data="{&quot;origPos&quot;:null}"/><path d="M164.08302,223.5167h-44.87347" data-paper-data="{&quot;origPos&quot;:null}"/><path d="M163.82213,218.03797h-44.35168" data-paper-data="{&quot;origPos&quot;:null}"/><path d="M155.15446,228.33378v4.47787" data-paper-data="{&quot;origPos&quot;:null}"/><path d="M142.70596,228.51289v3.85098" data-paper-data="{&quot;origPos&quot;:null}"/><path d="M130.61176,228.60245v3.58231" data-paper-data="{&quot;origPos&quot;:null}"/><path d="M161.41948,223.45515v4.68779" data-paper-data="{&quot;origPos&quot;:null}"/><path d="M149.8959,228.03687v-4.31277" data-paper-data="{&quot;origPos&quot;:null}"/><path d="M137.22275,223.53659v4.27445" data-paper-data="{&quot;origPos&quot;:null}"/><path d="M125.7027,227.86167v-4.21901" data-paper-data="{&quot;origPos&quot;:null}"/><path d="M131.79262,218.14187v4.40653" data-paper-data="{&quot;origPos&quot;:null}"/><path d="M144.07884,222.74207v-4.40653" data-paper-data="{&quot;origPos&quot;:null}"/><path d="M156.16915,222.81734v-4.68779" data-paper-data="{&quot;origPos&quot;:null}"/></g><g data-paper-data="{&quot;origPos&quot;:null}"><path d="M119.32471,248.87113h44.51577" data-paper-data="{&quot;origPos&quot;:null}"/><path d="M164.21347,243.8663h-44.48213" data-paper-data="{&quot;origPos&quot;:null}"/><path d="M119.86179,238.38756h43.96034" data-paper-data="{&quot;origPos&quot;:null}"/><path d="M119.20955,233.03927h45.26481" data-paper-data="{&quot;origPos&quot;:null}"/><path d="M131.26004,249.40676v4.40652" data-paper-data="{&quot;origPos&quot;:null}"/><path d="M143.54626,249.68803v4.40652" data-paper-data="{&quot;origPos&quot;:null}"/><path d="M155.63656,249.13165v4.68779" data-paper-data="{&quot;origPos&quot;:null}"/><path d="M161.34691,248.24337v-4.08694" data-paper-data="{&quot;origPos&quot;:null}"/><path d="M149.34876,244.18723v4.50028" data-paper-data="{&quot;origPos&quot;:null}"/><path d="M137.34801,244.53145v4.0315" data-paper-data="{&quot;origPos&quot;:null}"/><path d="M125.25351,244.15643v4.68779" data-paper-data="{&quot;origPos&quot;:null}"/><path d="M155.71012,239.22517v4.47788" data-paper-data="{&quot;origPos&quot;:null}"/><path d="M143.26162,239.40429v3.85098" data-paper-data="{&quot;origPos&quot;:null}"/><path d="M130.99222,239.49384v3.5823" data-paper-data="{&quot;origPos&quot;:null}"/><path d="M161.05665,238.14033v-4.8753" data-paper-data="{&quot;origPos&quot;:null}"/><path d="M149.0559,238.14649v-4.50028" data-paper-data="{&quot;origPos&quot;:null}"/><path d="M136.96755,233.64006v4.0315" data-paper-data="{&quot;origPos&quot;:null}"/><path d="M124.87304,233.26503v4.68779" data-paper-data="{&quot;origPos&quot;:null}"/></g><g data-paper-data="{&quot;origPos&quot;:null}"><path d="M119.88499,264.66077h44.51577" data-paper-data="{&quot;origPos&quot;:null}"/><path d="M119.3268,259.35794h44.93441" data-paper-data="{&quot;origPos&quot;:null}"/><path d="M164.58385,254.33423h-44.79487" data-paper-data="{&quot;origPos&quot;:null}"/><path d="M160.6657,264.5863v4.8753" data-paper-data="{&quot;origPos&quot;:null}"/><path d="M148.66495,269.46776v-4.50029" data-paper-data="{&quot;origPos&quot;:null}"/><path d="M136.5766,264.96132v4.0315" data-paper-data="{&quot;origPos&quot;:null}"/><path d="M124.4821,264.5863v4.68779" data-paper-data="{&quot;origPos&quot;:null}"/><path d="M154.76352,259.65504v4.47788" data-paper-data="{&quot;origPos&quot;:null}"/><path d="M142.21901,263.68514v-3.85098" data-paper-data="{&quot;origPos&quot;:null}"/><path d="M130.22081,259.92371v3.5823" data-paper-data="{&quot;origPos&quot;:null}"/><path d="M161.02854,254.16324v4.6878" data-paper-data="{&quot;origPos&quot;:null}"/><path d="M149.50496,258.56977v-4.31277" data-paper-data="{&quot;origPos&quot;:null}"/><path d="M136.7358,254.85786v4.27444" data-paper-data="{&quot;origPos&quot;:null}"/><path d="M125.31175,254.35075v4.21902" data-paper-data="{&quot;origPos&quot;:null}"/></g></g><g data-paper-data="{&quot;origPos&quot;:null}"><path d="M168.12501,310.87832h-51.77226" data-paper-data="{&quot;origPos&quot;:null}"/><path d="M120.53918,304.96937h44.37623" data-paper-data="{&quot;origPos&quot;:null}"/><path d="M119.7019,300.22474h44.79487" data-paper-data="{&quot;origPos&quot;:null}"/><path d="M164.91541,295.06147h-44.79486" data-paper-data="{&quot;origPos&quot;:null}"/><path d="M119.84145,290.1773h44.37622" data-paper-data="{&quot;origPos&quot;:null}"/><path d="M119.7019,285.01403h45.07396" data-paper-data="{&quot;origPos&quot;:null}"/><path d="M119.981,280.2694h44.65532" data-paper-data="{&quot;origPos&quot;:null}"/><path d="M164.44013,274.49778h-45.07396" data-paper-data="{&quot;origPos&quot;:null}"/><path d="M118.75975,311.39531v4.59404" data-paper-data="{&quot;origPos&quot;:null}"/><path d="M131.69806,311.39531v4.96906" data-paper-data="{&quot;origPos&quot;:null}"/><path d="M144.16759,311.48907v4.40653" data-paper-data="{&quot;origPos&quot;:null}"/><path d="M155.32453,311.20779v4.96906" data-paper-data="{&quot;origPos&quot;:null}"/><path d="M166.8565,310.83492v5.25032" data-paper-data="{&quot;origPos&quot;:null}"/><path d="M160.57486,309.98897v-4.31277" data-paper-data="{&quot;origPos&quot;:null}"/><path d="M149.41791,305.76996v4.87531" data-paper-data="{&quot;origPos&quot;:null}"/><path d="M136.76087,310.27024v-4.96906" data-paper-data="{&quot;origPos&quot;:null}"/><path d="M125.13515,310.17863v-5.25033" data-paper-data="{&quot;origPos&quot;:null}"/><path d="M131.41679,304.26986v-4.0315" data-paper-data="{&quot;origPos&quot;:null}"/><path d="M143.60505,303.98859v-3.46896" data-paper-data="{&quot;origPos&quot;:null}"/><path d="M154.38697,300.51963v4.31277" data-paper-data="{&quot;origPos&quot;:null}"/><path d="M160.84774,299.86334v-4.68779" data-paper-data="{&quot;origPos&quot;:null}"/><path d="M149.32415,299.58207v-4.31277" data-paper-data="{&quot;origPos&quot;:null}"/><path d="M136.56917,300.14461v-5.06282" data-paper-data="{&quot;origPos&quot;:null}"/><path d="M125.13095,295.36305v4.21902" data-paper-data="{&quot;origPos&quot;:null}"/><path d="M131.22088,290.30024v4.40653" data-paper-data="{&quot;origPos&quot;:null}"/><path d="M143.5071,290.58151v4.40653" data-paper-data="{&quot;origPos&quot;:null}"/><path d="M155.59741,290.11273v4.68779" data-paper-data="{&quot;origPos&quot;:null}"/><path d="M161.22276,285.04991v4.8753" data-paper-data="{&quot;origPos&quot;:null}"/><path d="M149.22201,285.51869v4.50029" data-paper-data="{&quot;origPos&quot;:null}"/><path d="M137.22126,285.42494v4.0315" data-paper-data="{&quot;origPos&quot;:null}"/><path d="M125.12675,289.7377v-4.68779" data-paper-data="{&quot;origPos&quot;:null}"/><path d="M155.58336,280.11866v4.47787" data-paper-data="{&quot;origPos&quot;:null}"/><path d="M143.13486,284.14875v-3.85098" data-paper-data="{&quot;origPos&quot;:null}"/><path d="M130.86547,283.96963v-3.58231" data-paper-data="{&quot;origPos&quot;:null}"/><path d="M160.47428,274.73914v4.68779" data-paper-data="{&quot;origPos&quot;:null}"/><path d="M148.9507,274.8329v4.31277" data-paper-data="{&quot;origPos&quot;:null}"/><path d="M136.19571,279.7082v-5.06282" data-paper-data="{&quot;origPos&quot;:null}"/><path d="M124.7575,274.92665v4.21902" data-paper-data="{&quot;origPos&quot;:null}"/><path d="M130.84742,269.77223v4.40653" data-paper-data="{&quot;origPos&quot;:null}"/><path d="M143.13364,274.46002v-4.40652" data-paper-data="{&quot;origPos&quot;:null}"/><path d="M155.22395,274.36412v-4.68779" data-paper-data="{&quot;origPos&quot;:null}"/></g><g data-paper-data="{&quot;origPos&quot;:null}"><path d="M82.60818,350.12569h117.7597" data-paper-data="{&quot;origPos&quot;:null}"/><path d="M88.91878,342.78684h105.42082v6.99714" data-paper-data="{&quot;origPos&quot;:null}"/><path d="M94.78849,336.08229h93.92126" data-paper-data="{&quot;origPos&quot;:null}"/><path d="M183.54647,329.52979h-83.44962" data-paper-data="{&quot;origPos&quot;:null}"/><path d="M106.02622,329.69809v-6.72704h72.28579" data-paper-data="{&quot;origPos&quot;:null}"/><path d="M173.00919,316.59978h-61.8197" data-paper-data="{&quot;origPos&quot;:null}"/><path d="M187.72211,350.57666v5.93734" data-paper-data="{&quot;origPos&quot;:null}"/><path d="M178.08659,349.78398v-5.93734" data-paper-data="{&quot;origPos&quot;:null}"/><path d="M186.67678,342.20439v-5.81101" data-paper-data="{&quot;origPos&quot;:null}"/><path d="M172.4019,330.07705v5.68469" data-paper-data="{&quot;origPos&quot;:null}"/><path d="M172.56294,350.19768v6.19" data-paper-data="{&quot;origPos&quot;:null}"/><path d="M185.53985,335.63542v-4.04244" data-paper-data="{&quot;origPos&quot;:null}"/><path d="M177.07598,329.44543v-5.93734" data-paper-data="{&quot;origPos&quot;:null}"/></g></g></g><path d="M113.15568,356.0272v-40.06647h57.79173v40.06647z" data-paper-data="{&quot;origPos&quot;:null}" fill="#000000" stroke="#372200" stroke-width="1.5" stroke-linecap="butt"/><g data-paper-data="{&quot;origPos&quot;:null}" fill="#5f3700" stroke="#3f2400"><path d="M122.21938,346.45245c0,3.26735 -2.22292,5.91607 -4.96503,5.91607c-2.74211,0 -4.13932,-3.25423 -4.13932,-6.52159c0,-3.26735 1.39721,-5.35023 4.13932,-5.35023c2.74211,0 4.96503,2.6884 4.96503,5.95575z" data-paper-data="{&quot;origPos&quot;:null}" stroke-width="1.5" stroke-linecap="butt"/><path d="M120.81899,336.56691v0v0z" stroke-width="1.5" stroke-linecap="butt"/><path d="M170.80491,345.68072c0.02051,0.5465 0.08986,1.92426 0.08986,1.92426c0,0 0.03963,1.16691 -0.28862,1.57259c-0.87627,1.08298 0.0542,0.48748 -1.09909,1.47273c-0.89158,0.76168 -1.28679,1.15782 -2.83853,1.17261c-6.5659,0.06257 -0.0701,0.21357 -16.23811,0.29861c-33.46455,0.176 -1.22267,0.05991 -33.29136,0.18842c-0.96474,0.00387 1.1041,-0.28181 1.86372,-0.63843c0.85248,-0.40022 1.65326,-0.78704 2.04068,-1.39326c0.26887,-0.42073 1.09578,-2.24524 1.16287,-2.70207c0.06999,-0.47651 -0.06807,-1.93023 -0.06291,-2.40857c0.00379,-0.3501 -0.02698,-0.66434 -0.49489,-1.67134c-0.43659,-0.9396 -1.00358,-1.66217 -2.13238,-2.36449c-0.92489,-0.57544 -2.31201,-0.62441 -2.31201,-0.62441l49.74868,-0.65757c0,0 2.00921,0.30105 2.74441,1.30672c0.62625,0.85663 0.81839,1.11081 1.08867,2.03199c0.14095,0.48041 -0.07026,0.82663 -0.0588,1.31437c0,0 0.06459,0.82571 0.07781,1.17784z" data-paper-data="{&quot;origPos&quot;:null}" stroke-width="1.5" stroke-linecap="round"/><path d="M124.46296,342.62141h3.88405" stroke-width="0.5" stroke-linecap="round"/><path d="M125.13845,347.27929h2.1109" stroke-width="0.5" stroke-linecap="round"/><path d="M132.99098,349.60823h-3.71518" stroke-width="0.5" stroke-linecap="round"/><path d="M132.31549,344.64658h2.53307" stroke-width="0.5" stroke-linecap="round"/><path d="M139.49253,341.86198h-2.61751" stroke-width="0.5" stroke-linecap="round"/><path d="M137.12833,346.87426h2.1109" stroke-width="0.5" stroke-linecap="round"/><path d="M141.01238,350.46893h-1.60428" stroke-width="0.5" stroke-linecap="round"/><path d="M143.71432,342.52016h-2.27976" stroke-width="0.5" stroke-linecap="round"/><path d="M144.05207,344.69721h-2.95525" stroke-width="0.5" stroke-linecap="round"/><path d="M144.05207,347.93747h2.3642" stroke-width="0.5" stroke-linecap="round"/><path d="M146.92289,350.46893h2.53308" stroke-width="0.5" stroke-linecap="round"/><path d="M148.69604,346.06419h1.43541" stroke-width="0.5" stroke-linecap="round"/><path d="M149.11822,343.27959h3.88405" stroke-width="0.5" stroke-linecap="round"/><path d="M149.28709,341.50757h5.48833" stroke-width="0.5" stroke-linecap="round"/><path d="M157.05518,347.1274h-2.11089" stroke-width="0.5" stroke-linecap="round"/><path d="M161.44585,344.29217h-3.293" stroke-width="0.5" stroke-linecap="round"/><path d="M161.27698,342.16575h2.19534" stroke-width="0.5" stroke-linecap="round"/><path d="M163.97892,345.30475h3.46187" stroke-width="0.5" stroke-linecap="round"/><path d="M161.95246,348.3425h3.79962" stroke-width="0.5" stroke-linecap="round"/><path d="M164.56998,350.87396h-1.26654" stroke-width="0.5" stroke-linecap="round"/><path d="M158.15285,349.76012h-3.46186" stroke-width="0.5" stroke-linecap="round"/><path d="M153.08671,348.54502h-2.19534" stroke-width="0.5" stroke-linecap="round"/><path d="M113.96521,344.29217l1.43541,-1.87327" stroke-width="0.5" stroke-linecap="round"/><path d="M113.62747,345.05161l-0.25331,0.65818" stroke-width="0.5" stroke-linecap="round"/><path d="M113.28973,346.4186l0.08443,0.45566" stroke-width="0.5" stroke-linecap="round"/><path d="M113.4586,347.83621l0.08443,0.55692" stroke-width="0.5" stroke-linecap="round"/><path d="M113.79634,349.15257l0.16887,0.55692" stroke-width="0.5" stroke-linecap="round"/><path d="M114.72513,350.21578l0.50661,0.3544" stroke-width="0.5" stroke-linecap="round"/><path d="M117.42708,351.02584l0.67549,-0.10125" stroke-width="0.5" stroke-linecap="round"/><path d="M115.8228,351.1271l0.59105,0.15189" stroke-width="0.5" stroke-linecap="round"/><path d="M119.20023,350.21578l-0.25331,0.3544" stroke-width="0.5" stroke-linecap="round"/><path d="M120.21346,348.84879l-0.08443,0.50629" stroke-width="0.5" stroke-linecap="round"/><path d="M120.80451,345.81105l-0.16887,-0.75944" stroke-width="0.5" stroke-linecap="round"/><path d="M116.32941,341.65946l0.75992,-0.15188" stroke-width="0.5" stroke-linecap="round"/><path d="M118.60918,341.81134l-0.75992,-0.30377" stroke-width="0.5" stroke-linecap="round"/><path d="M119.45354,342.52016l1.01323,1.41761" stroke-width="0.5" stroke-linecap="round"/><path d="M120.46677,348.34251l0.33774,-1.82265" stroke-width="0.5" stroke-linecap="round"/><path d="M117.34264,342.4189l1.09767,0.65818" stroke-width="0.5" stroke-linecap="round"/><path d="M119.45354,343.9884l0.33774,0.55692" stroke-width="0.5" stroke-linecap="round"/><path d="M119.79128,345.30475l0.16887,0.8607" stroke-width="0.5" stroke-linecap="round"/><path d="M119.96016,347.02614l-0.08444,0.65818" stroke-width="0.5" stroke-linecap="round"/><path d="M119.45354,348.3425l-0.08444,0.65818" stroke-width="0.5" stroke-linecap="round"/><path d="M118.77805,349.40571l-0.16887,0.45567" stroke-width="0.5" stroke-linecap="round"/><path d="M117.93369,350.11452l-1.51985,0.3544" stroke-width="0.5" stroke-linecap="round"/><path d="M114.38739,349.35508l1.01323,0.70881" stroke-width="0.5" stroke-linecap="round"/><path d="M114.55626,348.64628l-0.33774,-0.91132" stroke-width="0.5" stroke-linecap="round"/><path d="M114.38739,345.96293v1.01259" stroke-width="0.5" stroke-linecap="round"/><path d="M114.89401,345.25413l0.2533,-1.5695" stroke-width="0.5" stroke-linecap="round"/><path d="M116.07611,343.33022l0.59105,-0.5063" stroke-width="0.5" stroke-linecap="round"/><path d="M117.34264,343.17833l0.9288,0.75943" stroke-width="0.5" stroke-linecap="round"/><path d="M118.94692,344.95035l-0.16887,-0.60755" stroke-width="0.5" stroke-linecap="round"/><path d="M119.1158,346.46923v-0.75944" stroke-width="0.5" stroke-linecap="round"/><path d="M118.69362,347.22866l-0.08443,0.75943" stroke-width="0.5" stroke-linecap="round"/><path d="M118.01814,349.35509l0.50661,-0.60755" stroke-width="0.5" stroke-linecap="round"/><path d="M116.16055,349.96264l1.35097,-0.10126" stroke-width="0.5" stroke-linecap="round"/><path d="M115.40062,349.40571l-0.16887,-0.65817" stroke-width="0.5" stroke-linecap="round"/><path d="M115.23175,347.22866v0.60755" stroke-width="0.5" stroke-linecap="round"/><path d="M115.23175,346.31734l0.16887,-0.81007" stroke-width="0.5" stroke-linecap="round"/><path d="M115.48506,344.95035l1.51985,-0.75943" stroke-width="0.5" stroke-linecap="round"/><path d="M117.34264,344.49469l1.09767,0.96196" stroke-width="0.5" stroke-linecap="round"/><path d="M118.187,345.91231l0.16887,1.06321" stroke-width="0.5" stroke-linecap="round"/><path d="M118.01813,347.58307l-0.16887,0.65817" stroke-width="0.5" stroke-linecap="round"/><path d="M117.59595,348.74754l-0.84436,0.60755" stroke-width="0.5" stroke-linecap="round"/><path d="M115.90724,348.29187v0.70881" stroke-width="0.5" stroke-linecap="round"/><path d="M115.73836,347.22866l0.16887,-0.91133" stroke-width="0.5" stroke-linecap="round"/><path d="M115.90724,345.91231l0.75992,-0.50629l0.84436,1.5695" stroke-width="0.5" stroke-linecap="round"/><path d="M117.51152,347.43118l-0.33774,0.60755" stroke-width="0.5" stroke-linecap="round"/></g><g data-paper-data="{&quot;origPos&quot;:null}" fill="#5f3700" stroke="#3f2400"><path d="M128.02356,337.97853c0,3.26735 -2.23507,5.91607 -4.99217,5.91607c-2.7571,0 -4.99218,-2.64871 -4.99218,-5.91607c0,-3.26735 2.23508,-5.95575 4.99218,-5.95575c2.7571,0 4.99217,2.6884 4.99217,5.95575z" data-paper-data="{&quot;origPos&quot;:null}" stroke-width="1.5" stroke-linecap="butt"/><path d="M126.61551,328.09299v0v0z" stroke-width="1.5" stroke-linecap="butt"/><path d="M170.9787,339.01719c0.04998,1.32419 -0.11521,1.55829 -0.03558,2.88103c0.04675,0.77675 0.08993,1.82767 -0.58622,1.83409c-6.60179,0.06257 2.28829,-0.16973 -13.96811,-0.08469c-33.64748,0.176 -1.22935,0.05991 -33.47334,0.18842c-0.97002,0.00386 1.11014,-0.28181 1.87391,-0.63843c0.85714,-0.40022 1.6623,-0.78704 2.05183,-1.39326c0.27034,-0.42073 1.10177,-2.24524 1.16923,-2.70207c0.07037,-0.47651 -0.06846,-1.93023 -0.06327,-2.40857c0.00381,-0.35011 -0.02712,-0.66435 -0.49759,-1.67135c-0.43896,-0.9396 -1.00906,-1.66217 -2.14402,-2.36449c-0.92995,-0.57544 -2.32465,-0.62441 -2.32465,-0.62441l47.9279,-0.73354c0,0 0.01364,2.21557 0.02517,2.70331c0,0 -0.06601,2.07988 0.04475,5.01396z" data-paper-data="{&quot;origPos&quot;:null}" stroke-width="1.5" stroke-linecap="round"/><path d="M134.18469,334.14749h-3.90528" stroke-width="0.5" stroke-linecap="round"/><path d="M130.95858,338.80537h2.12244" stroke-width="0.5" stroke-linecap="round"/><path d="M138.85403,341.13431h-3.73548" stroke-width="0.5" stroke-linecap="round"/><path d="M140.72178,336.17266h-2.54692" stroke-width="0.5" stroke-linecap="round"/><path d="M142.75931,333.38806h2.63182" stroke-width="0.5" stroke-linecap="round"/><path d="M145.13645,338.40034h-2.12243" stroke-width="0.5" stroke-linecap="round"/><path d="M146.91929,341.99501h-1.61305" stroke-width="0.5" stroke-linecap="round"/><path d="M147.34378,334.04624h2.29223" stroke-width="0.5" stroke-linecap="round"/><path d="M147.00418,336.22329h2.97142" stroke-width="0.5" stroke-linecap="round"/><path d="M152.35272,339.46355h-2.37713" stroke-width="0.5" stroke-linecap="round"/><path d="M155.40902,341.99501h-2.54692" stroke-width="0.5" stroke-linecap="round"/><path d="M156.0882,337.59027h-1.44325" stroke-width="0.5" stroke-linecap="round"/><path d="M155.06943,334.80567h3.90528" stroke-width="0.5" stroke-linecap="round"/><path d="M155.23923,333.03365h5.51833" stroke-width="0.5" stroke-linecap="round"/><path d="M160.92735,338.65348h2.12243" stroke-width="0.5" stroke-linecap="round"/><path d="M164.15346,335.81825h3.31099" stroke-width="0.5" stroke-linecap="round"/><path d="M167.29465,333.69183h2.20734" stroke-width="0.5" stroke-linecap="round"/><path d="M160.67267,341.2862h3.48078" stroke-width="0.5" stroke-linecap="round"/><path d="M156.85227,340.0711h2.20734" stroke-width="0.5" stroke-linecap="round"/><path d="M121.16753,333.94498l-1.44325,1.87327" stroke-width="0.5" stroke-linecap="round"/><path d="M119.12999,337.23587l0.25469,-0.65818" stroke-width="0.5" stroke-linecap="round"/><path d="M119.12998,338.40034l-0.08489,-0.45566" stroke-width="0.5" stroke-linecap="round"/><path d="M119.21488,339.36229l0.0849,0.55692" stroke-width="0.5" stroke-linecap="round"/><path d="M119.72426,341.23557l-0.16979,-0.55692" stroke-width="0.5" stroke-linecap="round"/><path d="M120.48835,341.74186l0.50938,0.3544" stroke-width="0.5" stroke-linecap="round"/><path d="M123.20507,342.55192l0.67917,-0.10125" stroke-width="0.5" stroke-linecap="round"/><path d="M121.59202,342.65318l0.59428,0.15189" stroke-width="0.5" stroke-linecap="round"/><path d="M124.9879,341.74186l-0.25469,0.3544" stroke-width="0.5" stroke-linecap="round"/><path d="M125.92178,340.88116l0.0849,-0.50629" stroke-width="0.5" stroke-linecap="round"/><path d="M126.43117,336.57769l0.16979,0.75944" stroke-width="0.5" stroke-linecap="round"/><path d="M122.1014,333.18554l0.76408,-0.15188" stroke-width="0.5" stroke-linecap="round"/><path d="M123.62955,333.03365l0.76408,0.30377" stroke-width="0.5" stroke-linecap="round"/><path d="M126.26137,335.46385l-1.01877,-1.41761" stroke-width="0.5" stroke-linecap="round"/><path d="M126.60096,338.04594l-0.33958,1.82265" stroke-width="0.5" stroke-linecap="round"/><path d="M123.12017,333.94498l1.10367,0.65817" stroke-width="0.5" stroke-linecap="round"/><path d="M125.58219,336.0714l-0.33959,-0.55692" stroke-width="0.5" stroke-linecap="round"/><path d="M125.58219,336.83083l0.16979,0.8607" stroke-width="0.5" stroke-linecap="round"/><path d="M125.66708,339.2104l0.0849,-0.65818" stroke-width="0.5" stroke-linecap="round"/><path d="M125.2426,339.86858l-0.0849,0.65818" stroke-width="0.5" stroke-linecap="round"/><path d="M124.56342,340.93179l-0.16979,0.45567" stroke-width="0.5" stroke-linecap="round"/><path d="M123.71445,341.6406l-1.52815,0.3544" stroke-width="0.5" stroke-linecap="round"/><path d="M120.14876,340.88116l1.01877,0.70881" stroke-width="0.5" stroke-linecap="round"/><path d="M119.97897,339.26104l0.33958,0.91132" stroke-width="0.5" stroke-linecap="round"/><path d="M120.14876,338.5016v-1.01259" stroke-width="0.5" stroke-linecap="round"/><path d="M120.65814,336.78021l0.25468,-1.56951" stroke-width="0.5" stroke-linecap="round"/><path d="M121.8467,334.8563l0.59428,-0.50629" stroke-width="0.5" stroke-linecap="round"/><path d="M124.05404,335.46384l-0.93388,-0.75943" stroke-width="0.5" stroke-linecap="round"/><path d="M124.56342,335.86888l0.16979,0.60755" stroke-width="0.5" stroke-linecap="round"/><path d="M124.90301,337.99531v-0.75944" stroke-width="0.5" stroke-linecap="round"/><path d="M124.47852,338.75474l-0.0849,0.75943" stroke-width="0.5" stroke-linecap="round"/><path d="M124.30873,340.27362l-0.50939,0.60755" stroke-width="0.5" stroke-linecap="round"/><path d="M123.28996,341.38746l-1.35836,0.10126" stroke-width="0.5" stroke-linecap="round"/><path d="M121.16753,340.93179l-0.16979,-0.65817" stroke-width="0.5" stroke-linecap="round"/><path d="M120.99773,339.36229v-0.60755" stroke-width="0.5" stroke-linecap="round"/><path d="M121.16752,337.03335l-0.16979,0.81007" stroke-width="0.5" stroke-linecap="round"/><path d="M121.25242,336.47643l1.52815,-0.75943" stroke-width="0.5" stroke-linecap="round"/><path d="M124.22384,336.98272l-1.10367,-0.96195" stroke-width="0.5" stroke-linecap="round"/><path d="M124.13893,338.5016l-0.16979,-1.06321" stroke-width="0.5" stroke-linecap="round"/><path d="M123.62955,339.76732l0.1698,-0.65817" stroke-width="0.5" stroke-linecap="round"/><path d="M123.37486,340.27362l-0.84897,0.60755" stroke-width="0.5" stroke-linecap="round"/><path d="M121.67691,340.52676v-0.70881" stroke-width="0.5" stroke-linecap="round"/><path d="M121.67691,337.84341l-0.16979,0.91133" stroke-width="0.5" stroke-linecap="round"/><path d="M121.67691,337.43839l0.76407,-0.50629l0.84898,1.5695" stroke-width="0.5" stroke-linecap="round"/><path d="M123.28996,338.95726l-0.33958,0.60755" stroke-width="0.5" stroke-linecap="round"/></g><g data-paper-data="{&quot;origPos&quot;:null}" fill="#5f3700" stroke="#3f2400"><path d="M122.8071,350.06585c0,3.26735 -2.22292,5.80597 -4.96503,5.80597c-2.74211,0 -4.74485,-2.64871 -4.74485,-5.91607c0,-3.26735 2.00274,-5.84566 4.74485,-5.84566c2.74211,0 4.96503,2.6884 4.96503,5.95575z" data-paper-data="{&quot;origPos&quot;:null}" stroke-width="1.5" stroke-linecap="butt"/><path d="M121.40671,340.56563v0v0z" stroke-width="1.5" stroke-linecap="butt"/><path d="M170.98124,351.38352c0,0 0.26682,2.06007 -0.88647,3.04532c-0.89158,0.76168 -1.28679,1.15782 -2.83853,1.17261c-6.5659,0.06257 -0.0701,0.21357 -16.23811,0.29861c-33.46455,0.176 -1.22267,0.05991 -33.29136,0.18842c-0.96474,0.00386 1.1041,-0.28181 1.86372,-0.63843c0.85248,-0.40022 1.65326,-0.78704 2.04068,-1.39326c0.26887,-0.42073 1.09578,-2.24524 1.16287,-2.70207c0.06998,-0.47651 -0.06808,-1.93023 -0.06292,-2.40857c0.00379,-0.35011 -0.02698,-0.66435 -0.49489,-1.67135c-0.43658,-0.9396 -1.00357,-1.66217 -2.13237,-2.36449c-0.92489,-0.57544 -2.31201,-0.62441 -2.31201,-0.62441l49.74868,-0.65758c0,0 1.53462,0.26526 2.2759,0.76236c0.2471,0.1657 0.88262,1.30667 1.0582,1.54685c0.09553,1.15148 0.05179,1.61205 0.08619,2.5922c-0.09492,0.80474 0.02042,2.8538 0.02042,2.8538z" data-paper-data="{&quot;origPos&quot;:null}" stroke-width="1.5" stroke-linecap="round"/><path d="M125.05068,346.62014h3.88405" stroke-width="0.5" stroke-linecap="round"/><path d="M127.83706,351.27802h-2.1109" stroke-width="0.5" stroke-linecap="round"/><path d="M129.86352,353.60696h3.71517" stroke-width="0.5" stroke-linecap="round"/><path d="M135.43628,348.6453h-2.53307" stroke-width="0.5" stroke-linecap="round"/><path d="M137.46274,345.8607h2.61751" stroke-width="0.5" stroke-linecap="round"/><path d="M137.71605,350.87298h2.1109" stroke-width="0.5" stroke-linecap="round"/><path d="M139.99582,354.46765h1.60428" stroke-width="0.5" stroke-linecap="round"/><path d="M142.02228,346.51888h2.27976" stroke-width="0.5" stroke-linecap="round"/><path d="M141.68453,348.69593h2.95526" stroke-width="0.5" stroke-linecap="round"/><path d="M144.63979,351.93619h2.3642" stroke-width="0.5" stroke-linecap="round"/><path d="M147.5106,354.46765h2.53307" stroke-width="0.5" stroke-linecap="round"/><path d="M149.28376,350.06292h1.43541" stroke-width="0.5" stroke-linecap="round"/><path d="M153.58998,347.27832h-3.88405" stroke-width="0.5" stroke-linecap="round"/><path d="M155.36314,345.5063h-5.48833" stroke-width="0.5" stroke-linecap="round"/><path d="M157.64289,351.12613h-2.11089" stroke-width="0.5" stroke-linecap="round"/><path d="M162.03356,348.2909h-3.29299" stroke-width="0.5" stroke-linecap="round"/><path d="M161.86469,346.16448h2.19534" stroke-width="0.5" stroke-linecap="round"/><path d="M164.56664,349.30348h3.46187" stroke-width="0.5" stroke-linecap="round"/><path d="M162.54018,352.34123h3.79961" stroke-width="0.5" stroke-linecap="round"/><path d="M165.15769,354.87268h-1.26654" stroke-width="0.5" stroke-linecap="round"/><path d="M155.2787,353.75884h3.46186" stroke-width="0.5" stroke-linecap="round"/><path d="M151.47908,352.54374h2.19534" stroke-width="0.5" stroke-linecap="round"/><path d="M115.98834,346.41762l-1.43541,1.87327" stroke-width="0.5" stroke-linecap="round"/><path d="M114.21518,349.05033l-0.25331,0.65818" stroke-width="0.5" stroke-linecap="round"/><path d="M113.87744,350.41732l0.08443,0.45566" stroke-width="0.5" stroke-linecap="round"/><path d="M114.13074,352.39186l-0.08443,-0.55692" stroke-width="0.5" stroke-linecap="round"/><path d="M114.38405,353.15129l0.16887,0.55692" stroke-width="0.5" stroke-linecap="round"/><path d="M115.31285,354.21451l0.50661,0.3544" stroke-width="0.5" stroke-linecap="round"/><path d="M118.0148,355.02457l0.67548,-0.10125" stroke-width="0.5" stroke-linecap="round"/><path d="M116.41052,355.12583l0.59105,0.15189" stroke-width="0.5" stroke-linecap="round"/><path d="M119.53464,354.56891l0.25331,-0.3544" stroke-width="0.5" stroke-linecap="round"/><path d="M120.71674,353.35381l0.08444,-0.50629" stroke-width="0.5" stroke-linecap="round"/><path d="M121.39223,349.80977l-0.16887,-0.75944" stroke-width="0.5" stroke-linecap="round"/><path d="M117.67705,345.5063l-0.75992,0.15188" stroke-width="0.5" stroke-linecap="round"/><path d="M118.43698,345.5063l0.75992,0.30377" stroke-width="0.5" stroke-linecap="round"/><path d="M120.04126,346.51888l1.01323,1.41761" stroke-width="0.5" stroke-linecap="round"/><path d="M121.39223,350.51858l-0.33774,1.82265" stroke-width="0.5" stroke-linecap="round"/><path d="M119.02803,347.07579l-1.09767,-0.65817" stroke-width="0.5" stroke-linecap="round"/><path d="M120.04126,347.98712l0.33774,0.55692" stroke-width="0.5" stroke-linecap="round"/><path d="M120.379,349.30348l0.16887,0.8607" stroke-width="0.5" stroke-linecap="round"/><path d="M120.46343,351.68305l0.08444,-0.65818" stroke-width="0.5" stroke-linecap="round"/><path d="M120.04126,352.34123l-0.08444,0.65818" stroke-width="0.5" stroke-linecap="round"/><path d="M119.36577,353.40444l-0.16887,0.45567" stroke-width="0.5" stroke-linecap="round"/><path d="M118.52141,354.11325l-1.51984,0.3544" stroke-width="0.5" stroke-linecap="round"/><path d="M114.97511,353.35381l1.01323,0.70881" stroke-width="0.5" stroke-linecap="round"/><path d="M115.14398,352.645l-0.33774,-0.91132" stroke-width="0.5" stroke-linecap="round"/><path d="M114.97511,349.96165v1.01259" stroke-width="0.5" stroke-linecap="round"/><path d="M115.73502,347.68334l-0.2533,1.56951" stroke-width="0.5" stroke-linecap="round"/><path d="M117.25487,346.82266l-0.59105,0.50629" stroke-width="0.5" stroke-linecap="round"/><path d="M117.93036,347.17706l0.9288,0.75943" stroke-width="0.5" stroke-linecap="round"/><path d="M119.36577,348.34153l0.16887,0.60755" stroke-width="0.5" stroke-linecap="round"/><path d="M119.70351,349.70851v0.75944" stroke-width="0.5" stroke-linecap="round"/><path d="M119.28133,351.22739l-0.08443,0.75943" stroke-width="0.5" stroke-linecap="round"/><path d="M119.11246,352.74626l-0.50662,0.60755" stroke-width="0.5" stroke-linecap="round"/><path d="M118.09923,353.8601l-1.35097,0.10126" stroke-width="0.5" stroke-linecap="round"/><path d="M115.98834,353.40444l-0.16887,-0.65817" stroke-width="0.5" stroke-linecap="round"/><path d="M115.81946,351.83494v-0.60755" stroke-width="0.5" stroke-linecap="round"/><path d="M115.81946,350.31606l0.16887,-0.81007" stroke-width="0.5" stroke-linecap="round"/><path d="M116.07277,348.94908l1.51985,-0.75943" stroke-width="0.5" stroke-linecap="round"/><path d="M117.93036,348.49341l1.09767,0.96195" stroke-width="0.5" stroke-linecap="round"/><path d="M118.77472,349.91103l0.16887,1.06321" stroke-width="0.5" stroke-linecap="round"/><path d="M118.60585,351.58179l-0.16887,0.65817" stroke-width="0.5" stroke-linecap="round"/><path d="M118.18367,352.74626l-0.84436,0.60755" stroke-width="0.5" stroke-linecap="round"/><path d="M116.49495,352.2906v0.70881" stroke-width="0.5" stroke-linecap="round"/><path d="M116.32608,351.22739l0.16887,-0.91133" stroke-width="0.5" stroke-linecap="round"/><path d="M116.49495,349.91103l0.75992,-0.50629l0.84436,1.5695" stroke-width="0.5" stroke-linecap="round"/><path d="M118.09923,351.4299l-0.33774,0.60755" stroke-width="0.5" stroke-linecap="round"/></g><path d="M113.27393,355.61597v-40.06647h57.79173c0,0 0,11.41864 0,15.1123c0,1.23122 0,1.92363 0,3.15485c0,5.48872 0,8.57544 0,14.06416c0,3.01875 0,7.73516 0,7.73516z" data-paper-data="{&quot;origPos&quot;:null}" fill="none" stroke="#372200" stroke-width="1.5" stroke-linecap="butt"/></g><g data-paper-data="{&quot;origPos&quot;:null}" fill="none" stroke="#000000"><path d="M394.53294,263.60246v-36.95293h52.07673v36.95293z" data-paper-data="{&quot;origPos&quot;:null}" stroke-width="2.5" stroke-linecap="butt"/><path d="M412.09483,226.96765v36.42123" data-paper-data="{&quot;origPos&quot;:null}" stroke-width="1.5" stroke-linecap="round"/><path d="M395.35547,245.02073h51.34736" data-paper-data="{&quot;origPos&quot;:null}" stroke-width="1.5" stroke-linecap="round"/><path d="M429.53676,263.65291v-36.42123" data-paper-data="{&quot;origPos&quot;:null}" stroke-width="1.5" stroke-linecap="round"/></g><path d="M366.88961,164.42474v-36.96156h59.24726v36.96156z" data-paper-data="{&quot;origPos&quot;:null}" fill="#fff4d8" stroke="#ffdeb4" stroke-width="3" stroke-linecap="butt"/><path d="M0.65145,0.84926v240.20843" data-paper-data="{&quot;origPos&quot;:null}" fill="none" stroke="#a76000" stroke-width="5" stroke-linecap="round"/><path d="M12.49201,166.0734v-35.81979h43.75923v35.08124" data-paper-data="{&quot;origPos&quot;:null}" fill="none" stroke="#794500" stroke-width="3" stroke-linecap="round"/><g data-paper-data="{&quot;origPos&quot;:null}" stroke-linecap="butt"><path d="M330.9025,355.39174v-79.90398h94.30727v79.90398z" data-paper-data="{&quot;origPos&quot;:null}" fill="#955800" stroke="#794500" stroke-width="3"/><path d="M333.56615,352.51182v-75.37206h29.28469v75.37206z" data-paper-data="{&quot;origPos&quot;:null}" fill="#955800" stroke="#794500" stroke-width="3"/><path d="M365.69049,352.95109v-75.37206h29.28468v75.37206z" data-paper-data="{&quot;origPos&quot;:null}" fill="#955800" stroke="#794500" stroke-width="3"/><path d="M397.81483,353.15032v-13.20211h25.44407v13.20211z" data-paper-data="{&quot;origPos&quot;:null}" fill="#955800" stroke="#794500" stroke-width="3"/><path d="M397.29395,337.74706v-13.20211h25.44407v13.20211z" data-paper-data="{&quot;origPos&quot;:null}" fill="#955800" stroke="#794500" stroke-width="3"/><path d="M397.25314,321.86371v-13.20211h25.44407v13.20211z" data-paper-data="{&quot;origPos&quot;:null}" fill="#955800" stroke="#794500" stroke-width="3"/><path d="M397.25314,305.78114v-13.20211h25.44407v13.20211z" data-paper-data="{&quot;origPos&quot;:null}" fill="#955800" stroke="#794500" stroke-width="3"/><path d="M397.45237,289.65776v-13.20211h25.44407v13.20211z" data-paper-data="{&quot;origPos&quot;:null}" fill="#955800" stroke="#794500" stroke-width="3"/><path d="M354.68953,302.50686c0,-1.39198 1.12842,-2.5204 2.5204,-2.5204c1.39198,0 2.5204,1.12842 2.5204,2.5204c0,1.39198 -1.12842,2.5204 -2.5204,2.5204c-1.39198,0 -2.5204,-1.12842 -2.5204,-2.5204z" data-paper-data="{&quot;origPos&quot;:null}" fill="#704200" stroke="none" stroke-width="NaN"/><path d="M368.57095,302.94613c0,-1.39198 1.12842,-2.5204 2.5204,-2.5204c1.39198,0 2.5204,1.12842 2.5204,2.5204c0,1.39198 -1.12842,2.5204 -2.5204,2.5204c-1.39198,0 -2.5204,-1.12842 -2.5204,-2.5204z" data-paper-data="{&quot;origPos&quot;:null}" fill="#704200" stroke="none" stroke-width="NaN"/><path d="M408.8566,343.71185c0,-1.12684 0.91348,-2.04033 2.04032,-2.04033c1.12684,0 2.04033,0.91349 2.04033,2.04033c0,1.12684 -0.91349,2.04033 -2.04033,2.04033c-1.12684,0 -2.04032,-0.91349 -2.04032,-2.04033z" data-paper-data="{&quot;origPos&quot;:null}" fill="#704200" stroke="none" stroke-width="NaN"/><path d="M407.85564,328.78866c0,-1.12684 0.91348,-2.04033 2.04032,-2.04033c1.12684,0 2.04033,0.91349 2.04033,2.04033c0,1.12684 -0.91349,2.04032 -2.04033,2.04032c-1.12684,0 -2.04032,-0.91348 -2.04032,-2.04032z" data-paper-data="{&quot;origPos&quot;:null}" fill="#704200" stroke="none" stroke-width="NaN"/><path d="M408.05487,312.90532c0,-1.12684 0.91348,-2.04033 2.04032,-2.04033c1.12684,0 2.04033,0.91349 2.04033,2.04033c0,1.12684 -0.91349,2.04032 -2.04033,2.04032c-1.12684,0 -2.04032,-0.91348 -2.04032,-2.04032z" data-paper-data="{&quot;origPos&quot;:null}" fill="#704200" stroke="none" stroke-width="NaN"/><path d="M407.77402,296.78194c0,-1.12684 0.91348,-2.04033 2.04032,-2.04033c1.12684,0 2.04033,0.91349 2.04033,2.04033c0,1.12684 -0.91349,2.04032 -2.04033,2.04032c-1.12684,0 -2.04032,-0.91348 -2.04032,-2.04032z" data-paper-data="{&quot;origPos&quot;:null}" fill="#704200" stroke="none" stroke-width="NaN"/><path d="M407.97325,280.41852c0,-1.12684 0.91348,-2.04033 2.04032,-2.04033c1.12684,0 2.04033,0.91349 2.04033,2.04033c0,1.12684 -0.91349,2.04032 -2.04033,2.04032c-1.12684,0 -2.04032,-0.91348 -2.04032,-2.04032z" data-paper-data="{&quot;origPos&quot;:null}" fill="#704200" stroke="none" stroke-width="NaN"/></g><g data-paper-data="{&quot;origPos&quot;:null}"><g data-paper-data="{&quot;origPos&quot;:null}" fill="none" stroke="#000000" stroke-width="2.5" stroke-linecap="round"><path d="M512.32051,272.39924v-2.27387" data-paper-data="{&quot;origPos&quot;:null}"/><path d="M500.24623,269.92578v2.27388" data-paper-data="{&quot;origPos&quot;:null}"/></g><g data-paper-data="{&quot;origPos&quot;:null}" fill="none" stroke="#000000" stroke-width="2.5" stroke-linecap="round"><path d="M471.62318,269.97884v2.27388" data-paper-data="{&quot;origPos&quot;:null}"/><path d="M459.5489,269.77924v2.27387" data-paper-data="{&quot;origPos&quot;:null}"/></g><g data-paper-data="{&quot;origPos&quot;:null}" fill="none" stroke="#000000" stroke-width="2.5" stroke-linecap="round"><path d="M449.69544,269.77924v2.27387" data-paper-data="{&quot;origPos&quot;:null}"/><path d="M437.62116,269.57965v2.27387" data-paper-data="{&quot;origPos&quot;:null}"/></g><g data-paper-data="{&quot;origPos&quot;:null}" fill="none" stroke="#000000" stroke-width="2.5" stroke-linecap="round"><path d="M491.5297,269.92578v2.27388" data-paper-data="{&quot;origPos&quot;:null}"/><path d="M479.45542,272.00006v-2.27388" data-paper-data="{&quot;origPos&quot;:null}"/></g><path d="M433.11424,357.21924v-83.60927h83.60928v83.60927z" data-paper-data="{&quot;origPos&quot;:null}" fill="#999999" stroke="#7b7b7b" stroke-width="3" stroke-linecap="butt"/><path d="M508.24869,293.33147h-69.48832" data-paper-data="{&quot;origPos&quot;:null}" fill="none" stroke="#7b7b7b" stroke-width="4" stroke-linecap="round"/><path d="M438.98094,349.16761v-48.14401h69.63438v48.14401z" data-paper-data="{&quot;origPos&quot;:null}" fill="#b9b9b8" stroke="#7b7b7b" stroke-width="3" stroke-linecap="butt"/><g data-paper-data="{&quot;origPos&quot;:null}" fill="#7a7a7a" stroke="#7b7b7b" stroke-width="3.5" stroke-linecap="butt"><path d="M443.05378,283.0917c0,-1.11752 0.90592,-2.02344 2.02344,-2.02344c1.11752,0 2.02344,0.90592 2.02344,2.02344c0,1.11752 -0.90593,2.02344 -2.02344,2.02344c-1.11752,0 -2.02344,-0.90593 -2.02344,-2.02344z" data-paper-data="{&quot;origPos&quot;:null}"/><path d="M456.42665,283.06797c0,-1.11752 0.90592,-2.02344 2.02344,-2.02344c1.11752,0 2.02344,0.90592 2.02344,2.02344c0,1.11752 -0.90593,2.02345 -2.02344,2.02345c-1.11752,0 -2.02344,-0.90593 -2.02344,-2.02345z" data-paper-data="{&quot;origPos&quot;:null}"/><path d="M487.94075,283.74199c0,-1.11752 0.90592,-2.02344 2.02344,-2.02344c1.11752,0 2.02345,0.90592 2.02345,2.02344c0,1.11752 -0.90593,2.02345 -2.02345,2.02345c-1.11752,0 -2.02344,-0.90593 -2.02344,-2.02345z" data-paper-data="{&quot;origPos&quot;:null}"/><path d="M500.61588,283.71826c0,-1.11752 0.90592,-2.02344 2.02344,-2.02344c1.11752,0 2.02344,0.90592 2.02344,2.02344c0,1.11752 -0.90593,2.02345 -2.02344,2.02345c-1.11752,0 -2.02344,-0.90593 -2.02344,-2.02345z" data-paper-data="{&quot;origPos&quot;:null}"/></g><g data-paper-data="{&quot;origPos&quot;:null}" fill="none" stroke-width="1" stroke-linecap="round"><path d="M451.64339,266.43048c0,0 -0.83799,1.74772 -1.86032,1.89024c-3.06697,0.42758 -8.24912,-0.20644 -12.4234,-0.50226c-0.68676,-0.04867 -1.75973,-1.26165 -1.75973,-1.26165" data-paper-data="{&quot;origPos&quot;:null}" stroke="#000000"/><path d="M435.34728,266.43048l-5.81101,-3.78979" data-paper-data="{&quot;origPos&quot;:null}" stroke="#838383"/></g><g data-paper-data="{&quot;origPos&quot;:null,&quot;index&quot;:null}" fill="none" stroke-width="1" stroke-linecap="round"><path d="M513.23763,266.7564c0,0 -0.18869,1.59195 -0.87544,1.64063c-4.17428,0.29582 -9.23011,0.29821 -12.29708,-0.12937c-1.02233,-0.14252 -0.97604,-1.51126 -0.97604,-1.51126" data-paper-data="{&quot;origPos&quot;:null}" stroke="#000000"/><path d="M513.36395,266.50375l5.93735,-1.51592" data-paper-data="{&quot;origPos&quot;:null}" stroke="#838383"/></g><path d="M473.32707,256.32437c0,0 0.18841,4.5984 -0.06465,8.08019c-0.14247,1.96027 0.58006,3.62276 -1.38207,3.73694c-5.14634,0.29947 -9.10759,-0.29365 -13.20843,-0.16669c-1.32004,0.04087 -1.06058,-0.79691 -1.09967,-2.11701c-0.11014,-3.71871 -0.16231,-9.65976 -0.16231,-9.65976" data-paper-data="{&quot;origPos&quot;:null}" fill="none" stroke="#000000" stroke-width="1" stroke-linecap="round"/><path d="M492.47564,262.08234c0,0 1.07269,0.42962 0.81963,3.91141c-0.14248,1.96026 0.58005,2.23317 -1.38208,2.34735c-5.14634,0.29947 -8.85493,-0.41997 -12.95577,-0.29301c-1.32004,0.04087 -1.06058,-0.79692 -1.09967,-2.11702c-0.11014,-3.71871 0.46932,-4.22772 0.46932,-4.22772" data-paper-data="{&quot;origPos&quot;:null}" fill="none" stroke="#000000" stroke-width="1" stroke-linecap="round"/></g><path d="M638.41982,359.75826v-358.8525" data-paper-data="{&quot;origPos&quot;:null}" fill="none" stroke="#a76000" stroke-width="5" stroke-linecap="round"/><path d="M-1.37893,1.10884h638.18686" data-paper-data="{&quot;origPos&quot;:null}" fill="none" stroke="#a76000" stroke-width="5" stroke-linecap="round"/><path d="M-1.32244,359.2162h638.18686" data-paper-data="{&quot;origPos&quot;:null}" fill="none" stroke="#a76000" stroke-width="5" stroke-linecap="round"/><g data-paper-data="{&quot;origPos&quot;:null}" fill="none" stroke="#000000"><path d="M222.50893,94.12686v-36.54861h36.54862v36.54861z" stroke-width="2.5" stroke-linecap="butt"/><path d="M240.65177,93.60099v-36.02274" data-paper-data="{&quot;origPos&quot;:null}" stroke-width="1.5" stroke-linecap="round"/><path d="M223.03481,75.72109h36.28568" stroke-width="1.5" stroke-linecap="round"/></g><path d="M1.94379,167.78304h551.29545" data-paper-data="{&quot;origPos&quot;:null}" fill="none" stroke="#a76000" stroke-width="5" stroke-linecap="round"/><path d="M277.51649,240.51563v-72.74011" data-paper-data="{&quot;origPos&quot;:null}" fill="none" stroke="#a76000" stroke-width="5" stroke-linecap="round"/><path d="M326.15015,48.42523v0v-44.49152" data-paper-data="{&quot;origPos&quot;:null}" fill="none" stroke="#a76000" stroke-width="5" stroke-linecap="round"/><path d="M0.82798,360.57212v-116.52543" data-paper-data="{&quot;origPos&quot;:null}" fill="none" stroke="#6a3c00" stroke-width="5" stroke-linecap="round"/><path d="M277.72064,241.27834v116.52542" data-paper-data="{&quot;origPos&quot;:null}" fill="none" stroke="#6a3c00" stroke-width="5" stroke-linecap="round"/><path d="M325.95455,48.53823v116.52542" data-paper-data="{&quot;origPos&quot;:null}" fill="none" stroke="#6a3c00" stroke-width="5" stroke-linecap="round"/><path d="M556.65618,357.28265v-36.01108h77.56233v35.5494" data-paper-data="{&quot;origPos&quot;:null}" fill="#945700" stroke="#b06400" stroke-width="5" stroke-linecap="round"/><path d="M556.57769,319.80805v-36.01109h77.56233v35.5494" data-paper-data="{&quot;origPos&quot;:null}" fill="#814b00" stroke="#9d5900" stroke-width="5" stroke-linecap="round"/><g data-paper-data="{&quot;origPos&quot;:null}" fill="#3f2500" stroke="#3f2400"><g data-paper-data="{&quot;origPos&quot;:null}" stroke-width="5" stroke-linecap="round"><path d="M68.49353,104.31311v42.61956" data-paper-data="{&quot;origPos&quot;:null}"/><path d="M174.83576,104.31311h-105.84982" data-paper-data="{&quot;origPos&quot;:null}"/><path d="M174.83576,104.31311v43.38748" data-paper-data="{&quot;origPos&quot;:null}"/></g><path d="M69.37869,149.20201v-43.32324h105.1007v43.32324z" data-paper-data="{&quot;origPos&quot;:null}" stroke-width="0" stroke-linecap="butt"/></g><path d="M556.49921,281.87174v-36.01108h77.56233v35.5494" data-paper-data="{&quot;origPos&quot;:null}" fill="#724200" stroke="#915200" stroke-width="5" stroke-linecap="round"/><path d="M556.42072,244.39715v-36.01108h77.56233v35.5494" data-paper-data="{&quot;origPos&quot;:null}" fill="#724200" stroke="#8c4f00" stroke-width="5" stroke-linecap="round"/><path d="M556.34224,206.46085v-36.01109h77.56233v35.5494" data-paper-data="{&quot;origPos&quot;:null}" fill="#704100" stroke="#824a00" stroke-width="5" stroke-linecap="round"/><g data-paper-data="{&quot;origPos&quot;:null}" fill="none" stroke="#000000"><path d="M58.59133,263.41588v-36.54862h36.54862v36.54862z" stroke-width="2.5" stroke-linecap="butt"/><path d="M76.73416,226.86726v36.02274" data-paper-data="{&quot;origPos&quot;:null}" stroke-width="1.5" stroke-linecap="round"/><path d="M59.11721,245.0101h36.28568" stroke-width="1.5" stroke-linecap="round"/></g><g data-paper-data="{&quot;origPos&quot;:null}" fill="none" stroke="#653900" stroke-width="3" stroke-linecap="round"><path d="M305.62457,358.538v-50.06859" data-paper-data="{&quot;origPos&quot;:null}"/><path d="M383.05413,307.29657v50.06859" data-paper-data="{&quot;origPos&quot;:null}"/><path d="M305.40667,306.83942h77.1605" data-paper-data="{&quot;origPos&quot;:null,&quot;origRot&quot;:0}"/></g><path d="M67.37175,146.65813v-17.14928h110.63836v17.14928z" data-paper-data="{&quot;origPos&quot;:null}" fill="#f1f1f1" stroke="none" stroke-width="0" stroke-linecap="butt"/><path d="M65.66661,129.23008v36.53444" data-paper-data="{&quot;origPos&quot;:null}" fill="none" stroke="#5c3900" stroke-width="5" stroke-linecap="round"/><path d="M65.66661,148.01922h111.1691" data-paper-data="{&quot;origPos&quot;:null}" fill="none" stroke="#5c3900" stroke-width="5" stroke-linecap="round"/><path d="M178.40148,130.27391v35.4906" data-paper-data="{&quot;origPos&quot;:null}" fill="none" stroke="#5c3900" stroke-width="5" stroke-linecap="round"/><g stroke-width="0.5"><path d="M22.4291,122.53167c0,0 -1.33201,-0.51062 -1.98179,-1.18366c-0.64692,-0.67008 -1.98553,-2.33204 -1.05419,-2.32081c0.76036,0.00916 1.13997,-0.03479 1.87814,0.14778c0.54691,0.13527 -0.13647,-1.66872 0.4096,-1.5301c0.04409,0.01119 1.05559,1.0979 2.1198,1.60894c0.32135,0.15431 1.20646,-2.87709 1.5376,-2.74512c0.27134,0.10814 1.38815,2.12503 1.70628,2.33733c0.33129,0.22107 1.16359,-2.62719 1.46686,-2.36902c0.69246,0.58947 1.3154,1.99249 1.62986,2.84578c0.12885,0.34963 1.17844,-0.80049 2.96214,-1.977c0.82699,-0.54546 0.48618,1.52793 0.17112,2.46717c-0.39602,1.18057 -2.27249,2.66618 -2.27249,2.66618" data-paper-data="{&quot;origPos&quot;:null,&quot;origRot&quot;:0}" fill="#ffffff" stroke="#dedede" stroke-linecap="round"/><path d="M20.67359,128.61766v-5.88327h12.31201v5.88327z" data-paper-data="{&quot;origPos&quot;:null}" fill="#00e5be" stroke="#00d5ad" stroke-linecap="butt"/></g><g><path d="M42.55173,128.38604c0,0 -0.51842,-3.70024 0.37503,-3.65648c1.42528,0.06982 7.14323,-0.16009 11.71948,0c1.4648,0.05124 0.65629,3.65648 0.65629,3.65648z" data-paper-data="{&quot;origPos&quot;:null}" fill="#000000" stroke="#000000" stroke-width="1" stroke-linecap="butt"/><path d="M45.07602,125.60947v0.80215" data-paper-data="{&quot;origPos&quot;:null}" fill="none" stroke="#c62b2b" stroke-width="0.5" stroke-linecap="round"/><path d="M44.71113,125.27385h-0.80215" data-paper-data="{&quot;origPos&quot;:null,&quot;origRot&quot;:0}" fill="none" stroke="#323232" stroke-width="0.5" stroke-linecap="round"/><path d="M43.54907,125.6045v0.80215" data-paper-data="{&quot;origPos&quot;:null}" fill="none" stroke="#323232" stroke-width="0.5" stroke-linecap="round"/><path d="M44.71113,126.76657h-0.80215" data-paper-data="{&quot;origPos&quot;:null,&quot;origRot&quot;:0}" fill="none" stroke="#323232" stroke-width="0.5" stroke-linecap="round"/><path d="M45.0999,127.88186v-0.80215" data-paper-data="{&quot;origPos&quot;:null,&quot;origRot&quot;:0}" fill="none" stroke="#c62b2b" stroke-width="0.5" stroke-linecap="round"/><path d="M43.54517,127.9406v-0.80215" data-paper-data="{&quot;origPos&quot;:null,&quot;origRot&quot;:0}" fill="none" stroke="#323232" stroke-width="0.5" stroke-linecap="round"/><path d="M43.95915,128.25373h0.80215" data-paper-data="{&quot;origPos&quot;:null,&quot;origRot&quot;:0}" fill="none" stroke="#323232" stroke-width="0.5" stroke-linecap="round"/><path d="M47.87125,125.643v0.80215" data-paper-data="{&quot;origPos&quot;:null}" fill="none" stroke="#c62b2b" stroke-width="0.5" stroke-linecap="round"/><path d="M47.4674,125.30738h-0.80216" data-paper-data="{&quot;origPos&quot;:null,&quot;origRot&quot;:0}" fill="none" stroke="#c62b2b" stroke-width="0.5" stroke-linecap="round"/><path d="M46.30533,125.63803v0.80215" data-paper-data="{&quot;origPos&quot;:null}" fill="none" stroke="#323232" stroke-width="0.5" stroke-linecap="round"/><path d="M47.50636,126.8001h-0.80215" data-paper-data="{&quot;origPos&quot;:null,&quot;origRot&quot;:0}" fill="none" stroke="#c62b2b" stroke-width="0.5" stroke-linecap="round"/><path d="M47.89513,127.91539v-0.80215" data-paper-data="{&quot;origPos&quot;:null,&quot;origRot&quot;:0}" fill="none" stroke="#323232" stroke-width="0.5" stroke-linecap="round"/><path d="M46.30144,127.97413v-0.80215" data-paper-data="{&quot;origPos&quot;:null,&quot;origRot&quot;:0}" fill="none" stroke="#c62b2b" stroke-width="0.5" stroke-linecap="round"/><path d="M46.75438,128.28726h0.80215" data-paper-data="{&quot;origPos&quot;:null,&quot;origRot&quot;:0}" fill="none" stroke="#c62b2b" stroke-width="0.5" stroke-linecap="round"/><path d="M51.58551,125.71549v0.80215" data-paper-data="{&quot;origPos&quot;:null}" fill="none" stroke="#c62b2b" stroke-width="0.5" stroke-linecap="round"/><path d="M51.22062,125.37987h-0.80215" data-paper-data="{&quot;origPos&quot;:null,&quot;origRot&quot;:0}" fill="none" stroke="#c62b2b" stroke-width="0.5" stroke-linecap="round"/><path d="M50.05856,125.67156v0.80215" data-paper-data="{&quot;origPos&quot;:null}" fill="none" stroke="#c62b2b" stroke-width="0.5" stroke-linecap="round"/><path d="M51.22062,126.83363h-0.80215" data-paper-data="{&quot;origPos&quot;:null,&quot;origRot&quot;:0}" fill="none" stroke="#343434" stroke-width="0.5" stroke-linecap="round"/><path d="M51.60939,127.94892v-0.80215" data-paper-data="{&quot;origPos&quot;:null,&quot;origRot&quot;:0}" fill="none" stroke="#c62b2b" stroke-width="0.5" stroke-linecap="round"/><path d="M50.05466,128.00766v-0.80215" data-paper-data="{&quot;origPos&quot;:null,&quot;origRot&quot;:0}" fill="none" stroke="#c62b2b" stroke-width="0.5" stroke-linecap="round"/><path d="M50.46864,128.32079h0.80215" data-paper-data="{&quot;origPos&quot;:null,&quot;origRot&quot;:0}" fill="none" stroke="#c62b2b" stroke-width="0.5" stroke-linecap="round"/><path d="M54.26615,125.67339v0.80215" data-paper-data="{&quot;origPos&quot;:null}" fill="none" stroke="#c62b2b" stroke-width="0.5" stroke-linecap="round"/><path d="M53.90126,125.33777h-0.80215" data-paper-data="{&quot;origPos&quot;:null,&quot;origRot&quot;:0}" fill="none" stroke="#c62b2b" stroke-width="0.5" stroke-linecap="round"/><path d="M52.73919,125.66842v0.80215" data-paper-data="{&quot;origPos&quot;:null}" fill="none" stroke="#c62b2b" stroke-width="0.5" stroke-linecap="round"/><path d="M53.90126,126.83049h-0.80215" data-paper-data="{&quot;origPos&quot;:null,&quot;origRot&quot;:0}" fill="none" stroke="#343434" stroke-width="0.5" stroke-linecap="round"/><path d="M54.29003,127.94578v-0.80215" data-paper-data="{&quot;origPos&quot;:null,&quot;origRot&quot;:0}" fill="none" stroke="#c62b2b" stroke-width="0.5" stroke-linecap="round"/><path d="M52.7353,128.00452v-0.80215" data-paper-data="{&quot;origPos&quot;:null,&quot;origRot&quot;:0}" fill="none" stroke="#c62b2b" stroke-width="0.5" stroke-linecap="round"/><path d="M53.14928,128.31765h0.80215" data-paper-data="{&quot;origPos&quot;:null,&quot;origRot&quot;:0}" fill="none" stroke="#c62b2b" stroke-width="0.5" stroke-linecap="round"/><path d="M48.5795,125.91926c0,-0.18725 0.1518,-0.33905 0.33906,-0.33905c0.18726,0 0.33905,0.1518 0.33905,0.33905c0,0.18725 -0.1518,0.33905 -0.33905,0.33905c-0.18726,0 -0.33906,-0.1518 -0.33906,-0.33905z" data-paper-data="{&quot;origPos&quot;:null}" fill="#c72c2c" stroke="none" stroke-width="0" stroke-linecap="butt"/><path d="M48.60328,127.61646c0,-0.18725 0.1518,-0.33905 0.33906,-0.33905c0.18726,0 0.33906,0.1518 0.33906,0.33905c0,0.18725 -0.1518,0.33906 -0.33906,0.33906c-0.18726,0 -0.33906,-0.1518 -0.33906,-0.33906z" data-paper-data="{&quot;origPos&quot;:null}" fill="#c72c2c" stroke="none" stroke-width="0" stroke-linecap="butt"/></g><g data-paper-data="{&quot;origPos&quot;:null}" stroke-linecap="butt"><path d="M187.4312,167.57823v-86.55095h94.30727v86.55095z" data-paper-data="{&quot;origPos&quot;:null}" fill="#955800" stroke="#794500" stroke-width="3"/><path d="M188.87786,164.83326v-20.95929h90.7251v20.95929z" data-paper-data="{&quot;origPos&quot;:null}" fill="#955800" stroke="#794500" stroke-width="3"/><path d="M189.37903,140.77387v-17.15418h89.84688v17.15418z" data-paper-data="{&quot;origPos&quot;:null}" fill="#955800" stroke="#794500" stroke-width="3"/><path d="M189.96451,120.5401v-18.10546h89.2614v18.10546z" data-paper-data="{&quot;origPos&quot;:null}" fill="#955800" stroke="#794500" stroke-width="3"/><path d="M190.16374,99.58745v-17.78838h88.96866v17.78838z" data-paper-data="{&quot;origPos&quot;:null}" fill="#955800" stroke="#794500" stroke-width="3"/><path d="M232.12104,154.25581c0,-1.12684 0.91348,-2.04033 2.04032,-2.04033c1.12684,0 2.04033,0.91349 2.04033,2.04033c0,1.12684 -0.91349,2.04033 -2.04033,2.04033c-1.12684,0 -2.04032,-0.91349 -2.04032,-2.04033z" data-paper-data="{&quot;origPos&quot;:null}" fill="#704200" stroke="none" stroke-width="NaN"/><path d="M232.27406,132.51082c0,-1.12684 0.91348,-2.04033 2.04032,-2.04033c1.12684,0 2.04033,0.91349 2.04033,2.04033c0,1.12684 -0.91349,2.04032 -2.04033,2.04032c-1.12684,0 -2.04032,-0.91348 -2.04032,-2.04032z" data-paper-data="{&quot;origPos&quot;:null}" fill="#704200" stroke="none" stroke-width="NaN"/><path d="M232.10132,112.41534c0,-1.12684 0.91348,-2.04033 2.04032,-2.04033c1.12684,0 2.04033,0.91349 2.04033,2.04033c0,1.12684 -0.91349,2.04032 -2.04033,2.04032c-1.12684,0 -2.04032,-0.91348 -2.04032,-2.04032z" data-paper-data="{&quot;origPos&quot;:null}" fill="#704200" stroke="none" stroke-width="NaN"/><path d="M231.71507,91.13847c0,-1.12684 0.91348,-2.04033 2.04032,-2.04033c1.12684,0 2.04033,0.91349 2.04033,2.04033c0,1.12684 -0.91349,2.04032 -2.04033,2.04032c-1.12684,0 -2.04032,-0.91348 -2.04032,-2.04032z" data-paper-data="{&quot;origPos&quot;:null}" fill="#704200" stroke="none" stroke-width="NaN"/></g><text transform="translate(378.6337,151.48111) scale(0.49071,0.49071)" font-size="40" xml:space="preserve" data-paper-data="{&quot;origPos&quot;:null}" fill="#000000" fill-rule="nonzero" stroke="none" stroke-width="1" stroke-linecap="butt" stroke-linejoin="miter" stroke-miterlimit="10" stroke-dasharray="" stroke-dashoffset="0" font-family="Handwriting" font-weight="normal" text-anchor="start" style="mix-blend-mode: normal"><tspan x="0" dy="0">Toys</tspan></text><path d="M379.59552,125.96845v-7.40118h7.56857v7.40118z" data-paper-data="{&quot;origPos&quot;:null}" fill="#fff4d8" stroke="#ff2200" stroke-width="1" stroke-linecap="butt"/><path d="M389.77491,125.78906v-7.40118h7.56857v7.40118z" data-paper-data="{&quot;origPos&quot;:null}" fill="#fff4d8" stroke="#05b500" stroke-width="1" stroke-linecap="butt"/><path d="M384.66879,117.77744v-7.40118h7.56857v7.40118z" data-paper-data="{&quot;origPos&quot;:null}" fill="#fff4d8" stroke="#003aff" stroke-width="1" stroke-linecap="butt"/><text transform="translate(381.08766,124.85111) scale(0.16823,0.16823)" font-size="40" xml:space="preserve" data-paper-data="{&quot;origPos&quot;:null}" fill="#000000" fill-rule="nonzero" stroke="none" stroke-width="1" stroke-linecap="butt" stroke-linejoin="miter" stroke-miterlimit="10" stroke-dasharray="" stroke-dashoffset="0" font-family="Handwriting" font-weight="normal" text-anchor="start" style="mix-blend-mode: normal"><tspan x="0" dy="0">9</tspan></text><text transform="translate(386.05352,116.36776) scale(0.16823,0.16823)" font-size="40" xml:space="preserve" data-paper-data="{&quot;origPos&quot;:null}" fill="#000000" fill-rule="nonzero" stroke="none" stroke-width="1" stroke-linecap="butt" stroke-linejoin="miter" stroke-miterlimit="10" stroke-dasharray="" stroke-dashoffset="0" font-family="Handwriting" font-weight="normal" text-anchor="start" style="mix-blend-mode: normal"><tspan x="0" dy="0">C</tspan></text><text transform="translate(391.22629,124.54074) scale(0.17719,0.17719)" font-size="40" xml:space="preserve" data-paper-data="{&quot;origPos&quot;:null}" fill="#000000" fill-rule="nonzero" stroke="none" stroke-width="1" stroke-linecap="butt" stroke-linejoin="miter" stroke-miterlimit="10" stroke-dasharray="" stroke-dashoffset="0" font-family="Handwriting" font-weight="normal" text-anchor="start" style="mix-blend-mode: normal"><tspan x="0" dy="0">6</tspan></text><g data-paper-data="{&quot;origPos&quot;:null}" stroke-width="1.5"><path d="M17.83992,357.43935v-23.85337h2.99823v23.85337z" data-paper-data="{&quot;origPos&quot;:null}" fill="#975800" stroke="#7b4c00" stroke-linecap="butt"/><path d="M65.84586,357.04529v-25.52912h2.99823v25.52912z" data-paper-data="{&quot;origPos&quot;:null}" fill="#975800" stroke="#7b4c00" stroke-linecap="butt"/><g data-paper-data="{&quot;origPos&quot;:null}" fill="#00b7d8" stroke="#0097b6"><path d="M17.43903,347.82504c0,0 -0.00127,-9.08952 -0.00208,-9.15447c-0.00242,-0.19483 -0.32362,-7.76264 -0.32362,-24.6285c0,-16.70396 0.76779,-37.90346 0.78899,-46.17681c0.26125,-2.14538 10.77176,-2.95995 12.62015,-1.83995c2.38731,1.44655 -2.83516,49.57235 -0.88507,51.56958c5.85026,5.99167 38.12711,-2.85897 37.97765,0.36081c0.68489,4.83227 1.09131,7.34594 1.39016,12.21735c0.422,6.87877 0.41443,17.87739 0.41443,17.87739z" data-paper-data="{&quot;origPos&quot;:null}" stroke-linecap="butt"/><path d="M70.33861,314.68071c0,4.1863 -1.18272,7.57997 -2.64169,7.57997c-1.45897,0 -2.6417,-3.39367 -2.6417,-7.57997c0,-4.1863 1.18273,-7.57997 2.6417,-7.57997c1.45897,0 2.64169,3.39366 2.64169,7.57997z" data-paper-data="{&quot;origPos&quot;:null}" stroke-linecap="butt"/><path d="M66.21999,322.26068l-46.45607,-0.01067c0,0 -1.84916,-1.01987 -2.31212,-3.00822c-1.0365,-4.45162 -0.98956,-3.26452 -0.98956,-7.83521c0,-1.8373 2.06355,-4.70786 2.06355,-4.70786c0,0 28.71884,0.27375 47.49717,0.39136c0.47419,0.00297 0.50715,0.46038 0.4,0.92232c-0.32146,1.38582 -1.02989,2.44911 -0.98264,4.10265c0,0 -0.88666,2.48147 -0.19805,5.64917c0.53525,2.46218 0.97773,4.49647 0.97773,4.49647z" data-paper-data="{&quot;origPos&quot;:null}" stroke-linecap="round"/></g></g><path d="M264.27368,356.43864v-24.0219h3.01941v24.0219z" data-paper-data="{&quot;origPos&quot;:null}" fill="#975800" stroke="#7b4c00" stroke-width="1.5" stroke-linecap="butt"/><path d="M215.92859,356.0418v-25.70947h3.01941v25.70947z" data-paper-data="{&quot;origPos&quot;:null}" fill="#975800" stroke="#7b4c00" stroke-width="1.5" stroke-linecap="butt"/><g data-paper-data="{&quot;origPos&quot;:null}" fill="#006fc3" stroke="#0061a6" stroke-width="1.5"><path d="M215.89101,347.21666c0,0 -0.25239,-13.56673 -0.0986,-22.39765c0.0538,-3.08968 0.3434,-1.35121 0.77705,-4.41078c-0.15052,-3.24252 33.28742,1.93846 39.17901,-4.09555c1.96386,-2.01133 -3.2955,-50.47715 -0.89132,-51.93392c1.86145,-1.1279 12.4462,-0.30758 12.7093,1.85295c0.02136,8.3318 0.79457,29.68108 0.79457,46.50305c0,16.98501 -0.32348,24.60629 -0.32592,24.8025c-0.00081,0.0654 -0.00209,9.21914 -0.00209,9.21914z" data-paper-data="{&quot;origPos&quot;:null}" stroke-linecap="butt"/><path d="M217.42006,305.7444c1.46927,0 2.66036,3.41765 2.66036,7.63352c0,4.21587 -1.19109,7.63351 -2.66036,7.63351c-1.46927,0 -2.66036,-3.41764 -2.66036,-7.63351c0,-4.21587 1.19109,-7.63352 2.66036,-7.63352z" data-paper-data="{&quot;origPos&quot;:null}" stroke-linecap="butt"/><path d="M219.89205,316.4832c0.69348,-3.19009 -0.19945,-5.68909 -0.19945,-5.68909c0.04758,-1.66522 -0.66586,-2.73601 -0.98959,-4.13163c-0.10791,-0.46521 -0.07471,-0.92585 0.40284,-0.92884c18.911,-0.11844 47.83273,-0.39412 47.83273,-0.39412c0,0 2.07813,2.89085 2.07813,4.74113c0,4.60298 0.04727,3.4075 -0.99655,7.89056c-0.46623,2.00241 -2.32846,3.02948 -2.32846,3.02948l-47.9506,0.24401c0,0 1.61193,-2.28193 2.15096,-4.7615z" data-paper-data="{&quot;origPos&quot;:null}" stroke-linecap="round"/></g><g data-paper-data="{&quot;origPos&quot;:null}" fill="none" stroke="#000000"><path d="M191.35011,263.33739v-36.54861h36.54862v36.54861z" stroke-width="2.5" stroke-linecap="butt"/><path d="M209.49295,226.78877v36.02274" data-paper-data="{&quot;origPos&quot;:null}" stroke-width="1.5" stroke-linecap="round"/><path d="M228.16167,244.93161h-36.28568" stroke-width="1.5" stroke-linecap="round"/></g><g data-paper-data="{&quot;origPos&quot;:null}" fill="none" stroke="#000000"><path d="M390.71761,94.28383v-36.54861h36.54862v36.54862z" stroke-width="2.5" stroke-linecap="butt"/><path d="M408.86045,57.73522v36.02274" data-paper-data="{&quot;origPos&quot;:null}" stroke-width="1.5" stroke-linecap="round"/><path d="M391.24349,75.87806h36.28567" stroke-width="1.5" stroke-linecap="round"/></g><g data-paper-data="{&quot;origPos&quot;:null}" fill="none" stroke="#000000"><path d="M547.6105,94.20535v-36.54861h36.54862v36.54861z" stroke-width="2.5" stroke-linecap="butt"/><path d="M565.75334,57.65673v36.02274" data-paper-data="{&quot;origPos&quot;:null}" stroke-width="1.5" stroke-linecap="round"/><path d="M584.42205,75.79957h-36.28567" stroke-width="1.5" stroke-linecap="round"/></g><g data-paper-data="{&quot;origPos&quot;:null}" fill="none" stroke="#000000"><path d="M58.53386,94.97174v-36.54861h36.54862v36.54862z" stroke-width="2.5" stroke-linecap="butt"/><path d="M76.67669,58.42312v36.02274" data-paper-data="{&quot;origPos&quot;:null}" stroke-width="1.5" stroke-linecap="round"/><path d="M59.05974,76.56596h36.28568" stroke-width="1.5" stroke-linecap="round"/></g><path d="M438.46862,164.91601v-5.52251h5.52251v5.52251z" data-paper-data="{&quot;origPos&quot;:null}" fill="#fff4d8" stroke="#ffdeb4" stroke-width="0.75" stroke-linecap="butt"/><path d="M463.45454,164.89296v-5.52251h5.52251v5.52251z" data-paper-data="{&quot;origPos&quot;:null}" fill="#fff4d8" stroke="#ffdeb4" stroke-width="0.75" stroke-linecap="butt"/><path d="M432.20562,164.94431v-5.52252h5.52251v5.52252z" data-paper-data="{&quot;origPos&quot;:null}" fill="#fff4d8" stroke="#ffdeb4" stroke-width="0.75" stroke-linecap="butt"/><path d="M469.74304,164.87193v-5.52251h5.52251v5.52251z" data-paper-data="{&quot;origPos&quot;:null}" fill="#fff4d8" stroke="#ffdeb4" stroke-width="0.75" stroke-linecap="butt"/><path d="M432.1951,158.68611v-5.52252h5.52251v5.52252z" data-paper-data="{&quot;origPos&quot;:null}" fill="#fff4d8" stroke="#ffdeb4" stroke-width="0.75" stroke-linecap="butt"/><path d="M438.43227,158.67559v-5.52251h5.52252v5.52251z" data-paper-data="{&quot;origPos&quot;:null}" fill="#fff4d8" stroke="#ffdeb4" stroke-width="0.75" stroke-linecap="butt"/><path d="M463.47433,158.66508v-5.52251h5.52251v5.52251z" data-paper-data="{&quot;origPos&quot;:null}" fill="#fff4d8" stroke="#ffdeb4" stroke-width="0.75" stroke-linecap="butt"/><path d="M469.71149,158.65457v-5.52251h5.52251v5.52251z" data-paper-data="{&quot;origPos&quot;:null}" fill="#fff4d8" stroke="#ffdeb4" stroke-width="0.75" stroke-linecap="butt"/><path d="M432.21489,152.45823v-5.52251h5.52251v5.52251z" data-paper-data="{&quot;origPos&quot;:null}" fill="#fff4d8" stroke="#ffdeb4" stroke-width="0.75" stroke-linecap="butt"/><path d="M469.66943,152.42668v-5.52251h5.52251v5.52251z" data-paper-data="{&quot;origPos&quot;:null}" fill="#fff4d8" stroke="#ffdeb4" stroke-width="0.75" stroke-linecap="butt"/><path d="M463.35242,152.39774c0,0 -4.62016,-3.17703 -9.83488,-3.10822c-5.14058,0.06783 -9.46489,3.17007 -9.46489,3.17007l-5.58899,-0.03962l0.02175,-5.46576l6.18582,-0.06186l18.0626,-0.06186v0l6.18583,0.12372l0.03979,5.47946z" data-paper-data="{&quot;origPos&quot;:null}" fill="#fff4da" stroke="#ffdeb4" stroke-width="0.75" stroke-linecap="round"/><path d="M432.20438,146.20003v-5.52251h5.52251v5.52251z" data-paper-data="{&quot;origPos&quot;:null}" fill="#fff4d8" stroke="#ffdeb4" stroke-width="0.75" stroke-linecap="butt"/><path d="M469.61809,146.18952v-5.52251h5.52251v5.52251z" data-paper-data="{&quot;origPos&quot;:null}" fill="#fff4d8" stroke="#ffdeb4" stroke-width="0.75" stroke-linecap="butt"/><path d="M457.16355,146.10663v-5.52251h5.52251v5.52251z" data-paper-data="{&quot;origPos&quot;:null}" fill="#fff4d8" stroke="#ffdeb4" stroke-width="0.75" stroke-linecap="butt"/><path d="M444.64716,146.14745v-5.52251h5.52251v5.52251z" data-paper-data="{&quot;origPos&quot;:null}" fill="#fff4d8" stroke="#ffdeb4" stroke-width="0.75" stroke-linecap="butt"/><path d="M432.19386,139.94184v-5.52251h5.52252v5.52251z" data-paper-data="{&quot;origPos&quot;:null}" fill="#fff4d8" stroke="#ffdeb4" stroke-width="0.75" stroke-linecap="butt"/><path d="M469.60757,139.93132v-5.52251h5.52251v5.52251z" data-paper-data="{&quot;origPos&quot;:null}" fill="#fff4d8" stroke="#ffdeb4" stroke-width="0.75" stroke-linecap="butt"/><path d="M469.78263,133.67313l2.41247,-4.53278l2.67703,4.53278z" data-paper-data="{&quot;origPos&quot;:null}" fill="#fff4d8" stroke="#ffdeb4" stroke-width="0.75" stroke-linecap="butt"/><path d="M432.39924,133.71395l2.41247,-4.53279l2.67703,4.53279z" data-paper-data="{&quot;origPos&quot;:null}" fill="#fff4d8" stroke="#ffdeb4" stroke-width="0.75" stroke-linecap="butt"/><g data-paper-data="{&quot;origPos&quot;:null}" fill="#fff4d8" stroke="#ffdeb4" stroke-width="0.5" stroke-linecap="butt"><path d="M480.03149,163.57826c0,-0.79138 0.64155,-1.43292 1.43293,-1.43292c0.79138,0 1.43292,0.64154 1.43292,1.43292c0,0.79138 -0.64154,1.43292 -1.43292,1.43292c-0.79138,0 -1.43293,-0.64154 -1.43293,-1.43292z" data-paper-data="{&quot;origPos&quot;:null}"/><path d="M489.04736,163.57023c0,-0.79138 0.64154,-1.43293 1.43292,-1.43293c0.79138,0 1.43292,0.64155 1.43292,1.43293c0,0.79138 -0.64154,1.43292 -1.43292,1.43292c-0.79138,0 -1.43292,-0.64154 -1.43292,-1.43292z" data-paper-data="{&quot;origPos&quot;:null}"/><path d="M479.01054,163.47383l-0.02362,-1.252h14.22092l0.02362,1.252z" data-paper-data="{&quot;origPos&quot;:null}"/></g><g data-paper-data="{&quot;origPos&quot;:null}" fill="#fff4d8" stroke="#ffdeb4" stroke-width="0.5" stroke-linecap="butt"><path d="M497.97678,163.61748c0,-0.79138 0.64155,-1.43292 1.43293,-1.43292c0.79138,0 1.43292,0.64154 1.43292,1.43292c0,0.79138 -0.64154,1.43292 -1.43292,1.43292c-0.79138,0 -1.43293,-0.64154 -1.43293,-1.43292z" data-paper-data="{&quot;origPos&quot;:null}"/><path d="M506.99265,163.60945c0,-0.79138 0.64154,-1.43292 1.43292,-1.43292c0.79138,0 1.43292,0.64154 1.43292,1.43292c0,0.79138 -0.64154,1.43292 -1.43292,1.43292c-0.79138,0 -1.43292,-0.64154 -1.43292,-1.43292z" data-paper-data="{&quot;origPos&quot;:null}"/><path d="M496.95583,163.51305l-0.16535,-4.13398l0.88179,-0.00497l13.33913,-0.04228l0.16535,4.18124c0,0 -4.6907,0 -7.69299,0c-2.5476,0 -6.52792,0 -6.52792,0z" data-paper-data="{&quot;origPos&quot;:null}"/></g><text transform="translate(499.51512,162.24745) scale(0.08215,0.08215)" font-size="40" xml:space="preserve" data-paper-data="{&quot;origPos&quot;:null}" fill="#ffdbb5" fill-rule="nonzero" stroke="none" stroke-width="0" stroke-linecap="butt" stroke-linejoin="miter" stroke-miterlimit="10" stroke-dasharray="" stroke-dashoffset="0" font-family="Sans Serif" font-weight="normal" text-anchor="start" style="mix-blend-mode: normal"><tspan x="0" dy="0">Cargo</tspan></text><path d="M493.2787,162.7179h3.40168" data-paper-data="{&quot;origPos&quot;:null}" fill="none" stroke="#ffdeb4" stroke-width="0.5" stroke-linecap="round"/><g stroke-width="0.5"><path d="M515.03243,163.57023c0,-0.79138 0.64155,-1.43292 1.43293,-1.43292c0.79138,0 1.43292,0.64154 1.43292,1.43292c0,0.79138 -0.64154,1.43292 -1.43292,1.43292c-0.79138,0 -1.43293,-0.64154 -1.43293,-1.43292z" data-paper-data="{&quot;origPos&quot;:null}" fill="#fff4d8" stroke="#ffdeb4" stroke-linecap="butt"/><path d="M524.04831,163.5622c0,-0.79138 0.64154,-1.43293 1.43292,-1.43293c0.79138,0 1.43292,0.64155 1.43292,1.43293c0,0.79138 -0.64154,1.43292 -1.43292,1.43292c-0.79138,0 -1.43292,-0.64154 -1.43292,-1.43292z" data-paper-data="{&quot;origPos&quot;:null}" fill="#fff4d8" stroke="#ffdeb4" stroke-linecap="butt"/><path d="M527.84068,160.37419l0.03458,2.31705l-13.21068,0.06917l-0.03458,-1.97123c0,0 1.81335,-1.31653 2.28066,-1.14046c0.57686,0.21734 1.15267,1.31551 1.31609,1.31492c0.56693,-0.00203 0.67815,-1.5044 1.24435,-1.53318c0.45737,-0.02325 1.06136,0.3469 1.51826,0.37814c0.39326,0.02688 0.84453,0.91328 1.14586,0.65915c0.41597,-0.35082 0.74124,-1.14063 1.28288,-1.19286c0.70014,-0.06752 1.51534,0.79878 2.19505,0.97974c0.85379,0.22731 1.70877,0.01579 1.70877,0.01579z" data-paper-data="{&quot;origPos&quot;:null}" fill="#222222" stroke="#000000" stroke-linecap="round"/><path d="M514.01148,163.4658l-0.12737,-4.26072h0.57296l0.06916,3.18163l13.05201,-0.06392l-0.05534,-3.09384l0.58212,-0.02388l0.12737,4.26072z" data-paper-data="{&quot;origPos&quot;:null}" fill="#fff4d8" stroke="#ffdeb4" stroke-linecap="butt"/></g><path d="M511.24086,162.51831h2.48997" fill="none" stroke="#ffdeb4" stroke-width="0.5" stroke-linecap="round"/><path d="M532.23023,162.77017l-3.74036,-0.07792" data-paper-data="{&quot;origPos&quot;:null}" fill="none" stroke="#ffdeb4" stroke-width="0.5" stroke-linecap="round"/><g stroke="#ffdeb4" stroke-width="0.5"><g stroke-linecap="butt"><path d="M544.86044,163.54755c0,-0.79138 0.64154,-1.43293 1.43292,-1.43293c0.79138,0 1.43292,0.64155 1.43292,1.43293c0,0.79138 -0.64154,1.43292 -1.43292,1.43292c-0.79138,0 -1.43292,-0.64154 -1.43292,-1.43292z" data-paper-data="{&quot;origPos&quot;:null}" fill="#fff4d8"/><path d="M532.57021,163.54273c0,-0.79138 0.64154,-1.43292 1.43292,-1.43292c0.79138,0 1.43292,0.64154 1.43292,1.43292c0,0.79138 -0.64154,1.43292 -1.43292,1.43292c-0.79138,0 -1.43292,-0.64154 -1.43292,-1.43292z" data-paper-data="{&quot;origPos&quot;:null}" fill="#fff4d8"/><path d="M540.32799,163.5347c0,-0.79138 0.64154,-1.43293 1.43292,-1.43293c0.79138,0 1.43292,0.64155 1.43292,1.43293c0,0.79138 -0.64154,1.43292 -1.43292,1.43292c-0.79138,0 -1.43292,-0.64154 -1.43292,-1.43292z" data-paper-data="{&quot;origPos&quot;:null}" fill="#fff4d8"/><path d="M532.08154,163.4383l0.02477,-1.252h3.26413l-0.03896,-4.87025l-1.23539,0.00767l-0.03088,-0.73566l4.68743,-0.04268l0.01735,2.492c0,0 -0.00203,-0.00193 7.00243,-0.04009c0.28926,-0.00158 0.68656,0.44242 0.96039,0.60553c0.23461,0.24088 0.32316,0.17474 0.67743,1.70955c0.202,0.68297 -0.12593,1.06874 -0.12593,1.06874l0.98505,0.06399l0.05159,0.9932z" data-paper-data="{&quot;origPos&quot;:null}" fill="#fff4d8"/><path d="M536.54872,159.68275v-1.71433h1.40263v1.71433z" data-paper-data="{&quot;origPos&quot;:null}" fill="#e5e5e5"/></g><path d="M535.41883,162.25425l11.84446,0.07792" data-paper-data="{&quot;origPos&quot;:null}" fill="none" stroke-linecap="round"/></g></g></g></svg>