<svg version="1.1" xmlns="http://www.w3.org/2000/svg" xmlns:xlink="http://www.w3.org/1999/xlink" width="214.74844" height="214.81391" viewBox="0,0,214.74844,214.81391"><defs><radialGradient cx="582.9642" cy="290.12497" r="118.79504" gradientUnits="userSpaceOnUse" id="color-1"><stop offset="0" stop-color="#c5c5c5"/><stop offset="1" stop-color="#d8d8d8"/></radialGradient></defs><g transform="translate(-535.50302,-240.9391)"><g data-paper-data="{&quot;isPaintingLayer&quot;:true}" fill-rule="nonzero" stroke-linecap="butt" stroke-linejoin="miter" stroke-miterlimit="10" stroke-dasharray="" stroke-dashoffset="0" style="mix-blend-mode: normal"><path d="M541.33018,286.84967c-7.89446,-7.89446 -5.32121,-23.26716 5.74752,-34.33589c11.06873,-11.06873 26.44144,-13.64198 34.33589,-5.74752c7.89446,7.89446 5.32121,23.26716 -5.74752,34.33589c-11.06873,11.06873 -26.44144,13.64198 -34.33589,5.74752z" data-paper-data="{&quot;origPos&quot;:null,&quot;origRot&quot;:0}" fill="#c5c5c5" stroke="#b3b3b3" stroke-width="2.5"/><path d="M540.59341,285.88114l39.78618,-39.78618l168.1041,168.10409l-39.78619,39.78619z" data-paper-data="{&quot;origRot&quot;:0,&quot;origPos&quot;:null}" fill="url(#color-1)" stroke="#b3b3b3" stroke-width="2.5"/><path d="M542.77308,286.21372c-7.48503,-7.48503 -5.04523,-22.06045 5.44943,-32.55512c10.49467,-10.49467 25.07009,-12.93446 32.55513,-5.44943c7.48503,7.48503 5.04524,22.06045 -5.44943,32.55512c-10.49467,10.49467 -25.0701,12.93446 -32.55513,5.44943z" data-paper-data="{&quot;origPos&quot;:null,&quot;origRot&quot;:0}" fill="#c5c5c5" stroke="none" stroke-width="0"/><text transform="translate(589.8545,281.20851) rotate(45) scale(0.44942,0.40934) skewX(0)" font-size="40" xml:space="preserve" data-paper-data="{&quot;origRot&quot;:45,&quot;origPos&quot;:null}" fill="#000000" fill-rule="nonzero" stroke="none" stroke-width="1" stroke-linecap="butt" stroke-linejoin="miter" stroke-miterlimit="10" stroke-dasharray="" stroke-dashoffset="0" font-family="Handwriting" font-weight="normal" text-anchor="start" style="mix-blend-mode: normal"><tspan x="0" dy="0">Water</tspan></text></g></g></svg>