<svg version="1.1" xmlns="http://www.w3.org/2000/svg" xmlns:xlink="http://www.w3.org/1999/xlink" width="761.31164" height="469.24969" viewBox="0,0,761.31164,469.24969"><g transform="translate(31.90474,48.01095)"><g data-paper-data="{&quot;isPaintingLayer&quot;:true}" fill-rule="nonzero" stroke-linejoin="miter" stroke-miterlimit="10" stroke-dasharray="" stroke-dashoffset="0" style="mix-blend-mode: normal"><g data-paper-data="{&quot;origPos&quot;:null}"><path d="M-17.83784,418.73874v-438.43844h744.74474v438.43844z" data-paper-data="{&quot;origPos&quot;:null}" fill="#a5ffff" stroke="#6c6c6c" stroke-width="5" stroke-linecap="butt"/><g data-paper-data="{&quot;origPos&quot;:null}" stroke-width="5" stroke-linecap="round"><path d="M244.31656,377.32298c0,0 23.89752,-2.79383 39.39734,-21.03854c14.53746,-17.11192 12.39392,-54.85596 12.39144,-68.7665c-0.00146,-8.1448 0.82402,-34.06676 -9.45671,-58.88275c-9.38811,-27.33483 -47.97695,-31.94847 -47.97695,-31.94847l121.80214,-6.3274c0,0 -18.98512,2.19286 -27.45011,38.61969c-2.07,8.90769 -3.30541,13.92741 -4.36255,23.01114c-0.77921,6.69557 -0.47431,28.59805 -0.47561,35.87161c-0.00248,13.91054 1.44618,29.58822 15.98364,46.70014c15.49981,18.24471 56.84515,43.10491 56.84515,43.10491z" data-paper-data="{&quot;origPos&quot;:null,&quot;index&quot;:null}" fill="#616161" stroke="#575757"/><path d="M240.38566,196.40787c0,0 -27.70278,10.57408 -36.45657,9.25364c-7.55871,-1.14017 -22.26455,-13.83499 -22.67026,-14.46289c-1.21715,-1.88372 -12.51062,-20.99922 -8.26303,-32.24698c0.25172,-0.66655 2.26968,-16.79151 12.00014,-22.82093c4.19166,-2.59734 12.00771,-6.34362 12.53153,-6.42711c6.89996,-1.0998 10.07285,0.09238 16.47955,2.88043c7.49774,3.26285 26.37864,18.66477 26.37864,18.66477c0,0 -19.03469,-19.32982 -25.44115,-34.77295c-3.18428,-7.67591 -1.95873,-18.43679 -1.66576,-19.37261c2.42075,-7.73244 6.45976,-18.04039 12.51974,-20.25255c6.35509,-2.31989 14.20661,-5.78339 20.89674,-6.78896c7.66021,-1.15137 7.08404,-1.6551 12.07821,-1.07794c11.63385,1.34448 22.79257,17.31911 25.80077,28.63746c3.0672,11.54035 4.27213,21.78595 4.27056,22.5948c-0.00754,3.90317 -1.42007,-16.12534 5.71554,-34.26819c2.76275,-7.02449 8.81771,-13.10796 16.06244,-15.22701c4.27704,-1.25102 16.98669,-3.76413 21.32367,-2.74005c9.70564,2.29176 20.3673,4.97828 25.74757,9.93422c0.53913,0.49662 7.96038,12.87521 8.6193,21.75887c1.69013,22.78631 -22.9304,56.84604 -22.4035,56.0464c9.06932,-13.76395 30.89765,-35.10138 53.23108,-29.22473c12.5229,3.29519 38.20507,15.26305 36.62661,30.58336c-2.39683,23.26333 -9.54289,34.05397 -26.63784,34.7989c-7.56502,0.32966 -48.7146,-2.14117 -48.7146,-2.14117" data-paper-data="{&quot;origPos&quot;:null}" fill="#9c9c9c" stroke="#787878"/></g><g fill="#ffffff" stroke="#d3d3d3" stroke-linecap="butt"><g data-paper-data="{&quot;origPos&quot;:null}"><g data-paper-data="{&quot;origPos&quot;:null}"><g data-paper-data="{&quot;origPos&quot;:null}" stroke-width="3.5"><path d="M45.30019,350.86009v-11.40456h78.03121v11.40456z" data-paper-data="{&quot;origPos&quot;:null}"/><path d="M44.89803,325.24785v-11.40456h78.03121v11.40456z" data-paper-data="{&quot;origPos&quot;:null}"/></g><path d="M35.49828,377.67282v-78.63145c0,0 8.35815,-21.72762 9.60384,-19.20768c4.45078,9.0036 9.0036,19.20768 9.0036,19.20768v78.63145z" data-paper-data="{&quot;origPos&quot;:null}" stroke-width="5"/></g><g data-paper-data="{&quot;origPos&quot;:null}"><g data-paper-data="{&quot;origPos&quot;:null}" stroke-width="3.5"><path d="M121.72877,350.45793v-11.40456h78.03122v11.40456z" data-paper-data="{&quot;origPos&quot;:null}"/><path d="M121.32661,324.84569v-11.40457h78.03122v11.40457z" data-paper-data="{&quot;origPos&quot;:null}"/></g><path d="M111.92685,377.27065v-78.63145c0,0 8.35815,-21.72762 9.60384,-19.20768c4.45077,9.0036 9.0036,19.20768 9.0036,19.20768v78.63145z" data-paper-data="{&quot;origPos&quot;:null}" stroke-width="5"/></g><g data-paper-data="{&quot;origPos&quot;:null}"><g data-paper-data="{&quot;origPos&quot;:null}" stroke-width="3.5"><path d="M198.15734,350.05577v-11.40457h78.03122v11.40457z" data-paper-data="{&quot;origPos&quot;:null}"/><path d="M197.75518,324.44353v-11.40456h78.03122v11.40456z" data-paper-data="{&quot;origPos&quot;:null}"/></g><path d="M188.35542,376.86849v-78.63145c0,0 8.35815,-21.72762 9.60384,-19.20769c4.45077,9.0036 9.0036,19.20769 9.0036,19.20769v78.63145z" data-paper-data="{&quot;origPos&quot;:null}" stroke-width="5"/></g></g><g data-paper-data="{&quot;origPos&quot;:null}"><g data-paper-data="{&quot;origPos&quot;:null}"><g data-paper-data="{&quot;origPos&quot;:null}" stroke-width="3.5"><path d="M270.58831,349.85769v-11.40456h78.03121v11.40456z" data-paper-data="{&quot;origPos&quot;:null}"/><path d="M270.18615,324.24545v-11.40457h78.03122v11.40457z" data-paper-data="{&quot;origPos&quot;:null}"/></g><path d="M260.78639,376.67041v-78.63145c0,0 8.35815,-21.72762 9.60384,-19.20768c4.45077,9.0036 9.0036,19.20768 9.0036,19.20768v78.63145z" data-paper-data="{&quot;origPos&quot;:null}" stroke-width="5"/></g><g data-paper-data="{&quot;origPos&quot;:null}"><g data-paper-data="{&quot;origPos&quot;:null}" stroke-width="3.5"><path d="M347.01688,349.45553v-11.40457h78.03121v11.40457z" data-paper-data="{&quot;origPos&quot;:null}"/><path d="M346.61472,323.84329v-11.40456h78.03121v11.40456z" data-paper-data="{&quot;origPos&quot;:null}"/></g><path d="M337.21496,376.26825v-78.63145c0,0 8.35815,-21.72762 9.60384,-19.20769c4.45078,9.0036 9.0036,19.20769 9.0036,19.20769v78.63145z" data-paper-data="{&quot;origPos&quot;:null}" stroke-width="5"/></g><g data-paper-data="{&quot;origPos&quot;:null}"><g data-paper-data="{&quot;origPos&quot;:null}" stroke-width="3.5"><path d="M423.44545,349.05337v-11.40456h78.03122v11.40456z" data-paper-data="{&quot;origPos&quot;:null}"/><path d="M423.04329,323.44113v-11.40456h78.03121v11.40456z" data-paper-data="{&quot;origPos&quot;:null}"/></g><path d="M413.64353,375.86609v-78.63145c0,0 8.35815,-21.72762 9.60384,-19.20769c4.45078,9.0036 9.0036,19.20769 9.0036,19.20769v78.63145z" data-paper-data="{&quot;origPos&quot;:null}" stroke-width="5"/></g></g></g><g stroke-width="5" stroke-linecap="round"><path d="M116.06925,376.32658c0,0 23.89752,-2.79383 39.39734,-21.03854c14.53746,-17.11192 12.39392,-54.85596 12.39144,-68.7665c-0.00145,-8.14481 0.82404,-34.06676 -9.4567,-58.88275c-9.38812,-27.33483 -47.97696,-31.94847 -47.97696,-31.94847l121.80214,-6.3274c0,0 -18.98512,2.19286 -27.45011,38.6197c-2.06999,8.90768 -3.30542,13.92741 -4.36255,23.01114c-0.77921,6.69557 -0.47431,28.59804 -0.47561,35.87161c-0.00248,13.91054 1.44618,29.58822 15.98364,46.70014c15.49982,18.2447 56.84516,43.1049 56.84516,43.1049z" data-paper-data="{&quot;origPos&quot;:null,&quot;index&quot;:null}" fill="#616161" stroke="#575757"/><path d="M112.13836,195.41147c0,0 -27.70277,10.57407 -36.45656,9.25364c-7.55871,-1.14017 -22.26454,-13.83498 -22.67026,-14.46289c-1.21715,-1.88372 -12.51062,-20.99923 -8.26303,-32.24698c0.25171,-0.66655 2.26968,-16.79152 12.00014,-22.82093c4.19167,-2.59733 12.00771,-6.34362 12.53153,-6.42711c6.89996,-1.09979 10.07285,0.09238 16.47955,2.88044c7.49773,3.26285 26.37863,18.66477 26.37863,18.66477c0,0 -19.03469,-19.32982 -25.44115,-34.77295c-3.18429,-7.67591 -1.95873,-18.43679 -1.66576,-19.37261c2.42076,-7.73245 6.45975,-18.04038 12.51974,-20.25255c6.35509,-2.31989 14.2066,-5.78339 20.89674,-6.78896c7.66021,-1.15138 7.08405,-1.65511 12.07821,-1.07795c11.63386,1.34448 22.79257,17.31911 25.80077,28.63746c3.0672,11.54035 4.27213,21.78595 4.27057,22.5948c-0.00754,3.90318 -1.42008,-16.12533 5.71554,-34.26818c2.76275,-7.0245 8.81772,-13.10796 16.06244,-15.22701c4.27703,-1.25102 16.98669,-3.76413 21.32367,-2.74005c9.70564,2.29176 20.3673,4.97827 25.74757,9.93421c0.53914,0.49661 7.96037,12.87521 8.6193,21.75887c1.69013,22.78632 -22.93041,56.84604 -22.40351,56.0464c9.06933,-13.76394 30.89766,-35.10137 53.23109,-29.22472c12.5229,3.29518 38.20508,15.26304 36.62662,30.58336c-2.39684,23.26333 -9.5429,34.05396 -26.63785,34.79889c-7.56502,0.32966 -48.7146,-2.14117 -48.7146,-2.14117" data-paper-data="{&quot;origPos&quot;:null}" fill="#9c9c9c" stroke="#787878"/></g><g data-paper-data="{&quot;origPos&quot;:null}" fill="#ffffff" stroke="#d3d3d3" stroke-linecap="butt"><g data-paper-data="{&quot;origPos&quot;:null}"><g data-paper-data="{&quot;origPos&quot;:null}" stroke-width="3.5"><path d="M494.07571,351.85649v-11.40456h78.03122v11.40456z" data-paper-data="{&quot;origPos&quot;:null}"/><path d="M493.67355,326.24425v-11.40457h78.03122v11.40457z" data-paper-data="{&quot;origPos&quot;:null}"/></g><path d="M484.27379,378.66921v-78.63145c0,0 8.35815,-21.72762 9.60384,-19.20768c4.45077,9.0036 9.0036,19.20768 9.0036,19.20768v78.63145z" data-paper-data="{&quot;origPos&quot;:null}" stroke-width="5"/></g><g data-paper-data="{&quot;origPos&quot;:null}"><g data-paper-data="{&quot;origPos&quot;:null}" stroke-width="3.5"><path d="M570.50428,351.45433v-11.40457h78.03121v11.40457z" data-paper-data="{&quot;origPos&quot;:null}"/><path d="M570.10212,325.84209v-11.40456h78.03121v11.40456z" data-paper-data="{&quot;origPos&quot;:null}"/></g><path d="M560.70236,378.26705v-78.63145c0,0 8.35815,-21.72762 9.60384,-19.20769c4.45078,9.0036 9.0036,19.20769 9.0036,19.20769v78.63145z" data-paper-data="{&quot;origPos&quot;:null}" stroke-width="5"/></g><g data-paper-data="{&quot;origPos&quot;:null}"><g data-paper-data="{&quot;origPos&quot;:null}" stroke-width="3.5"><path d="M646.93285,351.05217v-11.40456h78.03121v11.40456z" data-paper-data="{&quot;origPos&quot;:null}"/><path d="M646.53069,325.43993v-11.40456h78.03121v11.40456z" data-paper-data="{&quot;origPos&quot;:null}"/></g><path d="M637.13093,377.86489v-78.63145c0,0 8.35815,-21.72762 9.60384,-19.20769c4.45078,9.0036 9.00361,19.20769 9.00361,19.20769v78.63145z" data-paper-data="{&quot;origPos&quot;:null}" stroke-width="5"/></g></g><g data-paper-data="{&quot;origPos&quot;:null}" stroke-width="5" stroke-linecap="round"><path d="M442.79795,374.72393c0,0 23.89753,-2.79383 39.39734,-21.03854c14.53746,-17.11192 12.39393,-54.85596 12.39144,-68.7665c-0.00145,-8.14481 0.82403,-34.06676 -9.4567,-58.88275c-9.38812,-27.33483 -47.97696,-31.94847 -47.97696,-31.94847l121.80214,-6.3274c0,0 -18.98512,2.19287 -27.45011,38.6197c-2.07,8.90769 -3.30541,13.92741 -4.36255,23.01114c-0.77921,6.69557 -0.47431,28.59804 -0.47561,35.87161c-0.00249,13.91054 1.44618,29.58822 15.98364,46.70014c15.49981,18.24471 56.84515,43.10491 56.84515,43.10491z" data-paper-data="{&quot;origPos&quot;:null,&quot;index&quot;:null}" fill="#616161" stroke="#575757"/><path d="M438.86708,193.80885c0,0 -27.70277,10.57408 -36.45656,9.25364c-7.55871,-1.14017 -22.26454,-13.83499 -22.67026,-14.46289c-1.21715,-1.88372 -12.51062,-20.99922 -8.26303,-32.24698c0.25172,-0.66655 2.26968,-16.79151 12.00014,-22.82093c4.19166,-2.59734 12.00771,-6.34362 12.53153,-6.42711c6.89996,-1.09979 10.07285,0.09239 16.47955,2.88044c7.49773,3.26285 26.37863,18.66477 26.37863,18.66477c0,0 -19.03469,-19.32982 -25.44115,-34.77295c-3.18429,-7.6759 -1.95873,-18.43679 -1.66576,-19.37261c2.42075,-7.73245 6.45975,-18.04039 12.51973,-20.25255c6.35509,-2.31989 14.20661,-5.78339 20.89674,-6.78896c7.66021,-1.15137 7.08404,-1.6551 12.07821,-1.07794c11.63386,1.34449 22.79257,17.31911 25.80077,28.63746c3.0672,11.54034 4.27214,21.78595 4.27057,22.5948c-0.00755,3.90317 -1.42008,-16.12534 5.71553,-34.26819c2.76275,-7.02451 8.81771,-13.10797 16.06244,-15.22702c4.27703,-1.25102 16.98669,-3.76413 21.32367,-2.74005c9.70565,2.29176 20.3673,4.97827 25.74757,9.93421c0.53913,0.49661 7.96037,12.87521 8.6193,21.75887c1.69013,22.78631 -22.93039,56.84604 -22.4035,56.0464c9.06933,-13.76395 30.89765,-35.10138 53.23108,-29.22473c12.5229,3.29519 38.20507,15.26305 36.62661,30.58336c-2.39683,23.26333 -9.54289,34.05396 -26.63784,34.79889c-7.56502,0.32965 -48.71461,-2.14117 -48.71461,-2.14117" data-paper-data="{&quot;origPos&quot;:null}" fill="#9c9c9c" stroke="#787878"/></g><path d="M27.69517,377.89791h656.15616" data-paper-data="{&quot;origPos&quot;:null}" fill="none" stroke="#6c6c6c" stroke-width="5" stroke-linecap="round"/><path d="M-31.90474,20.28375c0,-37.71812 30.57658,-68.2947 68.2947,-68.2947c37.71812,0 68.2947,30.57658 68.2947,68.2947c0,37.71812 -30.57658,68.2947 -68.2947,68.2947c-37.71812,0 -68.2947,-30.57658 -68.2947,-68.2947z" data-paper-data="{&quot;origPos&quot;:null}" fill="#fff7a6" stroke="none" stroke-width="0" stroke-linecap="butt"/></g></g></g></svg>