<svg version="1.1" xmlns="http://www.w3.org/2000/svg" xmlns:xlink="http://www.w3.org/1999/xlink" width="238.32525" height="66.34498" viewBox="0,0,238.32525,66.34498"><g transform="translate(-200.83679,-146.82751)"><g data-paper-data="{&quot;isPaintingLayer&quot;:true}" fill-rule="nonzero" stroke-linecap="butt" stroke-linejoin="miter" stroke-miterlimit="10" stroke-dasharray="" stroke-dashoffset="0" style="mix-blend-mode: normal"><path d="M435.86952,163.38139c0,5.02489 -1.9718,8.22824 -1.74796,13.24817c0.38208,8.56855 3.35932,12.99433 3.29048,21.57108c-0.00519,0.64668 -1.87285,9.71322 -13.25146,10.16682c-32.75514,1.30576 -51.20593,-0.88881 -83.98375,-0.4114c-30.47419,0.44386 -47.61205,2.78293 -78.08949,2.78293c-25.27699,0 -21.14975,-0.46029 -47.78187,0.67306c-12.34009,0.52514 -11.30407,-18.88681 -11.30407,-30.70471c0,-15.69173 -3.84565,-29.00507 11.88716,-29.44725c11.51123,-0.32353 17.21274,0.97613 28.72853,0.95439c5.70112,-0.01076 9.67966,-1.53879 15.38079,-1.53879c0,0 88.17713,0.47802 129.04283,0.04174c0.75348,-0.00804 4.69065,-1.46131 22.02917,-1.65406c16.34754,-0.18174 25.79963,-4.18178 25.79963,14.31802z" data-paper-data="{&quot;origPos&quot;:null}" fill="#ffffff" stroke="#d3d3d3" stroke-width="3.5"/><text transform="translate(250.77646,193.40676) scale(1.11723,1.11723)" font-size="40" xml:space="preserve" data-paper-data="{&quot;origPos&quot;:null}" fill="#000000" fill-rule="nonzero" stroke="none" stroke-width="1" stroke-linecap="butt" stroke-linejoin="miter" stroke-miterlimit="10" stroke-dasharray="" stroke-dashoffset="0" font-family="Handwriting" font-weight="normal" text-anchor="start" style="mix-blend-mode: normal"><tspan x="0" dy="0">Tutorial</tspan></text></g></g></svg>