<svg version="1.1" xmlns="http://www.w3.org/2000/svg" xmlns:xlink="http://www.w3.org/1999/xlink" width="100.11032" height="101.67459" viewBox="0,0,100.11032,101.67459"><g transform="translate(-537.56461,-249.05083)"><g data-paper-data="{&quot;isPaintingLayer&quot;:true}" fill-rule="nonzero" stroke-linecap="butt" stroke-linejoin="miter" stroke-miterlimit="10" stroke-dasharray="" stroke-dashoffset="0" style="mix-blend-mode: normal"><path d="M563.59078,266.77782l5.47066,-5.47065l3.55311,3.5531l-5.47066,5.47066z" fill="#c5c5c5" stroke="none" stroke-width="0"/><path d="M560.82724,267.511l3.10193,-3.10192l2.76353,2.76353l-3.10192,3.10192z" fill="#c5c5c5" stroke="none" stroke-width="0"/><path d="M548.93438,279.62947l6.11397,-6.11397l3.5531,3.55311l-6.11397,6.11397z" data-paper-data="{&quot;origPos&quot;:null}" fill="#c5c5c5" stroke="none" stroke-width="0"/><path d="M537.56461,268.34205l19.29122,-19.29122l12.83391,12.83391l-19.29122,19.29122z" data-paper-data="{&quot;origPos&quot;:null}" fill="#c5c5c5" stroke="none" stroke-width="0"/><path d="M550.22702,280.70557l3.58695,-3.58695l5.35786,5.35786l-3.58695,3.58695z" data-paper-data="{&quot;origPos&quot;:null}" fill="#c5c5c5" stroke="none" stroke-width="0"/><path d="M552.49852,283.17154l2.85127,-2.85127l6.59863,6.59863l-2.85126,2.85126z" data-paper-data="{&quot;origPos&quot;:null}" fill="#c5c5c5" stroke="none" stroke-width="0"/><path d="M566.12871,266.04465l3.6659,-3.66591l7.95219,7.95219l-3.6659,3.66591z" fill="#c5c5c5" stroke="none" stroke-width="0"/><path d="M560.22113,272.62586c4.25502,-4.25502 10.49893,-2.83098 13.15426,-0.17565c0.01373,0.01373 0.02146,0.02147 0.03519,0.0352c0.24981,0.2498 34.82265,34.83263 58.83477,58.82389c3.10032,3.09765 5.95671,8.89896 0.98367,14.07916c-5.73808,5.97713 -10.87039,3.40857 -14.223,0.04486c-1.40175,-1.40637 -57.65203,-57.61804 -58.99231,-59.06898c-2.54929,-2.75977 -4.14628,-9.38479 0.10875,-13.63982z" data-paper-data="{&quot;origPos&quot;:null,&quot;origRot&quot;:0}" fill="none" stroke="#d3d3d3" stroke-width="3.5"/></g></g></svg>