<svg version="1.1" xmlns="http://www.w3.org/2000/svg" xmlns:xlink="http://www.w3.org/1999/xlink" width="55.75701" height="17.41626" viewBox="0,0,55.75701,17.41626"><g transform="translate(-214.96621,-303.82001)"><g data-paper-data="{&quot;isPaintingLayer&quot;:true}" fill="#006fc3" fill-rule="nonzero" stroke="#0061a6" stroke-width="1.5" stroke-linejoin="miter" stroke-miterlimit="10" stroke-dasharray="" stroke-dashoffset="0" style="mix-blend-mode: normal"><path d="M218.37657,304.97857c1.46927,0 2.66036,3.41765 2.66036,7.63352c0,4.21587 -1.19109,7.63351 -2.66036,7.63351c-1.46927,0 -2.66036,-3.41764 -2.66036,-7.63351c0,-4.21587 1.19109,-7.63352 2.66036,-7.63352z" data-paper-data="{&quot;origPos&quot;:null}" stroke-linecap="butt"/><path d="M220.84856,315.71736c0.69348,-3.19009 -0.19945,-5.68909 -0.19945,-5.68909c0.04758,-1.66522 -0.66586,-2.73601 -0.98959,-4.13163c-0.10791,-0.46521 -0.07471,-0.92585 0.40284,-0.92884c18.911,-0.11844 47.83273,-0.39412 47.83273,-0.39412c0,0 2.07813,2.89085 2.07813,4.74113c0,4.60298 0.04727,3.4075 -0.99655,7.89056c-0.46623,2.00241 -2.32846,3.02948 -2.32846,3.02948l-47.9506,0.24401c0,0 1.61193,-2.28193 2.15096,-4.7615z" data-paper-data="{&quot;origPos&quot;:null}" stroke-linecap="round"/></g></g></svg>