<svg version="1.1" xmlns="http://www.w3.org/2000/svg" xmlns:xlink="http://www.w3.org/1999/xlink" width="314.31302" height="38.6903" viewBox="0,0,314.31302,38.6903"><g transform="translate(-323.18755,-122.43278)"><g data-paper-data="{&quot;isPaintingLayer&quot;:true}" fill-rule="nonzero" stroke-linejoin="miter" stroke-miterlimit="10" stroke-dasharray="" stroke-dashoffset="0" style="mix-blend-mode: normal"><path d="M409.01449,147.87406c0,8.51852 -19.41404,7.09285 -43.6121,7.09285c-24.19806,0 -40.46484,0.98778 -40.46484,-7.53074c0,-8.51852 16.0644,-14.98626 40.26247,-14.98626c24.19807,0 43.81448,6.90562 43.81448,15.42414z" data-paper-data="{&quot;origPos&quot;:null}" fill="#ffffff" stroke="#d3d3d3" stroke-width="3.5" stroke-linecap="butt"/><path d="M331.75667,139.29452c0,-6.53555 11.81769,-11.83365 26.39554,-11.83365c14.57785,0 26.39554,5.29811 26.39554,11.83365c0,6.53554 -11.81769,11.83365 -26.39554,11.83365c-14.57785,0 -26.39554,-5.2981 -26.39554,-11.83365z" data-paper-data="{&quot;origPos&quot;:null}" fill="#ffffff" stroke="#d3d3d3" stroke-width="3.5" stroke-linecap="butt"/><path d="M351.9965,133.41475c0,-5.09867 9.63399,-9.23197 21.51811,-9.23197c11.88413,0 21.51811,4.13329 21.51811,9.23196c0,5.09867 -9.63399,9.23196 -21.51811,9.23196c-11.88413,0 -21.51811,-4.13329 -21.51811,-9.23196z" data-paper-data="{&quot;origPos&quot;:null}" fill="#ffffff" stroke="#d3d3d3" stroke-width="3.5" stroke-linecap="butt"/><path d="M366.10462,141.56039c0,-4.46023 8.52805,-8.07596 19.04794,-8.07596c10.51989,0 19.04794,3.61573 19.04794,8.07596c0,4.46023 -8.52805,8.07596 -19.04794,8.07596c-10.51989,0 -19.04794,-3.61573 -19.04794,-8.07596z" data-paper-data="{&quot;origPos&quot;:null}" fill="#ffffff" stroke="#d3d3d3" stroke-width="3.5" stroke-linecap="butt"/><path d="M401.38894,142.37748c3.72845,0 6.75096,1.96703 6.75096,4.39348c0,2.42646 -3.02251,4.39349 -6.75096,4.39349c-3.72846,0 -6.75097,-1.96703 -6.75097,-4.39349c0,-2.42645 3.02251,-4.39348 6.75097,-4.39348z" data-paper-data="{&quot;origPos&quot;:null}" fill="#ffffff" stroke="#d3d3d3" stroke-width="3.5" stroke-linecap="butt"/><path d="M406.31767,146.6638c-0.13946,0.68538 0.25371,1.29366 0.09814,1.97556c-0.20763,0.91009 -0.70681,1.32129 -1.42288,1.92014c-0.88058,0.95449 -7.1514,2.57523 -8.88095,1.6149c-0.64484,-0.12 -2.5401,0.3412 -3.06105,0.06978c-0.23872,0.09368 -0.47926,0.16198 -0.7182,0.20081c-7.65843,1.24446 -15.31194,0.47187 -23.00324,0.32628c-5.81562,-0.11008 -11.36743,1.25474 -17.0567,0.38477c-3.01816,-0.46151 -10.20797,0.64856 -11.84303,-2.45755c-1.79821,0.26567 -3.83793,0.33624 -4.48887,-0.8029l-1.84675,-3.23181c1.54275,-2.69982 2.73648,-3.43127 4.44822,-3.68511c1.06741,-0.1583 2.33624,-0.13087 4.01674,-0.2792c0.21963,-0.01938 2.31473,0.40549 2.51673,0.21431c0.11691,-0.11065 0.28546,-2.28365 0.76829,-2.84696c1.25501,-1.46417 3.22042,-2.27197 5.02108,-2.82762c2.75753,-0.85093 5.05702,-2.20664 7.65336,-3.34859c3.40454,-1.49743 6.01496,0.93418 6.03585,3.79806l0.55089,-0.27545l0.36208,-0.24139l0.774,-0.5805l0.2433,-0.10244l0.13222,-0.20777l0.01591,-0.28631l0.36584,-0.31358l0.25869,-0.40651l0.28118,-0.05624l0.15688,-0.13447l0.28749,-0.28749l0.32028,-0.19217l0.25124,-0.27637l0.33399,-0.22266l0.05293,-0.05292l0.46578,-0.51236l0.1594,-0.18596l0.26484,-0.49657l0.01621,-0.29176l0.25679,-0.2201l0.15915,-0.29842l0.2813,-0.07912l0.36535,-0.31315l0.28749,-0.28749l0.51691,-0.31015l0.45769,-0.3923l1.06705,-0.53352l0.0209,-0.03657l0.10449,-0.02612l0.09346,-0.04673l0.84113,-0.18691l0.83592,-0.20898h0.10449l0.10514,-0.02336l0.03505,0.02336h1.89848l1.875,0.46875l0.07347,0.12857l0.14785,0.00821l0.30532,0.35621l0.347,0.07711l0.42864,0.21431l0.23246,0.19926l0.1868,0.01037l0.17925,0.20913l0.04444,0.00988l0.09346,0.04673l0.10449,0.02612l0.0209,0.03657l0.16549,0.08274l0.05735,-0.00395l0.71781,0.65256l0.73656,0.63134l0.00318,0.05739l0.03087,0.0463l0.33039,0.19823l0.5018,0.5018l0.2494,0.21377l0.66873,0.54334l0.06269,0.0836l0.08177,0.0701l0.00234,0.04205l0.49615,0.66153l0.04134,0.0982l0.07885,0.07167l0.13189,0.19783l0.0131,0.01191l0.73655,0.63134l0.00319,0.05739l0.06307,0.09461l0.18085,0.09043l0.23247,0.19926l0.1868,0.01037l0.37874,0.44187l0.07539,0.01885l0.84113,0.18691l0.09346,0.04673l0.10449,0.02612l0.0209,0.03657l0.13712,0.06856c0.58344,0.27658 1.0841,0.69933 1.4547,1.22094l0.08538,0.07318l0.00317,0.05716c0.2941,0.45304 0.49305,0.97356 0.56852,1.53324c2.46022,-1.39261 7.66698,5.88926 7.98091,6.36113c0,0 2.22466,-1.67288 3.10056,-1.70197c2.05221,-0.06814 4.43471,1.37984 4.38313,1.63329zM360.42876,144.62976l-0.09674,-0.38693l-0.04708,-0.05262l0.00799,-0.10377l-0.00982,-0.03928c-0.23755,0.20145 -0.47624,0.39569 -0.71621,0.58306c0.28728,-0.00015 0.57458,-0.0003 0.86186,-0.00045zM383.11174,143.37878l-0.48221,-0.56258l-0.17011,-0.08506l-0.45769,-0.39231l-0.51691,-0.31014l-0.42863,-0.42863l-0.19217,-0.32028l-0.27637,-0.25124l-0.13189,-0.19783l-0.0131,-0.01191l-0.73656,-0.63133l-0.00318,-0.0574l-0.34343,-0.51513l-0.25936,-0.34581l-0.40142,-0.24085l-0.31549,-0.31549l-0.51236,-0.46578l-0.19009,-0.16294l-0.56288,-0.14072l-0.07347,-0.12857l-0.14785,-0.00822l-0.31129,-0.36317l-0.00212,-0.00053l-0.42929,-0.22895l-0.37939,0.41733l-0.26824,0.50296l-0.25391,0.07141l-0.39449,0.43394l-0.0875,0.05833l-0.19824,0.33039l-0.64295,0.64295l-0.32028,0.19216l-0.25124,0.27638l-0.33399,0.22266l-0.16607,0.16606l-0.20092,0.12056l-0.18743,0.31237l0.25465,0.06366l0.14227,0.24897l0.14104,0.08463l0.09913,0.03304l0.20959,0.13338l0.02756,-0.00751l0.05597,0.03358l0.19808,0.04402l0.42863,0.21432l0.45769,0.3923l0.51691,0.31015l0.28749,0.28749l0.9719,0.83307l0.26918,0.17129l0.4717,0.16846l0.32377,0.21585l0.26057,-0.06515l0.41318,-0.2479l0.27664,0.07545l0.71773,-0.17943h2.92119l0.25623,-0.10249l0.07027,-0.03514l0.0209,-0.03657l0.10449,-0.02612l0.09346,-0.04673l0.65331,-0.14518z" data-paper-data="{&quot;origPos&quot;:null}" fill="#ffffff" stroke="none" stroke-width="0.5" stroke-linecap="butt"/><text transform="translate(344.86941,151.41217) scale(0.58854,0.58854)" font-size="40" xml:space="preserve" data-paper-data="{&quot;origPos&quot;:null}" fill="#000000" fill-rule="nonzero" stroke="none" stroke-width="1" stroke-linecap="butt" stroke-linejoin="miter" stroke-miterlimit="10" stroke-dasharray="" stroke-dashoffset="0" font-family="Handwriting" font-weight="normal" text-anchor="start" style="mix-blend-mode: normal"><tspan x="0" dy="0">Rain</tspan></text><path d="M416.2204,141.25957c0,-7.95609 7.56971,-14.30231 15.52579,-14.30231c0.04116,0 0.0643,0 0.10546,0c0.12347,-0.00001 183.79674,-0.00952 186.19213,-0.01017c9.28539,-0.0025 17.39642,4.40635 17.70678,13.89865c0.35811,10.95259 -6.31947,15.00508 -16.3814,14.99472c-4.20692,-0.00433 -182.61371,0.03178 -186.79533,-0.07167c-7.95365,-0.19678 -16.35343,-6.55313 -16.35343,-14.50922z" data-paper-data="{&quot;origPos&quot;:null}" fill="#f3f3f3" stroke="#d3d3d3" stroke-width="3.5" stroke-linecap="butt"/><path d="M434.12147,141.61639h185.1379" data-paper-data="{&quot;origPos&quot;:null}" fill="none" stroke="#9f9f9f" stroke-width="3.5" stroke-linecap="round"/></g></g></svg>