<svg version="1.1" xmlns="http://www.w3.org/2000/svg" xmlns:xlink="http://www.w3.org/1999/xlink" width="190.50227" height="77.11743" viewBox="0,0,190.50227,77.11743"><g transform="translate(-222.88628,-1.91549)"><g data-paper-data="{&quot;isPaintingLayer&quot;:true}" fill-rule="nonzero" stroke-linejoin="miter" stroke-miterlimit="10" stroke-dasharray="" stroke-dashoffset="0" style="mix-blend-mode: normal"><path d="M330.76084,38.80029c0,15.48943 -21.3755,28.04609 -47.74352,28.04609c-26.36802,0 -47.74352,-12.55666 -47.74352,-28.04608c0,-15.48943 21.3755,-28.04609 47.74352,-28.04609c26.36802,0 47.74352,12.55667 47.74352,28.04609z" data-paper-data="{&quot;origPos&quot;:null}" fill="#ffffff" stroke="#d3d3d3" stroke-width="3.5" stroke-linecap="butt"/><path d="M411.63856,53.07193c0,22.94011 -51.26441,17.5285 -102.38189,17.5285c-51.11748,0 -84.62038,-3.53264 -84.62038,-26.47275c0,-22.94011 42.95052,-24.58976 94.06799,-24.58976c51.11748,0 92.93428,10.59389 92.93428,33.534z" data-paper-data="{&quot;origPos&quot;:null}" fill="#ffffff" stroke="#d3d3d3" stroke-width="3.5" stroke-linecap="butt"/><path d="M342.05264,51.09027c-3.9876,15.04731 -30.22537,21.14911 -58.60369,13.62873c-28.37832,-7.52038 -48.1509,-25.81511 -44.1633,-40.86242c3.98761,-15.04731 30.22537,-21.1491 58.60369,-13.62872c28.37832,7.52038 48.1509,25.81511 44.1633,40.86242z" data-paper-data="{&quot;origPos&quot;:null,&quot;origRot&quot;:0}" fill="#ffffff" stroke="#d3d3d3" stroke-width="3.5" stroke-linecap="butt"/><path d="M384.68833,50.63472c-6.09071,12.25273 -31.20418,14.01717 -56.09249,3.94099c-24.88831,-10.07618 -40.12677,-28.17733 -34.03605,-40.43006c6.09071,-12.25273 31.20418,-14.01717 56.09249,-3.94099c24.88831,10.07618 40.12677,28.17734 34.03606,40.43006z" data-paper-data="{&quot;origPos&quot;:null,&quot;origRot&quot;:0}" fill="#ffffff" stroke="#d3d3d3" stroke-width="3.5" stroke-linecap="butt"/><path d="M377.9546,27.31109c17.15058,0 31.05388,7.62255 31.05388,17.02545c0,9.4029 -13.9033,17.02545 -31.05388,17.02545c-17.15058,0 -31.05388,-7.62255 -31.05388,-17.02545c0,-9.40289 13.9033,-17.02545 31.05388,-17.02545z" data-paper-data="{&quot;origPos&quot;:null}" fill="#ffffff" stroke="#d3d3d3" stroke-width="3.5" stroke-linecap="butt"/><path d="M303.17174,47.71275c-2.75368,-0.03883 -3.40389,-2.96478 -3.40389,-2.96478l2.74678,-1.73676c-0.39459,-0.12996 -0.78738,-0.25387 -1.17695,-0.37145c-0.46904,-0.12942 -0.90123,-0.34768 -1.27733,-0.63552c-0.89909,-0.6342 -1.89211,-1.8232 -1.3735,-3.84623c-4.60945,0.1671 -8.87287,-0.30978 -10.13481,-4.93028c-0.18557,-0.67947 -1.16073,-1.13932 -1.04838,-1.83466c0.90121,-5.57751 9.00415,-3.83011 12.46983,-3.97645c7.10239,-0.29991 13.32616,-1.67792 20.64811,-1.35869c2.63391,0.11483 5.80047,-0.01546 8.0881,1.52814c1.57049,1.05971 1.71994,1.85412 1.5968,3.58677c-0.31288,4.40263 -6.8516,4.12466 -10.41554,5.32547c-0.53611,0.18064 0.54431,0.99986 0.90471,1.43594c0.28082,0.33979 0.68143,0.56393 0.97854,0.88958c1.18449,1.29826 1.36218,3.68035 2.75031,4.75652c5.65456,4.38379 12.3861,6.93796 18.57898,10.24082l0.0615,0.00342c-0.28903,-1.13528 -0.61658,-2.39641 -0.63416,-2.73042c-0.17906,-3.40179 2.18192,-6.5389 1.96992,-9.70004c-0.10829,-1.61474 -1.20957,-3.34564 -0.83767,-5.01917c0.67904,-3.05571 4.02011,-5.93509 6.8782,-7.19627c1.02174,-0.45087 2.77831,0.60541 3.33041,-0.36537c0.28868,-0.5076 0.84116,-2.5271 1.17915,-2.72023l1.67985,-0.95991c-0.13957,-0.28372 -0.27612,-0.55988 -0.40972,-0.82709c-0.27436,-0.52112 -0.42963,-1.11469 -0.42963,-1.74453c0,-2.07107 1.67893,-3.75 3.75,-3.75c0.33335,0 0.65655,0.0435 0.96422,0.12512c0.39987,0.08606 0.78391,0.24385 1.13209,0.48041c0.09547,0.06486 0.19809,0.15436 0.30715,0.26583c0.43471,0.36335 0.78587,0.82332 1.02046,1.3469c1.80709,2.75261 4.37161,7.99573 6.09912,9.82757c0.37727,0.40005 3.08126,2.80348 3.26907,3.41612c1.51328,4.9364 -1.42527,8.00015 -6.5625,4.42935c-1.96049,-1.36271 -3.66554,-3.57294 -5.15266,-5.99731c-1.63343,3.77858 -4.38277,7.92343 -5.36358,10.29132c-0.59233,1.43001 -2.41146,7.67983 0.20509,8.42338c4.50346,1.27976 9.36356,-0.0152 14.0453,0c4.79517,0.01556 9.74494,0.82736 14.31991,2.23049c1.61237,0.49451 4.8748,2.41882 6.52525,2.07641c2.25485,-0.46781 4.27204,-3.8757 6.78933,-3.75454c0.75952,-0.4837 1.47039,-0.86688 1.93846,-1.06225c0.14143,-0.05903 2.90713,-0.81179 2.90894,-0.87371c0.04472,-1.53225 -4.41602,-7.69881 -1.7463,-9.22436l3.23181,-1.84675c0.94902,0.5423 2.2565,0.72853 2.98936,1.48554c0.11177,0.11545 0.21017,0.24417 0.29189,0.38946c0.0979,0.17405 0.17058,0.35814 0.22734,0.54838c0.15236,0.40275 0.23736,0.83858 0.24127,1.29377c0.06647,0.41616 0.15245,0.82188 0.34385,1.18123c2.02354,3.79921 4.1761,9.30096 -0.37861,12.39594c-1.42253,0.96662 -3.38454,0.88418 -4.96649,1.50351c-0.2777,0.10872 -0.56598,0.30009 -0.86174,0.53186c-0.38472,1.9606 -1.65501,3.86804 -3.45619,4.98456c-5.16716,3.20304 -13.72198,3.76068 -20.01944,3.79264c-10.71834,0.05439 -19.73969,-1.27481 -30.61007,-1.13224c-1.4389,0.01887 -3.29662,0.59718 -4.58148,-0.3959c-0.52517,-0.40591 -0.91309,-0.90443 -1.18216,-1.46283c-2.02638,1.42782 -4.26149,2.57544 -5.68246,3.42802c-1.94564,1.16738 -5.52558,0.66027 -7.63076,1.00189c-5.82919,0.94594 -11.63587,-0.00648 -17.41287,0.1462c-2.33148,0.06162 -5.74972,0.48095 -8.85595,0.44469c-0.53055,0.38418 -1.17583,0.62309 -2.15961,0.69866c-1.38534,0.10642 -4.08617,-0.21869 -6.23441,-1.10928c-1.80444,0.39187 -3.58423,0.45307 -5.48617,0.45307l0.07226,-0.58066c-1.38574,0.27103 -2.6553,-0.40607 -2.6553,-0.40607l0.00988,-0.02493c-2.21309,-0.22341 -4.33489,-0.68829 -6.1236,-1.57087c-2.36975,1.66176 -6.93862,0.97654 -9.49271,0.33801c-7.20402,-1.80101 -13.35548,-9.06705 -19.30159,-13.2429c-2.71539,-1.90697 -5.34504,-3.00472 -6.21379,-6.47973l-0.04113,-0.30798c-1.33505,0.34979 -3.24104,0.62682 -3.73801,-0.24288c-1.10528,-0.65232 -1.84674,-1.85547 -1.84674,-3.23181c0,-1.31576 0.67764,-2.47325 1.70295,-3.14251c0.37312,-0.5037 0.91582,-0.89644 1.76699,-1.32086c0.30224,-0.15071 0.61391,-0.2681 0.93222,-0.36258c2.52894,-2.03428 5.6047,-3.82357 8.46329,-5.1575c1.02114,-0.75315 2.02843,-1.12183 3.19481,-1.33846c0.10334,-0.03804 0.20585,-0.07522 0.30748,-0.11152c0.86711,-0.30968 1.84728,-0.37896 2.77689,-0.23534c0.02239,-0.00135 0.04483,-0.00252 0.06733,-0.00348c0.05406,-0.00231 0.10841,-0.00348 0.16304,-0.00348c2.07107,0 3.75,1.67893 3.75,3.75c0,1.22036 -0.58294,2.30456 -1.48554,2.98936c-0.11545,0.11176 -0.24417,0.21017 -0.38946,0.29189c-0.24633,0.13856 -0.51783,0.23871 -0.80448,0.31373c-0.10683,0.03176 -0.21564,0.0589 -0.32622,0.08116c-0.97485,0.58561 -2.14435,1.0991 -3.32653,1.57122c0.19461,0.36215 0.33145,0.75997 0.39817,1.18112c0.09292,0.08487 0.19666,0.15747 0.31437,0.21436c8.80574,4.25679 15.27882,10.79762 24.7967,13.91467c4.78964,1.56858 10.22937,1.11386 14.48424,3.98137h0.72781c0.65968,0 1.27958,0.17034 1.81811,0.46943c1.04108,-0.00754 2.08217,-0.01279 3.12327,-0.01618c3.1838,-0.37055 6.6122,-0.32603 8.06022,-0.92582c2.70666,-1.12114 7.30356,-3.68406 10.85341,-4.56078c-2.12793,-0.54768 -4.35237,-0.90832 -6.38721,-1.65119c-3.79451,-1.38529 -6.97653,-3.95197 -10.62717,-5.61075zM309.11537,37.45018c-0.11402,-0.09255 -0.27215,-0.14755 -0.46143,-0.17427c0.17298,0.07193 0.34555,0.14504 0.51759,0.21937c-0.01878,-0.01492 -0.0375,-0.02995 -0.05616,-0.0451z" fill="#ffffff" stroke="none" stroke-width="0.5" stroke-linecap="butt"/><text transform="translate(241.80148,59.44511) scale(1.18714,1.18714)" font-size="40" xml:space="preserve" data-paper-data="{&quot;origPos&quot;:null}" fill="#000000" fill-rule="nonzero" stroke="none" stroke-width="1" stroke-linecap="butt" stroke-linejoin="miter" stroke-miterlimit="10" stroke-dasharray="" stroke-dashoffset="0" font-family="Handwriting" font-weight="normal" text-anchor="start" style="mix-blend-mode: normal"><tspan x="0" dy="0">Options</tspan></text><path d="M281.0526,70.09202l30.24737,0.36738" data-paper-data="{&quot;origPos&quot;:null}" fill="none" stroke="#d3d3d3" stroke-width="3.5" stroke-linecap="round"/></g></g></svg>