<svg version="1.1" xmlns="http://www.w3.org/2000/svg" xmlns:xlink="http://www.w3.org/1999/xlink" width="523.20079" height="72.66047" viewBox="0,0,523.20079,72.66047"><g transform="translate(-58.39961,-142.11391)"><g data-paper-data="{&quot;isPaintingLayer&quot;:true}" fill-rule="nonzero" stroke-linecap="butt" stroke-linejoin="miter" stroke-miterlimit="10" stroke-dasharray="" stroke-dashoffset="0" style="mix-blend-mode: normal"><path d="M576.90949,169.14389c0,11.90439 -9.13615,21.55481 -20.40617,21.55481c-11.27002,0 -20.40617,-9.65042 -20.40617,-21.55481c0,-11.90439 9.13615,-21.55481 20.40617,-21.55481c11.27002,0 20.40617,9.65042 20.40617,21.55481z" data-paper-data="{&quot;origPos&quot;:null}" fill="#ffffff" stroke="#d3d3d3" stroke-width="3.5"/><path d="M218.41155,189.75976c0,9.84704 -18.73178,17.82964 -41.83862,17.82964c-23.10682,0 -41.83863,-7.98261 -41.83863,-17.82964c0,-9.84704 18.73179,-17.82964 41.83863,-17.82964c23.10682,0 41.83862,7.98261 41.83862,17.82964z" data-paper-data="{&quot;origPos&quot;:null}" fill="#ffffff" stroke="#d3d3d3" stroke-width="3.5"/><path d="M375.61679,199.92395c0,-7.23517 25.41615,-13.10044 56.76856,-13.10044c31.35241,0 56.76856,5.86527 56.76856,13.10044c0,7.23517 -25.41615,13.10043 -56.76856,13.10043c-31.35241,0 -56.76856,-5.86526 -56.76856,-13.10043z" data-paper-data="{&quot;origPos&quot;:null}" fill="#ffffff" stroke="#d3d3d3" stroke-width="3.5"/><path d="M391.99234,173.7773c0,11.15422 -14.41877,20.19651 -32.20524,20.19651c-17.78647,0 -32.20524,-9.04228 -32.20524,-20.19651c0,-11.15422 14.41877,-20.19651 32.20524,-20.19651c17.78647,0 32.20524,9.04228 32.20524,20.19651z" fill="#ffffff" stroke="#d3d3d3" stroke-width="3.5"/><path d="M275.18011,161.27693c0,9.61695 -12.46368,17.41303 -27.83842,17.41303c-15.37474,0 -27.83843,-7.79608 -27.83843,-17.41303c0,-9.61695 12.46369,-17.41302 27.83843,-17.41302c15.37474,0 27.83843,7.79607 27.83843,17.41302z" data-paper-data="{&quot;origPos&quot;:null}" fill="#ffffff" stroke="#d3d3d3" stroke-width="3.5"/><path d="M579.54574,177.9944c0.38208,8.56855 1.61681,17.02222 -6.27494,20.38164c-9.30245,3.95995 -325.91715,-0.97275 -337.29576,-0.51915c-32.75514,1.30576 -30.89199,-0.42713 -63.66981,0.05028c-30.47419,0.44386 -17.14113,0.93621 -47.61857,0.93621c-25.27699,0 -15.60958,0.46307 -42.2417,1.59642c-12.34009,0.52514 -21.46104,-11.9616 -21.46104,-23.7795c0,-15.69173 -5.23069,-22.07986 10.50212,-22.52204c0.23298,-0.00655 25.12662,4.2069 36.11542,4.18615c5.70112,-0.01076 23.24682,4.38141 28.94795,4.38141c0,0 16.82133,-0.37188 32.4369,-1.32267c24.93188,-1.51805 28.5529,-5.33749 53.52953,-5.60414c0.75348,-0.00804 35.37183,-1.68088 52.71035,-1.87363c17.44489,-0.19394 35.80897,9.14556 53.23881,8.39569c20.07859,-0.86382 31.75505,-0.27202 51.70689,-2.68461c31.46172,-3.80437 32.94341,-4.96259 60.18177,-5.91882c20.12567,-0.70654 27.2705,-1.02016 43.78388,0.11974c12.92347,0.8921 19.43043,8.62331 29.48649,4.64333c10.07457,-3.9873 7.55275,-3.49245 18.38055,-5.40816c8.38104,-1.48282 15.63699,4.85556 24.04934,3.56209c7.60199,-1.16887 23.26799,16.35983 23.49183,21.37975z" data-paper-data="{&quot;origPos&quot;:null}" fill="#ffffff" stroke="#d3d3d3" stroke-width="3.5"/><text transform="translate(65.11991,193.76699) scale(1.11723,1.11723)" font-size="40" xml:space="preserve" data-paper-data="{&quot;origPos&quot;:null}" fill="#000000" fill-rule="nonzero" stroke="none" stroke-width="1" stroke-linecap="butt" stroke-linejoin="miter" stroke-miterlimit="10" stroke-dasharray="" stroke-dashoffset="0" font-family="Handwriting" font-weight="normal" text-anchor="start" style="mix-blend-mode: normal"><tspan x="0" dy="0">There Will Come Soft Rains</tspan></text><path d="M273.17888,156.75655c-0.69702,2.40087 -3.25522,1.65246 -3.25522,1.65246l-1.17874,-0.42863c-0.96627,-0.37049 -1.68188,-1.2976 -2.68187,-1.56402c-0.16681,-0.04444 -0.33615,-0.08481 -0.5078,-0.12136l-1.26705,1.42544l-1.22197,-1.08621c-4.8877,0.03256 -9.99679,0.29046 -14.814,0.84635c-3.38114,0.39017 -6.38935,1.11811 -9.81834,0.6163c-1.26461,-0.21077 -2.87918,-0.57852 -4.53048,-0.78679c-1.95945,0.44373 -4.3826,1.05455 -5.8409,1.97626c-0.98587,0.62312 -2.37021,2.28352 -3.1848,1.44885l-1.23151,0.30788c-0.21047,0.05753 -0.43201,0.08824 -0.66073,0.08824c-1.38071,0 -2.5,-1.11929 -2.5,-2.5c0,-1.10109 0.71184,-2.03592 1.70042,-2.36941l1.15237,-0.41904c0.33598,-0.18872 3.52234,-2.69849 4.6131,-2.95881c2.27503,-0.54297 4.45398,-0.57185 6.64787,-0.3727c5.87151,-1.02712 11.7406,-0.88068 17.85474,-0.88068c4.18498,0 9.57868,-1.25798 13.60908,-0.21431c1.60475,0.41555 2.85318,1.36135 4.39058,1.86505l1.17874,0.42863c0,0 2.24353,0.64565 1.5465,3.04651z" fill="#ffffff" stroke="none" stroke-width="0.5"/><path d="M366.83559,157.72772l0.14789,-0.08883c1.0316,0.07935 1.91777,0.21949 2.7498,0.44083c3.1517,-0.72557 6.8547,0.21254 9.66605,1.49042l1.10866,0.8475c0,0 2.5,0 2.5,2.5c0,2.5 -2.5,2.5 -2.5,2.5l-3.17767,-1.29567c-1.21704,-0.5532 -1.99038,-0.76292 -3.07325,-0.92979c-0.74928,1.20657 -1.79092,1.26992 -2.51649,1.12057c-0.23774,-0.03913 -0.46418,-0.1118 -0.67429,-0.21299l-0.84297,-0.38317c-0.36277,0.29697 -0.73841,0.5726 -1.15489,0.77975c-1.61492,0.80324 -3.90912,0.76476 -5.68511,0.91039c-0.07735,0.00721 -0.15572,0.0109 -0.23495,0.0109c-0.24262,0 -0.47717,-0.03456 -0.699,-0.09903c-0.72578,-0.18083 -1.6453,-0.6964 -1.78733,-2.13791c-0.00006,-0.00061 -0.00013,-0.00121 -0.00019,-0.00182c-0.29295,0.03138 -0.50242,0.05499 -0.5624,0.06653c-3.46496,0.66641 -6.95186,0.9261 -10.30539,2.04394l-0.51992,-0.79269c-0.55804,0.63054 -1.34894,0.83867 -1.34894,0.83867l0.12577,-2.09353c-0.84462,0.16208 -1.66018,0.367 -2.43008,0.62601c-2.64237,0.88895 -4.93321,2.4 -7.38824,3.61344l0.05213,0.14335l-2.30304,0.83747c-0.28168,0.10996 -0.58819,0.17031 -0.90879,0.17031c-0.00915,0 -0.01829,-0.00005 -0.02742,-0.00015c-0.74137,0.02002 -1.76172,-0.22431 -2.28619,-1.5509c-0.02566,-0.0625 -0.04886,-0.12626 -0.06949,-0.19117c-0.44927,-1.35234 0.1748,-2.19453 0.75547,-2.65543c0.05426,-0.04658 0.11054,-0.09087 0.16869,-0.13273c0.41178,-0.55461 0.95851,-0.83579 0.95851,-0.83579l-0.07597,-0.25349c2.59384,-1.81569 5.03863,-3.03748 8.11407,-3.80634c0,0 0.63418,-0.15854 1.33503,0.0108c4.62912,-1.41323 9.94122,-1.58565 14.70208,-1.58565c1.2859,0 2.5718,0 3.85769,0h2.5718c0.16929,0 0.33466,0.01683 0.49451,0.0489c0.67679,-0.12045 1.26387,0.04729 1.26387,0.04729z" fill="#ffffff" stroke="none" stroke-width="0.5"/><path d="M563.68932,163.37237c-0.03192,0.21262 -0.09291,0.43997 -0.18929,0.68258c-0.92299,2.32338 -3.24637,1.40039 -3.24637,1.40039l-0.04832,-3.5862c-0.22128,0.081 -0.44631,0.15091 -0.67653,0.20547c-1.2081,0.28634 -2.74894,-1.07103 -3.64356,-2.46896c-0.56463,0.31899 -1.12627,0.64842 -1.70983,0.91823c-3.82783,1.76977 -6.30128,1.91602 -8.63196,-1.06683c-0.60531,0.03297 -1.30586,-0.17032 -1.94335,-0.95285c-0.01605,-0.01951 -0.03181,-0.03926 -0.04728,-0.05926c-0.90007,-1.15211 -0.58153,-2.16525 -0.17583,-2.79696c0.15876,-0.269 0.36646,-0.50568 0.61085,-0.69779l2.12513,-1.7001l0.03939,0.04924c1.89504,-1.35268 3.81048,-2.41992 6.11356,-3.03526l-0.0155,-0.10848l2.95785,-0.42255c0.12902,-0.02054 0.26133,-0.03121 0.39613,-0.03121c1.38071,0 2.5,1.11929 2.5,2.5c0,0.30178 -0.05347,0.59107 -0.15145,0.85891l1.41396,-0.30299l0.00536,0.02503c0.8252,-0.1401 1.73316,-0.24399 2.01867,-0.08052c1.53156,0.87684 2.61924,1.69867 3.21881,2.55367c0.97599,0.13242 1.80999,0.43545 1.97124,1.13932c0.98717,4.30925 -0.31249,5.13861 -2.2847,7.95605z" fill="#ffffff" stroke="none" stroke-width="0.5"/><path d="M449.91577,205.69336c-1.62698,1.89814 -3.52512,0.27116 -3.52512,0.27116l0.8182,-0.07016c-4.44732,-0.6842 -8.61057,-2.66017 -12.93679,-3.79571c-0.77361,0.07729 -1.55074,0.1401 -2.33486,0.17277c-5.01223,0.20882 -9.99359,-0.09611 -15.00214,0.32147c-6.86605,0.57217 -13.89296,-0.09852 -20.78198,-0.09852h-1.2859c-1.38071,0 -2.5,-1.11929 -2.5,-2.5c0,-0.93821 0.51682,-1.75571 1.28129,-2.18334l1.24493,-0.72621c0.10339,-0.48534 0.81879,-0.58262 1.2859,-0.75011c1.81882,-0.65214 3.75124,-0.75381 5.65316,-0.76919c7.47353,-0.06044 15.63803,-0.48957 23.02137,0.67696c2.64377,0.44063 5.26738,-0.02042 7.91073,0.57642c0.40308,0.09101 0.80446,0.18825 1.20444,0.29057c2.6768,-0.2634 5.31904,-0.68669 8.04777,-0.68669c0,0 2.5,0 2.5,2.5c0,0.51153 -0.10467,0.9184 -0.27117,1.24202c1.22706,0.32032 2.46533,0.59413 3.72353,0.7877l1.67547,1.21574c0,0 1.89814,1.62698 0.27116,3.52512z" fill="#ffffff" stroke="none" stroke-width="0.5"/><path d="M161.63394,194.94912c2.02715,-1.14029 4.64366,-0.14356 6.70714,0.18682c3.57491,0.57239 7.93673,-0.28215 11.70104,0.09059c0.88291,0.08743 1.95503,0.10271 2.99583,0.2352c3.58716,-0.22504 7.17722,-0.39764 10.7508,-0.35787c1.61582,0.01798 5.55325,-0.11019 7.98309,0.63305c1.30797,-1.02879 2.82663,-1.86526 3.7819,-2.18369l0.08529,-0.04264c0.12759,-0.06718 0.2617,-0.12364 0.40113,-0.16821c1.77062,-1.11211 3.80649,-1.62591 5.04832,-0.38408c1.31501,1.31501 2.0279,3.86803 -0.49006,4.49752l-0.10263,0.11973c-0.06472,1.16501 -3.06469,2.73559 -5.35685,2.58045c-1.45561,0.84042 -2.95903,1.40937 -3.82657,1.12019c-0.8466,-0.2822 -1.39926,-0.63677 -1.71838,-1.03829c-2.41647,0.76668 -5.14578,1.19266 -6.05361,0.80348c-1.96218,-0.84116 -4.12469,-1.24891 -6.40313,-1.38681c-0.12625,2.73604 -1.842,3.06637 -3.74257,3.41842c-2.18394,0.40454 -13.51012,-0.24704 -15.96311,-0.54901c-0.3135,-0.03859 -2.37709,-0.27009 -3.9623,-0.54381c-0.53355,-0.00553 -1.04039,-0.12248 -1.49837,-0.3287c-0.35914,-0.16171 -0.68824,-0.37832 -0.97659,-0.63912c-1.37871,-0.11284 -2.76045,-0.23975 -4.11014,-0.38583c-0.27881,0.56643 -0.98782,1.08491 -2.28478,1.51723c-0.39388,0.13129 -1.2364,-0.1714 -2.2345,-0.67521c-0.00347,0.00266 -0.00694,0.00531 -0.01042,0.00795c-0.07697,0.07451 -0.16278,0.14011 -0.25964,0.19459l0.00001,0c-0.06797,0.03823 -0.14516,0.07013 -0.23086,0.09602c-0.31125,0.13912 -0.65616,0.21648 -1.01914,0.21648c-0.44162,0 -0.85649,-0.11451 -1.21655,-0.31545c-3.6183,-0.75295 -9.4511,-3.59774 -9.52521,-4.93181c-0.08999,-1.61985 1.42552,-2.16365 3.41029,-2.12954c0.36056,-0.39039 0.844,-0.66559 1.3889,-0.76419c0.09689,-0.03131 0.19936,-0.05052 0.30832,-0.05562c0.4964,-0.02324 1.31148,0.17167 2.23581,0.51163l1.37416,-0.78523c0.40943,0.23396 1.17696,0.62462 2.08433,1.11909c0.73137,0.39856 1.55361,0.86456 2.3524,1.37031c0.43848,-0.37986 1.01047,-0.6097 1.63614,-0.6097c0.09711,0 0.19293,0.00554 0.28716,0.01631c1.63811,-0.52979 3.52065,-0.0622 5.49686,0.36221c0.1701,-0.19572 0.36017,-0.37363 0.56702,-0.53057c0.11545,-0.11177 0.24417,-0.21017 0.38946,-0.29189z" fill="#ffffff" stroke="none" stroke-width="0.5"/></g></g></svg>