<svg version="1.1" xmlns="http://www.w3.org/2000/svg" xmlns:xlink="http://www.w3.org/1999/xlink" width="141.22768" height="47.8228" viewBox="0,0,141.22768,47.8228"><g transform="translate(-249.38616,-74.94413)"><g data-paper-data="{&quot;isPaintingLayer&quot;:true}" fill-rule="nonzero" stroke-linecap="butt" stroke-linejoin="miter" stroke-miterlimit="10" stroke-dasharray="" stroke-dashoffset="0" style="mix-blend-mode: normal"><path d="M388.86383,108.56614c0,10.62349 -31.80242,8.84553 -71.44162,8.84553c-39.6392,0 -66.28605,1.23187 -66.28605,-9.39163c0,-10.62349 26.31533,-18.68945 65.95454,-18.68945c39.6392,0 71.77314,8.61204 71.77314,19.23553z" data-paper-data="{&quot;origPos&quot;:null}" fill="#ffffff" stroke="#d3d3d3" stroke-width="3.5"/><path d="M303.70631,99.15898c0,6.97894 -9.92599,12.63647 -22.17033,12.63647c-12.24433,0 -22.17033,-5.65753 -22.17033,-12.63647c0,-6.97894 9.92599,-12.63649 22.17033,-12.63649c12.24433,0 22.17033,5.65754 22.17033,12.63649z" data-paper-data="{&quot;origPos&quot;:null}" fill="#ffffff" stroke="#d3d3d3" stroke-width="3.5"/><path d="M267.92585,94.52561c0,-9.84806 14.73791,-17.83148 32.91803,-17.83148c18.18012,0 32.91803,7.98343 32.91803,17.83148c0,9.84804 -14.73791,17.83148 -32.91803,17.83148c-18.18012,0 -32.91803,-7.98342 -32.91803,-17.83148z" data-paper-data="{&quot;origPos&quot;:null}" fill="#ffffff" stroke="#d3d3d3" stroke-width="3.5"/><path d="M308.66902,94.00842c0,-6.35858 12.0146,-11.51324 26.83536,-11.51324c14.82077,0 26.83536,5.15465 26.83536,11.51323c0,6.35858 -12.0146,11.51323 -26.83536,11.51323c-14.82077,0 -26.83536,-5.15465 -26.83536,-11.51323z" data-paper-data="{&quot;origPos&quot;:null}" fill="#ffffff" stroke="#d3d3d3" stroke-width="3.5"/><path d="M335.35069,102.83053c0,-5.56238 10.63538,-10.07158 23.75479,-10.07158c13.11941,0 23.75479,4.5092 23.75479,10.07158c0,5.56238 -10.63538,10.07158 -23.75479,10.07158c-13.11941,0 -23.75479,-4.5092 -23.75479,-10.07158z" data-paper-data="{&quot;origPos&quot;:null}" fill="#ffffff" stroke="#d3d3d3" stroke-width="3.5"/><path d="M307.95377,86.59721c-0.37742,-0.48234 -0.68051,-0.88789 -0.68051,-0.88789l1.09217,0.40956c1.64558,0.72245 2.98178,1.77681 4.3514,2.79917c0.57073,0.02357 1.11706,0.07264 1.6095,0.17064c5.60089,1.11466 10.98028,3.71811 16.82571,4.35673c-1.10501,0.82959 -0.93828,2.13813 -0.93828,2.13813c0.08691,0.6821 0.194,1.36599 0.32466,2.04765c1.59561,-2.3104 4.54782,-3.53011 7.22013,-3.92088c0.23363,-0.03416 0.48446,-0.11093 0.73943,-0.19518c0.95558,-1.05619 1.9751,-1.95671 3.63272,-2.75451c2.03977,-0.7649 4.64271,-1.98007 6.87216,-1.43509c2.35498,0.57566 3.93357,1.82417 5.85966,2.97347l1.701,0.97199c1.00587,0.55032 1.68801,1.61841 1.68801,2.84582c0,1.39147 -0.8767,2.57819 -2.10787,3.0379l-0.35422,0.14168c-0.0493,0.92088 -0.48292,1.73966 -1.14333,2.2989l-1.72103,1.47518c1.05331,0.04149 2.36047,-0.09276 3.17693,-0.09276c4.01941,0 8.01068,-0.22752 12.01393,-0.27304c2.67086,0 5.128,0.86308 7.70388,1.11037l0.94935,-1.66136l0.56893,0.32511c1.09964,-0.64866 2.18533,-1.32912 3.3839,-1.75207c0.95124,-0.33568 1.67365,0.32236 2.25119,1.33736c2.06281,0.58039 4.08152,3.70314 3.1288,5.52056c-2.63356,5.02388 -7.93722,5.85375 -13.17896,6.31191c-0.47598,0.39751 -1.06771,0.66105 -1.71725,0.7327l-2.14168,0.26772l-0.0045,-0.03607c-0.98978,0.07464 -1.97034,0.10603 -2.94482,0.10395c-0.47553,0.07337 -0.94961,0.14644 -1.41938,0.20516c-5.70154,0.7127 -12.37076,1.74966 -17.92294,-0.04485c-1.38159,-0.5181 -2.70422,-1.30223 -3.99348,-2.16359c-0.34924,0.01418 -0.62655,0.03284 -0.68714,0.02931c-1.88267,-0.10988 -3.81729,-0.45225 -5.60034,-1.07871c-0.89484,-0.3144 -2.89724,-1.40157 -3.43305,-1.76226c-0.26239,-0.17664 -0.58745,-0.55653 -0.90004,-0.9209l-0.68192,0.07577c-0.45317,0.77117 -1.78441,0.14937 -2.67886,0.15635c-0.10745,0.00084 -0.21529,0.00122 -0.32347,0.00116c-0.51123,0.88456 -1.05828,1.75203 -1.74912,2.49742c-0.78281,0.84463 -3.12921,1.23301 -4.24032,1.50029c-4.6916,1.12854 -9.58769,0.21257 -14.19827,1.36522c-6.84572,1.34783 -14.99358,0.72927 -21.78741,-0.83254c-0.35041,0.63459 -0.67737,1.15938 -0.84231,1.47541c-0.09752,0.18688 -2.98007,0 -3.27652,0c-3.57997,0 -6.88442,-0.11592 -10.39627,-0.89633c-0.99013,-0.36903 -2.06618,-0.15556 -3.1119,-0.22089c-2.25298,-0.14074 -4.3087,-0.67895 -6.55304,-0.81914c-2.41904,-0.1511 -4.16909,-1.61327 -6.424,-1.88627c-0.96141,-0.1164 4.90357,-0.32886 8.25766,-0.45165c-0.0382,-0.09009 -0.07392,-0.18453 -0.10688,-0.28355c-0.48312,-0.26035 -1.28688,-1.17192 -2.12508,-2.15719l-0.02342,-0.00142l-0.11215,-0.04694l-0.74107,-0.1454h-0.08775l-0.07365,-0.0578l-0.44685,-0.21041l-0.39566,-0.26616l-0.64686,-0.25384l-0.43963,-0.20701l-0.39566,-0.26614l-0.18135,-0.07117l-0.01807,-0.0248l-0.09033,-0.01772l-0.08079,-0.0317l-0.17123,-0.02987l-0.04839,-0.02278l-0.03694,0.00791l-0.05116,-0.00892l0.28691,-0.11259l0.33724,-0.08822l0.08225,-0.04107l0.09658,-0.01034l0.92634,-0.2908l0.11152,-0.0632l0.13429,-0.02342l0.04526,-0.01776c-0.34408,-0.34728 -0.63726,-0.59287 -0.84453,-0.66613c-1.66607,-0.58887 4.853,-2.50477 8.1539,-3.62002c0.26878,0.30609 0.62791,0.6442 1.05725,1.0062l-0.35657,1.41619l0.54454,-0.10684l0.05207,-0.02179l0.08222,0.03226l0.41685,0.38168l0.16148,0.00703l0.20095,0.13519l0.00506,0.00198l0.00683,0.00893l-0.00206,0.02336l0.05856,0.05056l0.01543,0.02019l0.08746,0.06864l0.14435,0.12462c0.2691,-0.14969 0.53331,-0.30635 0.79419,-0.46823c-0.84126,-0.59074 -1.59798,-1.15662 -2.21138,-1.67379l0.3867,-1.53584c-0.31736,0.13889 -0.82388,0.32013 -1.44395,0.52963c-0.29989,-0.34152 -0.48728,-0.64317 -0.53422,-0.89359c-0.11982,-0.63939 -0.16436,-1.2909 -0.2471,-1.93626c-1.60717,-0.19197 -2.85317,-1.5598 -2.85317,-3.21867c0,-1.68267 1.28204,-3.0659 2.92259,-3.2262l1.18983,-0.13221c0.1226,-0.39342 0.81732,-0.11251 1.2287,-0.13652c1.51416,-0.08837 2.50859,-0.11115 3.94045,-0.46912l0.57155,0.31427c0,0 2.83066,-1.57991 4.41056,1.25075c1.57991,2.83066 -1.25076,4.41056 -1.25076,4.41056l-2.15889,0.31426c-0.53097,0.13274 -1.04514,0.23437 -1.55389,0.31446c0.0219,0.37767 0.04613,0.70859 0.08998,0.94223c0.19255,1.02613 0.52169,1.95268 1.02627,2.77586c0.78327,-0.51164 1.60107,-0.99736 2.49498,-1.41036c4.16401,-1.92386 9.21101,-1.36357 13.67557,-1.36357c3.47831,0 6.91723,-0.85065 10.38314,-1.06715c1.42316,-0.08889 2.9182,0.04241 4.4001,0.10941c-0.60567,-1.94454 -0.68409,-3.83113 -0.84121,-5.80711l-0.8073,-0.8073c-0.58663,-0.58664 -0.94947,-1.39707 -0.94947,-2.29223c0,-1.79034 1.45136,-3.24171 3.24171,-3.24171c0.63026,0 1.21851,0.17986 1.71622,0.49106c0.2155,-0.23957 0.43371,-0.41307 0.64861,-0.48894zM314.49562,90.16871c0.38443,0.06935 0.77838,0.13451 1.1783,0.19841c-0.72062,-0.27257 -1.43623,-0.55833 -2.14475,-0.85393c0.31568,0.2252 0.63651,0.4451 0.96646,0.65553zM308.59241,105.09245c-2.31974,0.41308 -4.89146,-0.17214 -7.24314,-0.02503c-3.73745,0.23379 -7.43199,1.11721 -11.18731,1.11721c-2.17196,0 -4.3393,-0.03544 -6.5055,0.05557c0.74794,0.27365 1.44175,0.63288 2.15968,1.12877c0.66173,-0.05355 1.17292,0.07425 1.17292,0.07425c1.62152,0.40538 3.25481,1.12962 4.88062,1.43478c2.47779,0.46508 6.32732,-0.16635 9.0775,-0.16635c1.4934,0 4.48685,0.56112 5.76682,-0.17625c3.72679,-0.93169 7.53404,-0.41941 11.3059,-0.89089c0.08709,-0.01089 0.17413,-0.02166 0.26114,-0.03244c-0.33984,-0.45472 -0.56309,-1.00163 -0.62552,-1.59642c-0.968,-0.10898 -1.9428,-0.16069 -2.91214,-0.40214c-1.1954,-0.29776 -2.25364,-0.75048 -3.25742,-1.30235c-0.96414,0.33556 -1.93209,0.61008 -2.89355,0.7813zM313.01363,96.75685c-0.44972,-0.23476 -0.88663,-0.47435 -1.31393,-0.7255c-0.22322,-0.05128 -0.4456,-0.10469 -0.6669,-0.1607c0.46579,0.41762 0.96898,0.77333 1.48525,1.13675c0.16609,-0.08349 0.33157,-0.16727 0.49557,-0.25053zM282.10254,112.60295c-0.08564,-0.09736 -0.20555,-0.21016 -0.35585,-0.33683c0.07096,0.19494 0.18579,0.31382 0.35585,0.33683zM324.6752,101.1945c-0.22302,-0.20509 -0.45145,-0.4083 -0.65388,-0.58587c-0.30397,-0.08888 -0.6078,-0.17804 -0.91152,-0.26742c-0.41557,-0.11506 -0.84781,-0.21985 -1.29038,-0.31972c0.76257,0.25927 1.79536,0.6524 2.8558,1.173zM345.26124,106.5838c0.53796,0.06002 1.04596,0.14092 1.50466,0.26c-0.85903,-1.53986 -1.57107,-3.17955 -2.01723,-4.88131c-0.70519,0.08374 -2.46918,0.27738 -2.57191,0.12648h-0.48476c-0.26396,0.46159 -0.61525,0.9381 -1.0776,1.52674c0.54107,0.26076 1.0873,0.51216 1.59608,0.82949c1.01953,0.6359 2.02656,1.40438 3.05074,2.1386z" data-paper-data="{&quot;origPos&quot;:null}" fill="#ffffff" stroke="none" stroke-width="0.5"/><text transform="translate(272.8237,110.6564) scale(0.73397,0.73397)" font-size="40" xml:space="preserve" data-paper-data="{&quot;origPos&quot;:null}" fill="#000000" fill-rule="nonzero" stroke="none" stroke-width="1" stroke-linecap="butt" stroke-linejoin="miter" stroke-miterlimit="10" stroke-dasharray="" stroke-dashoffset="0" font-family="Handwriting" font-weight="normal" text-anchor="start" style="mix-blend-mode: normal"><tspan x="0" dy="0">Volume</tspan></text></g></g></svg>