<svg version="1.1" xmlns="http://www.w3.org/2000/svg" xmlns:xlink="http://www.w3.org/1999/xlink" width="203.18688" height="67.96718" viewBox="0,0,203.18688,67.96718"><g transform="translate(-94.05624,-0.21841)"><g data-paper-data="{&quot;isPaintingLayer&quot;:true}" fill-rule="nonzero" stroke-linecap="butt" stroke-linejoin="miter" stroke-miterlimit="10" stroke-dasharray="" stroke-dashoffset="0" style="mix-blend-mode: normal"><path d="M289.10976,53.11129c-27.34695,19.16107 -129.0962,13.566 -162.22908,8.20151c-6.32997,-1.02487 -18.68721,-3.29116 -24.33742,-6.32333c-5.65005,-3.03207 -8.94335,-9.32952 -5.02933,-14.40857c14.80099,-19.20657 204.06253,3.79539 191.59583,12.53038z" data-paper-data="{&quot;origPos&quot;:null}" fill="#ffffff" stroke="#d3d3d3" stroke-width="3.5"/><path d="M189.85512,39.19531c0,7.77263 -17.48008,14.07359 -39.04286,14.07359c-14.25787,0 -41.51464,-3.2732 -45.99429,-6.50306c-4.11439,-2.9665 -2.61796,-11.38918 0.97482,-14.93299c6.71307,-6.62156 13.29995,-8.04088 26.3411,-9.21266c13.04115,-1.17178 8.21153,2.50156 18.6784,2.50156c21.56278,0 39.04286,6.30096 39.04286,14.07359z" data-paper-data="{&quot;origPos&quot;:null}" fill="#ffffff" stroke="#d3d3d3" stroke-width="3.5"/><path d="M184.40728,28.75361c0,7.77263 -11.17913,14.07359 -24.96927,14.07359c-13.79014,0 -24.96927,-6.30096 -24.96927,-14.07359c0,-7.77263 11.17913,-14.07359 24.96927,-14.07359c13.79014,0 24.96927,6.30096 24.96927,14.07359z" data-paper-data="{&quot;origPos&quot;:null}" fill="#ffffff" stroke="#d3d3d3" stroke-width="3.5"/><path d="M228.89798,24.66773c0,11.53358 -17.88659,20.88339 -39.95082,20.88339c-22.06423,0 -39.95082,-9.34982 -39.95082,-20.88339c0,-11.53358 17.88659,-20.88339 39.95082,-20.88339c22.06423,0 39.95082,9.34982 39.95082,20.88339z" data-paper-data="{&quot;origPos&quot;:null}" fill="#ffffff" stroke="#d3d3d3" stroke-width="3.5"/><path d="M227.76303,1.96841c22.94178,0 41.53978,10.56935 41.53978,23.6073c0,13.03794 -18.598,23.6073 -41.53978,23.6073c-22.94178,0 -41.53978,-10.56935 -41.53978,-23.6073c0,-13.03794 18.598,-23.6073 41.53978,-23.6073z" data-paper-data="{&quot;origPos&quot;:null}" fill="#ffffff" stroke="#d3d3d3" stroke-width="3.5"/><path d="M261.67109,25.57572c18.67939,0 33.82202,7.82538 33.82202,17.47849c0,9.6531 -15.14263,17.47849 -33.82202,17.47849c-18.67939,0 -33.82202,-7.82538 -33.82202,-17.47849c0,-9.6531 15.14263,-17.47849 33.82202,-17.47849z" data-paper-data="{&quot;origPos&quot;:null}" fill="#ffffff" stroke="#d3d3d3" stroke-width="3.5"/><path d="M186.72838,38.62936c-0.45502,-0.45502 -0.75449,-1.34984 -0.97688,-2.40294c-0.18941,-0.2524 -1.45201,-2.14175 -1.64651,-2.77098c-0.5984,-1.93599 -0.46459,-3.68423 -0.6125,-5.6512c-0.21754,-2.89331 -0.56973,-5.54652 0.14555,-8.41023c0.44512,-1.33537 1.93081,-4.10646 3.1483,-5.05915c1.44893,-1.1338 2.37488,-1.39451 3.35888,-2.05411c0.17086,-0.31732 0.35491,-0.62678 0.55832,-0.92392c0.21254,-0.31046 0.61236,-0.81255 0.93917,-0.62611l0.90691,-0.6046c0.45651,-0.31405 1.00957,-0.49786 1.60556,-0.49786c1.56644,0 2.83628,1.26984 2.83628,2.83628c0,0.78321 -0.31745,1.49229 -0.83073,2.00555l-1.35724,1.35724c0.26628,0.69432 -0.4218,1.58347 -0.48465,2.37245c-0.2109,2.64714 -1.00794,5.48138 0.10064,8.05002c0.24292,0.56282 1.7604,1.90873 2.26352,2.60013c1.33056,1.82849 2.33314,3.69227 3.01684,5.84499c0.27138,0.9498 0.24996,2.43958 0.69666,3.28694c0.51425,0.9755 2.43266,2.23902 3.3569,3.2604c1.28427,1.41926 2.08053,3.3583 4.19244,3.74763c0.0983,0.01813 -0.11335,-0.2759 -0.0162,-0.29943c0.81135,-0.19655 1.66963,0 2.50445,0c2.47997,0 4.98757,0.1623 7.44486,0.49809c2.36779,0.33827 4.33399,1.38024 6.64263,1.38024c0.11285,0 0.2257,0 0.33856,0c-0.0603,-0.66055 -0.08315,-1.33023 -0.04428,-1.85955c0.06836,-0.93107 0.00933,-3.18114 0.31305,-4.06972c0.5381,-1.57431 1.55033,-2.3816 2.02124,-3.77287c0.15295,-0.30588 0.32495,-0.59011 0.51361,-0.8553c-0.5417,-0.35929 -1.06374,-0.74656 -1.55708,-1.16665c-0.24165,-0.20575 -0.16662,-0.62195 -0.15653,-0.93917c0.09912,-3.1141 0.50832,-4.32301 3.33715,-6.06499c1.70355,-1.04904 6.13665,-1.22056 8.0133,-1.29565c0.57584,-0.02305 1.31237,-0.24905 1.72181,0.15653l0.65943,0.05994c0.27042,-0.16037 0.53968,-0.32047 0.80715,-0.48054c1.51223,-0.86412 3.59915,-1.84461 5.36263,-2.10648c1.88474,-0.27987 4.05383,0.10335 6.01978,-0.14817c0.45348,-0.235 0.9363,-0.64826 1.26242,-0.34736l1.50212,-0.45064c0.2765,-0.08995 0.57164,-0.13856 0.87814,-0.13856c1.56644,0 2.83628,1.26984 2.83628,2.83628c0,1.27587 -0.84243,2.35498 -2.00141,2.71142l-1.6028,0.53427c-0.1728,0.45742 -1.03993,0.28326 -1.54762,0.41015c-0.60237,0.15057 -1.21564,0.25362 -1.82404,0.37759c-3.44288,0.70157 -5.98123,1.5174 -8.25541,4.23324c-1.28753,1.53757 -2.28365,3.52477 -3.40229,5.20273c-0.29492,0.44239 -2.64198,3.23437 -1.5971,2.3366c-0.38726,2.32362 -1.45053,4.74578 -2.1054,7.04359c-0.19182,0.6731 -0.49221,1.31456 -0.84703,1.92436c0.07865,0.25748 0.14702,0.57703 0.26939,0.74163c0.29252,0.39342 0.66975,0.74767 1.10825,0.96691c0.24509,0.12254 -0.71925,-0.47026 -0.50875,-0.6457c0.77404,-0.64511 1.96945,0.45913 2.90754,0.82693c1.68272,0.65976 4.02231,0.15561 6.19728,0.69886c0.87024,0.29008 1.13058,1.13157 1.14799,2.15643c1.5141,0.30976 2.71606,1.10443 4.2324,1.44106c0.11249,0.02497 -0.28234,-0.26387 -0.17273,-0.29943c1.54946,-0.50268 3.84235,0.12301 5.47848,0c1.71173,-0.12869 3.46181,-0.65648 5.16871,-0.90058c0.9709,-0.13884 2.11893,-0.08941 3.01298,-0.51914c2.2576,-0.75254 4.3003,-1.43344 6.57416,-2.19138l1.58952,-0.74614c0,0 2.81076,0.37956 2.43122,3.19033c-0.37956,2.81076 -3.19033,2.43122 -3.19033,2.43122l0.96341,0.50608c-2.20839,0.73612 -4.38354,1.46118 -6.57416,2.19138c-5.79103,1.70383 -13.29233,2.63442 -18.8943,0.73307c-0.84542,-0.28694 -2.07757,0.39848 -2.66428,-0.27446h-1.25222c-1.45331,0 -2.65131,-1.09304 -2.81678,-2.50189c-0.06518,0.00082 -0.11842,0.00014 -0.15726,-0.00254c-2.17526,-0.15076 -5.54664,-1.11426 -7.48403,-2.08296c-2.00843,-1.00421 -2.77562,-3.35634 -2.9818,-5.512c-0.19471,0.45553 -0.41005,0.90122 -0.64764,1.33384c-0.10732,0.19542 -2.98209,0 -3.28709,0c-3.12652,0 -5.5711,-1.01305 -8.54055,-1.43726c-3.82376,-0.58142 -7.90235,0.09642 -11.66772,-0.74051c-1.83611,-0.40812 -3.03164,-1.75945 -4.11843,-3.09083c-0.25732,0.11877 -0.53548,0.20014 -0.82748,0.23711l-2.15011,0.30716l-0.00528,-0.03698c-1.81766,0.17017 -3.67432,0.2094 -5.52163,0.09866c-2.29308,0.46673 -4.43466,1.29576 -6.74093,1.73333c0.00868,0.08151 0.01777,0.16294 0.02735,0.24429l-1.83992,0.68998c-1.15735,0.48451 -2.18098,1.19098 -3.38551,1.64341c-0.86353,0.32436 -2.20278,0.11012 -2.95453,0.36527c-2.13118,0.72333 -3.83707,2.22759 -6.12408,2.60876c-0.30143,-0.22948 -0.72368,0.22652 -1.07619,0.36527c-1.89732,0.7468 -3.03265,0.58115 -4.87186,0.88695c-6.04478,1.00505 -12.03931,0.82124 -18.15391,0.82124c-1.38656,0 -2.80938,0.06948 -4.184,-0.14555c-1.46767,-0.22958 -2.90723,-1.14989 -4.2873,-1.70383c-0.20751,0.93477 -0.44843,1.86594 -0.6203,2.80458h-2.26944v-0.02243c-2.23687,-0.08582 -4.38899,-0.3985 -6.602,-0.59652c-3.02172,-0.27037 -5.47044,0.56552 -8.44782,-0.68282c-0.62208,-0.26082 -1.13725,-0.74533 -1.58008,-1.31808c-0.43263,0.2672 -0.94247,0.42139 -1.48831,0.42139c-1.31684,0 -2.42408,-0.8974 -2.7435,-2.11402c-1.27958,-0.00414 -2.60064,-0.52173 -3.53871,-1.4598c-1.49666,-1.49666 1.25061,-8.20084 3.69347,-7.53461c0.30041,-0.07755 0.61541,-0.11879 0.94005,-0.11879c0.18043,0 0.35789,0.01274 0.53152,0.03738c-0.00987,-1.96654 0.11664,-3.80939 0.11334,-4.83242c-0.00292,-0.90301 0.81605,-3.99997 2.04891,-4.06845c0.58697,-0.38104 1.28722,-0.60236 2.03915,-0.60236c2.07107,0 3.75,1.67893 3.75,3.75c0,0.55597 -0.12098,1.08366 -0.33807,1.55822c-0.18449,4.17574 -0.39793,4.29378 0.09621,6.49607c0.13799,0.61501 0.13982,1.21863 0.03563,1.7892c0.03939,0.02722 0.07837,0.05589 0.11681,0.0861l0.04802,-0.17768c0.03965,0.01586 0.0818,0.0335 0.12614,0.05267c0.14724,-0.41083 0.306,-0.81699 0.47366,-1.21761c0.13512,-0.32287 0.62611,-0.31305 0.93917,-0.46958c1.71844,-0.85922 3.33315,-1.53953 5.18507,-2.06864l-0.04208,0.47885c0,0 1.93524,-2.07348 4.00873,-0.13823c1.9488,1.81888 0.35647,3.75988 0.15793,3.98671c0.3905,-0.02981 0.78601,-0.0492 1.19392,-0.05369c2.98398,-0.03281 5.39206,1.9157 8.25372,2.33693c0.4147,0.06105 1.86017,-0.14555 2.39017,-0.14555c4.18613,0 8.50626,0.31371 12.67875,0c1.82583,-0.13727 3.64835,-0.75754 5.48177,-0.90058c0.88331,-0.06891 1.79275,0.15342 2.65768,-0.03859c0.12061,-0.02677 -0.4145,-0.08074 -0.32925,-0.17015c0.47386,-0.49702 2.30272,-0.79641 2.68048,-0.88695c1.30211,-0.21702 2.37002,-1.06355 3.54926,-1.67033c-0.35493,-0.22233 -0.71516,-0.45387 -1.09812,-0.67402c-1.44978,-0.83342 -3.3741,-0.30383 -5.07316,-0.77625c-0.24307,-0.06759 -0.48254,-0.14974 -0.71923,-0.24287c0.03219,0.16127 0.05439,0.33459 0.06503,0.52087c0.16182,2.83167 -2.66986,2.99347 -2.66986,2.99347l-2.84435,-0.22471c-0.93692,-0.40154 -1.94481,-0.60596 -2.99642,-0.70275c-2.14646,0.90968 -4.13483,1.73467 -6.53021,1.87124c-2.17644,0.1241 -4.24016,-1.70259 -5.96426,-2.80389c-0.04437,-0.02836 -1.13669,-1.03015 -1.95764,-1.60847l-0.22736,-0.03248c-0.3494,0.00504 -0.79117,0.16461 -0.86087,-0.12299l-1.05442,-0.15063c-1.39654,-0.17682 -2.47645,-1.36913 -2.47645,-2.81368c0,-0.20565 0.02189,-0.40621 0.06346,-0.59943c-0.06722,-0.00212 -0.1343,-0.00474 -0.20121,-0.00788c-0.98805,-0.04656 -2.63661,0.48546 -2.93177,-0.4586c-0.21681,-0.69346 -0.35918,-1.4046 -0.46924,-2.12342c-0.95873,0.24801 -1.82572,0.52713 -1.7144,0.70828l-0.78264,0.62611c0,0 -3.12637,1.56071 -4.33683,-1.00431l-0.00001,-0.00001c-0.70226,-1.48813 -0.32269,-2.40244 0.11982,-2.90786c-0.45272,-0.30624 -0.86241,-0.8189 -1.10046,-1.66126c-0.77135,-2.72938 2.11411,-3.54009 2.11411,-3.54009l0.92841,-0.20631c0.12375,0.48104 -0.02025,0.12841 0.8657,-0.35851c0.56254,-0.30917 1.11948,-0.63535 1.71319,-0.87936c1.76858,-0.72687 3.93287,-0.63067 5.78334,-1.1858c0,0 2.71667,-0.81499 3.53166,1.90166c0.05594,0.1865 0.09525,0.36403 0.11994,0.53295c0.85289,-0.29744 1.68917,-0.66448 2.49352,-1.16192c2.43453,-1.50561 4.60596,-3.51396 7.04906,-4.9699c1.2034,-0.71717 2.56116,-1.26573 3.90189,-1.80011l-0.06381,-0.22331l2.1284,-0.60812c0.22754,-0.07066 0.46735,-0.11345 0.71542,-0.12434c0.83955,-0.06962 2.0121,0.14341 2.68983,1.6174c0.03202,0.06739 0.06148,0.13624 0.08823,0.20643c0.54418,1.37531 0.04349,2.32408 -0.52691,2.90364c0.38999,-0.02279 0.77788,-0.03441 1.1627,-0.03441c2.28142,0.1328 6.72188,0.83571 7.95361,3.17864c0.47495,0.90345 2.20517,3.21363 1.19118,4.66307c-0.78144,1.11703 -1.6149,2.22458 -2.6391,3.12429c-0.06392,0.05614 -1.6875,0.21334 -1.90459,0.25688c-0.63163,0.12669 -1.25772,0.23676 -1.88101,0.3307c1.79341,0.86076 3.53257,1.79785 5.41936,1.90781c2.24251,0.1307 3.46218,0.43883 5.37195,1.56068c0.28806,0.16921 0.8866,0.30861 0.78264,0.62611c-0.00236,0.00718 -0.00529,0.01403 -0.00878,0.02055c1.4987,-0.00938 3.01325,-0.14447 4.49806,-0.01596c0.31694,0.02743 0.69438,0.01372 1.07956,0.00421c0.02961,-0.18015 0.07638,-0.36978 0.14289,-0.56928c0.89691,-2.69072 3.58765,-1.79383 3.58765,-1.79383c1.84256,0.61419 3.92011,1.03797 6.00985,1.2088c0.07998,-0.01138 0.16064,-0.02205 0.24207,-0.03191c0.01155,-0.0017 0.0231,-0.00341 0.03464,-0.00509c-0.87084,-0.40556 -1.82786,-0.9725 -2.77194,-1.61766c-1.16855,0.06768 -2.48441,-0.47659 -3.69888,-1.69106zM194.195,36.02511c-0.10025,-0.4173 -0.23993,-0.81812 -0.41008,-1.20617c0.03444,0.33636 0.05325,0.66007 0.05326,0.96566c0.12034,0.08314 0.23943,0.16345 0.35682,0.24051zM232.52425,40.79936c0.26061,-0.79109 0.5629,-1.4672 0.90137,-2.09544c-0.30557,0.11292 -0.56697,0.1925 -0.75663,0.22582c-0.153,0.02688 0.13077,-0.57861 0.02439,-0.46539c-0.23968,0.25507 -0.31305,0.62611 -0.46958,0.93917c-0.26389,0.48085 -0.49693,0.97997 -0.79166,1.44256c-0.17952,0.28176 -0.30861,0.8866 -0.62611,0.78264c-0.00489,-0.0016 -0.00963,-0.00347 -0.01421,-0.00561c0.01599,1.4281 0.10486,3.13954 -0.30344,4.33837c-0.04347,0.12765 -0.40864,-0.28521 -0.37371,-0.15497c0.10902,0.40629 0.70386,0.68228 0.62611,1.0957c-0.03476,0.18483 -0.07188,0.36956 -0.11142,0.55402c0.84592,-2.03329 1.56729,-4.69129 1.89489,-6.65688zM159.28938,33.67001c1.23514,0.038 2.46858,0.06351 3.71675,0.06351c1.2102,0 1.68953,-0.11246 2.41581,-0.28859c-0.78307,-0.23842 -1.74255,-0.42415 -2.10274,-0.29996c-1.29972,0 -2.66844,0.19833 -4.02982,0.52504z" fill="#ffffff" stroke="none" stroke-width="0.5"/><text transform="translate(155.82767,29.5511) scale(0.55974,0.55974)" font-size="40" xml:space="preserve" data-paper-data="{&quot;origPos&quot;:null}" fill="#000000" fill-rule="nonzero" stroke="none" stroke-width="1" stroke-linecap="butt" stroke-linejoin="miter" stroke-miterlimit="10" stroke-dasharray="" stroke-dashoffset="0" font-family="Handwriting" font-weight="normal" text-anchor="start" style="mix-blend-mode: normal"><tspan x="0" dy="0">Cleanliness</tspan></text><path d="M121.77086,43.07267c0,-6.01751 4.12287,-9.42567 10.14038,-9.42567c0.03113,0 0.04864,0 0.07976,0c0.56611,0 86.43229,0.00706 140.8249,-0.00769c7.02293,-0.00189 13.15764,2.08049 13.39237,9.25991c0.27086,8.28391 -4.77967,10.09675 -12.38994,10.0889c-3.18187,-0.00327 -138.11839,0.02404 -141.28112,-0.05421c-6.01568,-0.14883 -10.76637,-3.70419 -10.76637,-9.72171z" data-paper-data="{&quot;origPos&quot;:null}" fill="#f1f1f1" stroke="#d3d3d3" stroke-width="3.5"/></g></g></svg>