<svg version="1.1" xmlns="http://www.w3.org/2000/svg" xmlns:xlink="http://www.w3.org/1999/xlink" width="463.98623" height="271.67389" viewBox="0,0,463.98623,271.67389"><g transform="translate(-221.36176,-124.44414)"><g data-paper-data="{&quot;isPaintingLayer&quot;:true}" fill-rule="nonzero" stroke-linejoin="miter" stroke-miterlimit="10" stroke-dasharray="" stroke-dashoffset="0" style="mix-blend-mode: normal"><path d="M324.34162,360.70826v-172.12925h156.15615v172.12925z" data-paper-data="{&quot;origPos&quot;:null}" fill="#a5ffff" stroke="#6c6c6c" stroke-width="5" stroke-linecap="butt"/><g data-paper-data="{&quot;origPos&quot;:null}" fill="#ffffff" stroke="#d3d3d3" stroke-linecap="butt"><g data-paper-data="{&quot;origPos&quot;:null}" stroke-width="3.5"><path d="M298.80595,324.45808v-11.40457h78.03121v11.40457z" data-paper-data="{&quot;origPos&quot;:null}"/><path d="M298.40379,298.84584v-11.40456h78.03121v11.40456z" data-paper-data="{&quot;origPos&quot;:null}"/></g><path d="M289.00403,351.2708v-78.63145c0,0 8.35815,-21.72762 9.60384,-19.20769c4.45078,9.0036 9.0036,19.20769 9.0036,19.20769v78.63145z" data-paper-data="{&quot;origPos&quot;:null}" stroke-width="5"/></g><g data-paper-data="{&quot;origPos&quot;:null}" fill="#ffffff" stroke="#d3d3d3" stroke-linecap="butt"><g data-paper-data="{&quot;origPos&quot;:null}" stroke-width="3.5"><path d="M375.23452,324.05592v-11.40456h78.03122v11.40456z" data-paper-data="{&quot;origPos&quot;:null}"/><path d="M374.83236,298.44368v-11.40456h78.03121v11.40456z" data-paper-data="{&quot;origPos&quot;:null}"/></g><path d="M365.4326,350.86864v-78.63145c0,0 8.35815,-21.72762 9.60384,-19.20769c4.45078,9.0036 9.0036,19.20769 9.0036,19.20769v78.63145z" data-paper-data="{&quot;origPos&quot;:null}" stroke-width="5"/></g><g data-paper-data="{&quot;origPos&quot;:null}" fill="#ffffff" stroke="#d3d3d3" stroke-linecap="butt"><g data-paper-data="{&quot;origPos&quot;:null}" stroke-width="3.5"><path d="M445.86478,326.85904v-11.40456h78.03122v11.40456z" data-paper-data="{&quot;origPos&quot;:null}"/><path d="M445.46262,301.2468v-11.40457h78.03122v11.40457z" data-paper-data="{&quot;origPos&quot;:null}"/></g><path d="M436.06286,353.67176v-78.63145c0,0 8.35815,-21.72762 9.60384,-19.20768c4.45077,9.0036 9.0036,19.20768 9.0036,19.20768v78.63145z" data-paper-data="{&quot;origPos&quot;:null}" stroke-width="5"/></g><g data-paper-data="{&quot;origPos&quot;:null}" fill="#ffffff" stroke="#d3d3d3" stroke-linecap="butt"><g data-paper-data="{&quot;origPos&quot;:null}" stroke-width="3.5"><path d="M522.29335,326.45688v-11.40457h78.03121v11.40457z" data-paper-data="{&quot;origPos&quot;:null}"/><path d="M521.89119,300.84464v-11.40456h78.03121v11.40456z" data-paper-data="{&quot;origPos&quot;:null}"/></g><path d="M512.49143,353.2696v-78.63145c0,0 8.35815,-21.72762 9.60384,-19.20769c4.45078,9.0036 9.0036,19.20769 9.0036,19.20769v78.63145z" data-paper-data="{&quot;origPos&quot;:null}" stroke-width="5"/></g><path d="M394.58702,349.72648c0,0 23.89753,-2.79383 39.39734,-21.03854c14.53746,-17.11192 12.39393,-54.85596 12.39144,-68.7665c-0.00145,-8.14481 0.82403,-34.06676 -9.4567,-58.88275c-9.38812,-27.33483 -47.97696,-31.94847 -47.97696,-31.94847l121.80214,-6.3274c0,0 -18.98512,2.19287 -27.45011,38.6197c-2.07,8.90769 -3.30541,13.92741 -4.36255,23.01114c-0.77921,6.69557 -0.47431,28.59804 -0.47561,35.87161c-0.00249,13.91054 1.44618,29.58822 15.98364,46.70014c15.49981,18.24471 56.84515,43.10491 56.84515,43.10491z" data-paper-data="{&quot;origPos&quot;:null,&quot;index&quot;:null}" fill="#616161" stroke="#575757" stroke-width="5" stroke-linecap="round"/><g data-paper-data="{&quot;origPos&quot;:null}" stroke="none" stroke-width="0" stroke-linecap="butt"><path d="M221.36176,377.97968v-234.71616h54.58515v234.71616z" data-paper-data="{&quot;origPos&quot;:null}" fill="#a65500"/><path d="M252.77232,165.09252v-34.23596h379.91529v34.23596z" data-paper-data="{&quot;origPos&quot;:null}" fill="#a65500"/><path d="M554.40562,168.26166v-40.21609h87.03481v40.21609z" data-paper-data="{&quot;origPos&quot;:null}" fill="#a65500"/><path d="M637.92902,388.54978v-264.10564h47.41897v264.10564z" data-paper-data="{&quot;origPos&quot;:null}" fill="#a65500"/><path d="M265.17992,396.11803v-37.21489h379.35174v37.21489z" data-paper-data="{&quot;origPos&quot;:null}" fill="#a65500"/></g><path d="M277.07922,208.02745v-39.63397h359.88905v39.63397z" data-paper-data="{&quot;origPos&quot;:null}" fill="#e5e5e5" stroke="none" stroke-width="NaN" stroke-linecap="butt"/><path d="M278.40502,358.67925v-190.10863h104.19853v190.10863z" data-paper-data="{&quot;origPos&quot;:null}" fill="#e5e5e5" stroke="none" stroke-width="NaN" stroke-linecap="butt"/><path d="M457.1398,359.24529v-191.61013h80.14395v191.61014z" data-paper-data="{&quot;origPos&quot;:null}" fill="#e5e5e5" stroke="none" stroke-width="NaN" stroke-linecap="butt"/><path d="M276.36267,360.39452v-96.91253h362.8869v96.91253z" data-paper-data="{&quot;origPos&quot;:null}" fill="#e5e5e5" stroke="none" stroke-width="NaN" stroke-linecap="butt"/><path d="M509.01802,301.34647v-128.64494h44.59691v128.64494z" data-paper-data="{&quot;origPos&quot;:null}" fill="#e5e5e5" stroke="none" stroke-width="NaN" stroke-linecap="butt"/><g data-paper-data="{&quot;origPos&quot;:null}" stroke-linecap="butt"><path d="M330.9025,356.3151v-79.90398h94.30727v79.90398z" data-paper-data="{&quot;origPos&quot;:null}" fill="#955800" stroke="#794500" stroke-width="3"/><path d="M333.56615,353.43518v-75.37206h29.28469v75.37206z" data-paper-data="{&quot;origPos&quot;:null}" fill="#955800" stroke="#794500" stroke-width="3"/><path d="M365.69049,353.87445v-75.37206h29.28468v75.37206z" data-paper-data="{&quot;origPos&quot;:null}" fill="#955800" stroke="#794500" stroke-width="3"/><path d="M397.81483,354.07368v-13.20211h25.44407v13.20211z" data-paper-data="{&quot;origPos&quot;:null}" fill="#955800" stroke="#794500" stroke-width="3"/><path d="M397.29395,338.67042v-13.20211h25.44407v13.20211z" data-paper-data="{&quot;origPos&quot;:null}" fill="#955800" stroke="#794500" stroke-width="3"/><path d="M397.25314,322.78707v-13.20211h25.44407v13.20211z" data-paper-data="{&quot;origPos&quot;:null}" fill="#955800" stroke="#794500" stroke-width="3"/><path d="M397.25314,306.7045v-13.20211h25.44407v13.20211z" data-paper-data="{&quot;origPos&quot;:null}" fill="#955800" stroke="#794500" stroke-width="3"/><path d="M397.45237,290.58112v-13.20211h25.44407v13.20211z" data-paper-data="{&quot;origPos&quot;:null}" fill="#955800" stroke="#794500" stroke-width="3"/><path d="M354.68953,303.43022c0,-1.39198 1.12842,-2.5204 2.5204,-2.5204c1.39198,0 2.5204,1.12842 2.5204,2.5204c0,1.39198 -1.12842,2.5204 -2.5204,2.5204c-1.39198,0 -2.5204,-1.12842 -2.5204,-2.5204z" data-paper-data="{&quot;origPos&quot;:null}" fill="#704200" stroke="none" stroke-width="NaN"/><path d="M368.57095,303.86949c0,-1.39198 1.12842,-2.5204 2.5204,-2.5204c1.39198,0 2.5204,1.12842 2.5204,2.5204c0,1.39198 -1.12842,2.5204 -2.5204,2.5204c-1.39198,0 -2.5204,-1.12842 -2.5204,-2.5204z" data-paper-data="{&quot;origPos&quot;:null}" fill="#704200" stroke="none" stroke-width="NaN"/><path d="M408.8566,344.63521c0,-1.12684 0.91348,-2.04033 2.04032,-2.04033c1.12684,0 2.04033,0.91349 2.04033,2.04033c0,1.12684 -0.91349,2.04033 -2.04033,2.04033c-1.12684,0 -2.04032,-0.91349 -2.04032,-2.04033z" data-paper-data="{&quot;origPos&quot;:null}" fill="#704200" stroke="none" stroke-width="NaN"/><path d="M407.85564,329.71202c0,-1.12684 0.91348,-2.04033 2.04032,-2.04033c1.12684,0 2.04033,0.91349 2.04033,2.04033c0,1.12684 -0.91349,2.04032 -2.04033,2.04032c-1.12684,0 -2.04032,-0.91348 -2.04032,-2.04032z" data-paper-data="{&quot;origPos&quot;:null}" fill="#704200" stroke="none" stroke-width="NaN"/><path d="M408.05487,313.82868c0,-1.12684 0.91348,-2.04033 2.04032,-2.04033c1.12684,0 2.04033,0.91349 2.04033,2.04033c0,1.12684 -0.91349,2.04032 -2.04033,2.04032c-1.12684,0 -2.04032,-0.91348 -2.04032,-2.04032z" data-paper-data="{&quot;origPos&quot;:null}" fill="#704200" stroke="none" stroke-width="NaN"/><path d="M407.77402,297.7053c0,-1.12684 0.91348,-2.04033 2.04032,-2.04033c1.12684,0 2.04033,0.91349 2.04033,2.04033c0,1.12684 -0.91349,2.04032 -2.04033,2.04032c-1.12684,0 -2.04032,-0.91348 -2.04032,-2.04032z" data-paper-data="{&quot;origPos&quot;:null}" fill="#704200" stroke="none" stroke-width="NaN"/><path d="M407.97325,281.34188c0,-1.12684 0.91348,-2.04033 2.04032,-2.04033c1.12684,0 2.04033,0.91349 2.04033,2.04033c0,1.12684 -0.91349,2.04032 -2.04033,2.04032c-1.12684,0 -2.04032,-0.91348 -2.04032,-2.04032z" data-paper-data="{&quot;origPos&quot;:null}" fill="#704200" stroke="none" stroke-width="NaN"/></g><g data-paper-data="{&quot;origPos&quot;:null}"><g data-paper-data="{&quot;origPos&quot;:null}" fill="none" stroke="#000000" stroke-width="2.5" stroke-linecap="round"><path d="M512.32051,270.12537v2.27387" data-paper-data="{&quot;origPos&quot;:null}"/><path d="M500.24623,269.92578v2.27388" data-paper-data="{&quot;origPos&quot;:null}"/></g><g data-paper-data="{&quot;origPos&quot;:null}" fill="none" stroke="#000000" stroke-width="2.5" stroke-linecap="round"><path d="M471.62318,269.97884v2.27388" data-paper-data="{&quot;origPos&quot;:null}"/><path d="M459.5489,269.77924v2.27387" data-paper-data="{&quot;origPos&quot;:null}"/></g><g data-paper-data="{&quot;origPos&quot;:null}" fill="none" stroke="#000000" stroke-width="2.5" stroke-linecap="round"><path d="M449.69544,269.77924v2.27387" data-paper-data="{&quot;origPos&quot;:null}"/><path d="M437.62116,269.57965v2.27387" data-paper-data="{&quot;origPos&quot;:null}"/></g><g data-paper-data="{&quot;origPos&quot;:null}" fill="none" stroke="#000000" stroke-width="2.5" stroke-linecap="round"><path d="M491.5297,269.92578v2.27388" data-paper-data="{&quot;origPos&quot;:null}"/><path d="M479.45542,272.00006v-2.27388" data-paper-data="{&quot;origPos&quot;:null}"/></g><path d="M433.11424,357.21924v-83.60927h83.60928v83.60927z" data-paper-data="{&quot;origPos&quot;:null}" fill="#999999" stroke="#7b7b7b" stroke-width="3" stroke-linecap="butt"/><path d="M508.24869,293.33147h-69.48832" data-paper-data="{&quot;origPos&quot;:null}" fill="none" stroke="#7b7b7b" stroke-width="4" stroke-linecap="round"/><path d="M438.98094,349.16761v-48.14401h69.63438v48.14401z" data-paper-data="{&quot;origPos&quot;:null}" fill="#b9b9b8" stroke="#7b7b7b" stroke-width="3" stroke-linecap="butt"/><g data-paper-data="{&quot;origPos&quot;:null}" fill="#7a7a7a" stroke="#7b7b7b" stroke-width="3.5" stroke-linecap="butt"><path d="M443.05378,283.0917c0,-1.11752 0.90592,-2.02344 2.02344,-2.02344c1.11752,0 2.02344,0.90592 2.02344,2.02344c0,1.11752 -0.90593,2.02344 -2.02344,2.02344c-1.11752,0 -2.02344,-0.90593 -2.02344,-2.02344z" data-paper-data="{&quot;origPos&quot;:null}"/><path d="M456.42665,283.06797c0,-1.11752 0.90592,-2.02344 2.02344,-2.02344c1.11752,0 2.02344,0.90592 2.02344,2.02344c0,1.11752 -0.90593,2.02345 -2.02344,2.02345c-1.11752,0 -2.02344,-0.90593 -2.02344,-2.02345z" data-paper-data="{&quot;origPos&quot;:null}"/><path d="M487.94075,283.74199c0,-1.11752 0.90592,-2.02344 2.02344,-2.02344c1.11752,0 2.02345,0.90592 2.02345,2.02344c0,1.11752 -0.90593,2.02345 -2.02345,2.02345c-1.11752,0 -2.02344,-0.90593 -2.02344,-2.02345z" data-paper-data="{&quot;origPos&quot;:null}"/><path d="M500.61588,283.71826c0,-1.11752 0.90592,-2.02344 2.02344,-2.02344c1.11752,0 2.02344,0.90592 2.02344,2.02344c0,1.11752 -0.90593,2.02345 -2.02344,2.02345c-1.11752,0 -2.02344,-0.90593 -2.02344,-2.02345z" data-paper-data="{&quot;origPos&quot;:null}"/></g><g data-paper-data="{&quot;origPos&quot;:null}" fill="none" stroke-width="1" stroke-linecap="round"><path d="M451.64339,266.43048c0,0 -0.83799,1.74772 -1.86032,1.89024c-3.06697,0.42758 -8.24912,-0.20644 -12.4234,-0.50226c-0.68676,-0.04867 -1.75973,-1.26165 -1.75973,-1.26165" data-paper-data="{&quot;origPos&quot;:null}" stroke="#000000"/><path d="M435.34728,266.43048l-5.81101,-3.78979" data-paper-data="{&quot;origPos&quot;:null}" stroke="#838383"/></g><g data-paper-data="{&quot;origPos&quot;:null,&quot;index&quot;:null}" fill="none" stroke-width="1" stroke-linecap="round"><path d="M513.23763,266.7564c0,0 -0.18869,1.59195 -0.87544,1.64063c-4.17428,0.29582 -9.23011,0.29821 -12.29708,-0.12937c-1.02233,-0.14252 -0.97604,-1.51126 -0.97604,-1.51126" data-paper-data="{&quot;origPos&quot;:null}" stroke="#000000"/><path d="M513.36395,266.50375l5.93735,-1.51592" data-paper-data="{&quot;origPos&quot;:null}" stroke="#838383"/></g><path d="M473.32707,256.32437c0,0 0.18841,4.5984 -0.06465,8.08019c-0.14247,1.96027 0.58006,3.62276 -1.38207,3.73694c-5.14634,0.29947 -9.10759,-0.29365 -13.20843,-0.16669c-1.32004,0.04087 -1.06058,-0.79691 -1.09967,-2.11701c-0.11014,-3.71871 -0.16231,-9.65976 -0.16231,-9.65976" data-paper-data="{&quot;origPos&quot;:null}" fill="none" stroke="#000000" stroke-width="1" stroke-linecap="round"/><path d="M492.47564,262.08234c0,0 1.07269,0.42962 0.81963,3.91141c-0.14248,1.96026 0.58005,2.23317 -1.38208,2.34735c-5.14634,0.29947 -8.85493,-0.41997 -12.95577,-0.29301c-1.32004,0.04087 -1.06058,-0.79692 -1.09967,-2.11702c-0.11014,-3.71871 0.46932,-4.22772 0.46932,-4.22772" data-paper-data="{&quot;origPos&quot;:null}" fill="none" stroke="#000000" stroke-width="1" stroke-linecap="round"/></g><path d="M638.41982,359.75826v-190.75645" data-paper-data="{&quot;origPos&quot;:null}" fill="none" stroke="#a76000" stroke-width="5" stroke-linecap="round"/><path d="M278.33858,359.2162h358.52584" data-paper-data="{&quot;origPos&quot;:null}" fill="none" stroke="#a76000" stroke-width="5" stroke-linecap="round"/><path d="M276.99598,167.1828v0h276.24326" data-paper-data="{&quot;origPos&quot;:null}" fill="none" stroke="#a76000" stroke-width="5" stroke-linecap="round"/><path d="M277.51649,240.51563v-72.74011" data-paper-data="{&quot;origPos&quot;:null}" fill="none" stroke="#a76000" stroke-width="5" stroke-linecap="round"/><path d="M277.72064,241.27834v116.52542" data-paper-data="{&quot;origPos&quot;:null}" fill="none" stroke="#6a3c00" stroke-width="5" stroke-linecap="round"/><path d="M556.65618,357.28265v-36.01108h77.56233v35.5494" data-paper-data="{&quot;origPos&quot;:null}" fill="#945700" stroke="#b06400" stroke-width="5" stroke-linecap="round"/><path d="M556.57769,319.80805v-36.01109h77.56233v35.5494" data-paper-data="{&quot;origPos&quot;:null}" fill="#814b00" stroke="#9d5900" stroke-width="5" stroke-linecap="round"/><path d="M556.49921,281.87174v-36.01108h77.56233v35.5494" data-paper-data="{&quot;origPos&quot;:null}" fill="#724200" stroke="#915200" stroke-width="5" stroke-linecap="round"/><path d="M556.42072,244.39715v-36.01108h77.56233v35.5494" data-paper-data="{&quot;origPos&quot;:null}" fill="#724200" stroke="#8c4f00" stroke-width="5" stroke-linecap="round"/><path d="M556.34224,206.46085v-36.01109h77.56233v35.5494" data-paper-data="{&quot;origPos&quot;:null}" fill="#704100" stroke="#824a00" stroke-width="5" stroke-linecap="round"/><g data-paper-data="{&quot;origPos&quot;:null}" fill="none" stroke="#000000"><path d="M382.06756,262.18974v-53.63079h75.5804v53.63079z" data-paper-data="{&quot;origPos&quot;:null}" stroke-width="2.5" stroke-linecap="butt"/><path d="M407.55562,209.02063v52.85913" data-paper-data="{&quot;origPos&quot;:null}" stroke-width="1.5" stroke-linecap="round"/><path d="M383.26133,235.22156h74.52183" data-paper-data="{&quot;origPos&quot;:null}" stroke-width="1.5" stroke-linecap="round"/><path d="M432.86957,209.40383v52.85913" data-paper-data="{&quot;origPos&quot;:null}" stroke-width="1.5" stroke-linecap="round"/></g><g data-paper-data="{&quot;origPos&quot;:null}" fill="none" stroke="#653900" stroke-width="3" stroke-linecap="round"><path d="M305.62457,358.538v-50.06859" data-paper-data="{&quot;origPos&quot;:null}"/><path d="M383.05413,307.29657v50.06859" data-paper-data="{&quot;origPos&quot;:null}"/><path d="M305.40667,306.83942h77.1605" data-paper-data="{&quot;origPos&quot;:null,&quot;origRot&quot;:0}"/></g></g></g></svg>